M48
; DRILL file {KiCad 8.0.0} date 2024-05-17T21:06:53-0400
; FORMAT={-:-/ absolute / inch / decimal}
; #@! TF.CreationDate,2024-05-17T21:06:53-04:00
; #@! TF.GenerationSoftware,Kicad,Pcbnew,8.0.0
; #@! TF.FileFunction,Plated,1,2,PTH
FMAT,2
INCH
; #@! TA.AperFunction,Plated,PTH,ViaDrill
T1C0.0157
; #@! TA.AperFunction,Plated,PTH,ComponentDrill
T2C0.0315
; #@! TA.AperFunction,Plated,PTH,ComponentDrill
T3C0.0354
; #@! TA.AperFunction,Plated,PTH,ComponentDrill
T4C0.0394
; #@! TA.AperFunction,Plated,PTH,ComponentDrill
T5C0.0433
; #@! TA.AperFunction,Plated,PTH,ViaDrill
T6C0.1181
; #@! TA.AperFunction,Plated,PTH,ComponentDrill
T7C0.1260
%
G90
G05
T1
X6.29Y-2.067
X6.33Y-1.965
X6.375Y-2.166
X6.4465Y-3.229
X6.4465Y-3.873
X6.47Y-5.037
X6.4775Y-3.773
X6.478Y-3.273
X6.506Y-4.017
X6.5371Y-3.598
X6.707Y-1.672
X6.707Y-1.82
X6.751Y-1.715
X6.751Y-1.847
X6.784Y-3.167
X6.796Y-4.099
X6.803Y-1.739
X6.803Y-1.871
X6.812Y-3.265
X6.87Y-3.769
X6.8722Y-3.7297
X6.894Y-3.415
X7.09Y-3.673
X7.148Y-3.121
X7.148Y-3.4952
X7.19Y-3.119
X7.19Y-3.4952
X7.332Y-3.673
X7.53Y-2.215
X7.59Y-3.731
X7.79Y-3.731
X8.012Y-2.119
X8.4791Y-2.769
X8.718Y-3.718
X8.819Y-3.819
X8.864Y-3.637
X9.818Y-3.981
X9.891Y-3.4
X9.918Y-3.881
X10.036Y-3.4
X10.096Y-2.97
X10.214Y-4.056
X10.22Y-3.656
T2
X5.408Y-5.8159
X5.408Y-5.9159
X5.668Y-5.8159
X5.668Y-5.9159
X5.892Y-3.772
X5.892Y-3.8704
X5.9176Y-3.588
X5.928Y-5.8159
X5.928Y-5.9159
X6.016Y-3.588
X6.0169Y-1.5658
X6.0169Y-1.6658
X6.0169Y-1.7658
X6.0169Y-1.8658
X6.0169Y-1.9658
X6.0169Y-2.0658
X6.0169Y-2.1658
X6.0169Y-2.2658
X6.0169Y-2.3658
X6.0169Y-2.4658
X6.0169Y-2.5658
X6.0169Y-2.6658
X6.0169Y-2.7658
X6.0169Y-2.8658
X6.0169Y-2.9658
X6.0169Y-3.0658
X6.0169Y-3.1658
X6.0169Y-3.2658
X6.0169Y-3.3658
X6.0169Y-3.4658
X6.0171Y-3.7726
X6.0171Y-3.8726
X6.0171Y-3.9726
X6.0171Y-4.0726
X6.0171Y-4.1726
X6.0171Y-4.2726
X6.0171Y-4.3726
X6.0171Y-4.4726
X6.0171Y-4.5726
X6.0171Y-4.6726
X6.0171Y-4.7726
X6.0171Y-4.8726
X6.0171Y-4.9726
X6.0171Y-5.0726
X6.188Y-5.8159
X6.188Y-5.9159
X6.448Y-5.8159
X6.448Y-5.9159
X6.6169Y-1.5658
X6.6169Y-1.6658
X6.6169Y-1.7658
X6.6169Y-1.8658
X6.6169Y-1.9658
X6.6169Y-2.0658
X6.6169Y-2.1658
X6.6169Y-2.2658
X6.6169Y-2.3658
X6.6169Y-2.4658
X6.6169Y-2.5658
X6.6169Y-2.6658
X6.6169Y-2.7658
X6.6169Y-2.8658
X6.6169Y-2.9658
X6.6169Y-3.0658
X6.6169Y-3.1658
X6.6169Y-3.2658
X6.6169Y-3.3658
X6.6169Y-3.4658
X6.6171Y-3.7726
X6.6171Y-3.8726
X6.6171Y-3.9726
X6.6171Y-4.0726
X6.6171Y-4.1726
X6.6171Y-4.2726
X6.6171Y-4.3726
X6.6171Y-4.4726
X6.6171Y-4.5726
X6.6171Y-4.6726
X6.6171Y-4.7726
X6.6171Y-4.8726
X6.6171Y-4.9726
X6.6171Y-5.0726
X6.708Y-5.8159
X6.708Y-5.9159
X6.7451Y-4.473
X6.7451Y-4.573
X6.7451Y-4.665
X6.7451Y-4.8619
X6.8971Y-1.667
X6.8971Y-1.767
X6.9421Y-3.933
X6.9421Y-4.0314
X6.968Y-5.8157
X6.968Y-5.9157
X7.0011Y-4.473
X7.0011Y-4.6651
X7.0251Y-1.5666
X7.0251Y-1.6666
X7.0251Y-1.7666
X7.0251Y-1.8666
X7.0251Y-1.9666
X7.0251Y-2.0666
X7.0251Y-2.1666
X7.0251Y-2.2666
X7.0251Y-2.3666
X7.0251Y-2.4666
X7.0251Y-2.5666
X7.0251Y-2.6666
X7.0251Y-2.7666
X7.0251Y-2.8666
X7.0251Y-2.9666
X7.0251Y-3.0666
X7.0251Y-3.1666
X7.0251Y-3.2666
X7.0251Y-3.3666
X7.0251Y-3.4666
X7.228Y-5.8177
X7.228Y-5.9177
X7.279Y-0.69
X7.279Y-0.79
X7.3046Y-5.07
X7.403Y-4.6028
X7.403Y-4.7012
X7.403Y-4.851
X7.403Y-4.9494
X7.403Y-5.07
X7.43Y-4.421
X7.4451Y-3.933
X7.4451Y-4.033
X7.5284Y-4.421
X7.53Y-4.551
X7.53Y-4.651
X7.53Y-4.751
X7.53Y-4.851
X7.53Y-4.951
X7.53Y-5.051
X7.53Y-5.151
X7.53Y-5.251
X7.539Y-0.69
X7.539Y-0.79
X7.6251Y-1.5666
X7.6251Y-1.6666
X7.6251Y-1.7666
X7.6251Y-1.8666
X7.6251Y-1.9666
X7.6251Y-2.0666
X7.6251Y-2.1666
X7.6251Y-2.2666
X7.6251Y-2.3666
X7.6251Y-2.4666
X7.6251Y-2.5666
X7.6251Y-2.6666
X7.6251Y-2.7666
X7.6251Y-2.8666
X7.6251Y-2.9666
X7.6251Y-3.0666
X7.6251Y-3.1666
X7.6251Y-3.2666
X7.6251Y-3.3666
X7.6251Y-3.4666
X7.799Y-0.69
X7.799Y-0.79
X7.83Y-4.551
X7.83Y-4.651
X7.83Y-4.751
X7.83Y-4.851
X7.83Y-4.951
X7.83Y-5.051
X7.83Y-5.151
X7.83Y-5.251
X7.9238Y-4.1828
X7.9238Y-4.2812
X8.0471Y-3.681
X8.0471Y-3.781
X8.0471Y-3.881
X8.0471Y-3.981
X8.0471Y-4.081
X8.0471Y-4.181
X8.0471Y-4.281
X8.059Y-0.69
X8.059Y-0.79
X8.2031Y-3.398
X8.3016Y-3.398
X8.3031Y-1.969
X8.3031Y-2.069
X8.3031Y-2.169
X8.3031Y-2.269
X8.3031Y-2.369
X8.3031Y-2.469
X8.3031Y-2.569
X8.3031Y-2.669
X8.3031Y-2.769
X8.3031Y-2.869
X8.3031Y-2.969
X8.3031Y-3.069
X8.3031Y-3.169
X8.3031Y-3.269
X8.3471Y-3.681
X8.3471Y-3.781
X8.3471Y-3.881
X8.3471Y-3.981
X8.3471Y-4.081
X8.3471Y-4.181
X8.3471Y-4.281
X8.6041Y-0.9805
X8.6041Y-1.2805
X8.9031Y-1.969
X8.9031Y-2.069
X8.9031Y-2.169
X8.9031Y-2.269
X8.9031Y-2.369
X8.9031Y-2.469
X8.9031Y-2.569
X8.9031Y-2.669
X8.9031Y-2.769
X8.9031Y-2.869
X8.9031Y-2.969
X8.9031Y-3.069
X8.9031Y-3.169
X8.9031Y-3.269
X8.9041Y-0.9805
X8.9041Y-1.2805
X9.0861Y-3.394
X9.13Y-0.987
X9.13Y-1.587
X9.1846Y-3.394
X9.1851Y-1.9684
X9.1851Y-2.0684
X9.1851Y-2.1684
X9.1851Y-2.2684
X9.1851Y-2.3684
X9.1851Y-2.4684
X9.1851Y-2.5684
X9.1851Y-2.6684
X9.1851Y-2.7684
X9.1851Y-2.8684
X9.1851Y-2.9684
X9.1851Y-3.0684
X9.1851Y-3.1684
X9.1851Y-3.2684
X9.43Y-0.987
X9.43Y-1.587
X9.4421Y-3.8664
X9.4421Y-4.1264
X9.4421Y-4.3864
X9.5421Y-3.8664
X9.5421Y-4.1264
X9.5421Y-4.3864
X9.6136Y-5.393
X9.712Y-5.393
X9.7851Y-1.9684
X9.7851Y-2.0684
X9.7851Y-2.1684
X9.7851Y-2.2684
X9.7851Y-2.3684
X9.7851Y-2.4684
X9.7851Y-2.5684
X9.7851Y-2.6684
X9.7851Y-2.7684
X9.7851Y-2.8684
X9.7851Y-2.9684
X9.7851Y-3.0684
X9.7851Y-3.1684
X9.7851Y-3.2684
X10.906Y-0.899
X10.906Y-1.159
X10.906Y-1.419
X10.906Y-1.679
X10.906Y-1.939
X10.906Y-2.199
X10.906Y-2.459
X10.906Y-2.719
X10.906Y-3.096
X10.906Y-3.356
X10.906Y-3.616
X10.906Y-3.876
X10.906Y-4.396
X10.906Y-4.656
X10.906Y-4.916
X10.9062Y-4.136
X11.006Y-0.899
X11.006Y-1.159
X11.006Y-1.419
X11.006Y-1.679
X11.006Y-1.939
X11.006Y-2.199
X11.006Y-2.459
X11.006Y-2.719
X11.006Y-3.096
X11.006Y-3.356
X11.006Y-3.616
X11.006Y-3.876
X11.006Y-4.396
X11.006Y-4.656
X11.006Y-4.916
X11.0062Y-4.136
T3
X5.408Y-5.577
X5.408Y-5.677
X5.668Y-5.577
X5.668Y-5.677
X5.928Y-5.577
X5.928Y-5.677
X6.188Y-5.577
X6.188Y-5.677
X6.448Y-5.577
X6.448Y-5.677
X6.708Y-5.577
X6.708Y-5.677
X6.968Y-5.577
X6.968Y-5.677
X7.228Y-5.5777
X7.228Y-5.6777
X7.279Y-0.93
X7.279Y-1.03
X7.539Y-0.93
X7.539Y-1.03
X7.799Y-0.93
X7.799Y-1.03
X8.059Y-0.93
X8.059Y-1.03
X9.2021Y-3.8664
X9.2021Y-4.1264
X9.2021Y-4.3874
X9.3021Y-3.8664
X9.3021Y-4.1264
X9.3021Y-4.3874
X10.666Y-0.899
X10.666Y-1.159
X10.666Y-1.419
X10.666Y-1.679
X10.666Y-1.939
X10.666Y-2.199
X10.666Y-2.459
X10.666Y-2.719
X10.666Y-3.096
X10.666Y-3.356
X10.666Y-3.616
X10.666Y-3.876
X10.666Y-4.396
X10.666Y-4.656
X10.666Y-4.916
X10.6662Y-4.136
X10.766Y-0.899
X10.766Y-1.159
X10.766Y-1.419
X10.766Y-1.679
X10.766Y-1.939
X10.766Y-2.199
X10.766Y-2.459
X10.766Y-2.719
X10.766Y-3.096
X10.766Y-3.356
X10.766Y-3.616
X10.766Y-3.876
X10.766Y-4.396
X10.766Y-4.656
X10.766Y-4.916
X10.7662Y-4.136
T4
X4.886Y-1.416
X4.886Y-1.516
X4.886Y-1.616
X4.886Y-1.716
X4.886Y-1.816
X4.886Y-1.916
X4.886Y-2.016
X4.886Y-2.116
X4.886Y-2.216
X4.886Y-2.316
X4.886Y-4.242
X4.886Y-4.342
X4.886Y-4.442
X4.886Y-4.542
X4.886Y-4.642
X4.886Y-4.742
X4.886Y-4.842
X4.886Y-4.942
X4.886Y-5.042
X4.886Y-5.142
X5.968Y-5.295
X6.068Y-5.295
X6.168Y-5.295
X6.268Y-5.295
X6.368Y-5.295
X6.468Y-5.295
X6.568Y-5.295
X6.668Y-5.295
X7.5186Y-1.31
X7.6186Y-1.31
X7.7186Y-1.31
X7.8186Y-1.31
X8.3943Y-5.5492
X8.4488Y-5.661
X8.5033Y-5.5492
X8.5579Y-5.661
X8.6124Y-5.5492
X8.6669Y-5.661
X8.7214Y-5.5492
X8.776Y-5.661
X8.8305Y-5.5492
X8.9171Y-4.027
X8.9171Y-4.127
X8.9171Y-4.227
X10.376Y-1.459
X10.376Y-1.559
X10.376Y-1.659
X10.376Y-1.759
X10.376Y-1.859
X10.376Y-1.959
X10.376Y-2.059
X10.376Y-2.159
X10.39Y-3.656
X10.39Y-3.756
X10.39Y-3.856
X10.39Y-3.956
X10.39Y-4.056
X10.39Y-4.156
X10.39Y-4.256
X10.39Y-4.356
T5
X5.8811Y-4.472
X5.8811Y-4.872
X6.6171Y-3.602
X7.0171Y-3.602
X7.0672Y-3.9334
X7.0672Y-4.1106
X7.3231Y-3.9334
X7.3231Y-4.1106
T6
X0.686Y-0.686
X0.686Y-3.066
X0.686Y-3.492
X0.686Y-5.872
X5.014Y-0.686
X5.014Y-3.066
X5.014Y-3.492
X5.014Y-5.872
X7.716Y-4.102
X8.066Y-1.674
X11.028Y-0.664
X11.028Y-5.894
T7
X8.1203Y-5.6051
X9.1045Y-5.6051
T4
G00X9.5628Y-5.515
M15
G01X9.6652Y-5.515
M16
G05
G00X9.5707Y-5.763
M15
G01X9.6573Y-5.763
M16
G05
G00X9.803Y-5.5859
M15
G01X9.803Y-5.6725
M16
G05
M30
