%TF.GenerationSoftware,KiCad,Pcbnew,8.0.0*%
%TF.CreationDate,2024-05-17T21:06:54-04:00*%
%TF.ProjectId,Eater 6502 computer,45617465-7220-4363-9530-3220636f6d70,rev?*%
%TF.SameCoordinates,Original*%
%TF.FileFunction,Drillmap*%
%TF.FilePolarity,Positive*%
%FSLAX45Y45*%
G04 Gerber Fmt 4.5, Leading zero omitted, Abs format (unit mm)*
G04 Created by KiCad (PCBNEW 8.0.0) date 2024-05-17 21:06:54*
%MOMM*%
%LPD*%
G01*
G04 APERTURE LIST*
%ADD10C,0.100000*%
%ADD11C,0.200000*%
%ADD12C,0.110000*%
%ADD13C,0.300000*%
%ADD14C,0.320000*%
G04 APERTURE END LIST*
D10*
X28483560Y-1214120D02*
X1214120Y-1214120D01*
X28483560Y-15443200D02*
X28483560Y-1214120D01*
X24892000Y-15443200D02*
X1214120Y-15443200D01*
X24892000Y-15443200D02*
X28483560Y-15443200D01*
X1214120Y-15443200D02*
X1214120Y-1214120D01*
D11*
D10*
X15956600Y-5230180D02*
X15996600Y-5270180D01*
X15996600Y-5230180D02*
X15956600Y-5270180D01*
X16058200Y-4971100D02*
X16098200Y-5011100D01*
X16098200Y-4971100D02*
X16058200Y-5011100D01*
X16172500Y-5481640D02*
X16212500Y-5521640D01*
X16212500Y-5481640D02*
X16172500Y-5521640D01*
X16354170Y-8181660D02*
X16394170Y-8221660D01*
X16394170Y-8181660D02*
X16354170Y-8221660D01*
X16354170Y-9817420D02*
X16394170Y-9857420D01*
X16394170Y-9817420D02*
X16354170Y-9857420D01*
X16413800Y-12773980D02*
X16453800Y-12813980D01*
X16453800Y-12773980D02*
X16413800Y-12813980D01*
X16432790Y-9563420D02*
X16472790Y-9603420D01*
X16472790Y-9563420D02*
X16432790Y-9603420D01*
X16434120Y-8293420D02*
X16474120Y-8333420D01*
X16474120Y-8293420D02*
X16434120Y-8333420D01*
X16505240Y-10183180D02*
X16545240Y-10223180D01*
X16545240Y-10183180D02*
X16505240Y-10223180D01*
X16584340Y-9118920D02*
X16624340Y-9158920D01*
X16624340Y-9118920D02*
X16584340Y-9158920D01*
X17015780Y-4226880D02*
X17055780Y-4266880D01*
X17055780Y-4226880D02*
X17015780Y-4266880D01*
X17015780Y-4602800D02*
X17055780Y-4642800D01*
X17055780Y-4602800D02*
X17015780Y-4642800D01*
X17127540Y-4336100D02*
X17167540Y-4376100D01*
X17167540Y-4336100D02*
X17127540Y-4376100D01*
X17127540Y-4671380D02*
X17167540Y-4711380D01*
X17167540Y-4671380D02*
X17127540Y-4711380D01*
X17211360Y-8024180D02*
X17251360Y-8064180D01*
X17251360Y-8024180D02*
X17211360Y-8064180D01*
X17241840Y-10391460D02*
X17281840Y-10431460D01*
X17281840Y-10391460D02*
X17241840Y-10431460D01*
X17259620Y-4397060D02*
X17299620Y-4437060D01*
X17299620Y-4397060D02*
X17259620Y-4437060D01*
X17259620Y-4732340D02*
X17299620Y-4772340D01*
X17299620Y-4732340D02*
X17259620Y-4772340D01*
X17282480Y-8273100D02*
X17322480Y-8313100D01*
X17322480Y-8273100D02*
X17282480Y-8313100D01*
X17429800Y-9553260D02*
X17469800Y-9593260D01*
X17469800Y-9553260D02*
X17429800Y-9593260D01*
X17435344Y-9453464D02*
X17475344Y-9493464D01*
X17475344Y-9453464D02*
X17435344Y-9493464D01*
X17490760Y-8654100D02*
X17530760Y-8694100D01*
X17530760Y-8654100D02*
X17490760Y-8694100D01*
X17988600Y-9309420D02*
X18028600Y-9349420D01*
X18028600Y-9309420D02*
X17988600Y-9349420D01*
X18135920Y-7907340D02*
X18175920Y-7947340D01*
X18175920Y-7907340D02*
X18135920Y-7947340D01*
X18135920Y-8857710D02*
X18175920Y-8897710D01*
X18175920Y-8857710D02*
X18135920Y-8897710D01*
X18242600Y-7902260D02*
X18282600Y-7942260D01*
X18282600Y-7902260D02*
X18242600Y-7942260D01*
X18242600Y-8857710D02*
X18282600Y-8897710D01*
X18282600Y-8857710D02*
X18242600Y-8897710D01*
X18603280Y-9309420D02*
X18643280Y-9349420D01*
X18643280Y-9309420D02*
X18603280Y-9349420D01*
X19106200Y-5606100D02*
X19146200Y-5646100D01*
X19146200Y-5606100D02*
X19106200Y-5646100D01*
X19258600Y-9456740D02*
X19298600Y-9496740D01*
X19298600Y-9456740D02*
X19258600Y-9496740D01*
X19766600Y-9456740D02*
X19806600Y-9496740D01*
X19806600Y-9456740D02*
X19766600Y-9496740D01*
X20330480Y-5362260D02*
X20370480Y-5402260D01*
X20370480Y-5362260D02*
X20330480Y-5402260D01*
X21517020Y-7013260D02*
X21557020Y-7053260D01*
X21557020Y-7013260D02*
X21517020Y-7053260D01*
X22123720Y-9423720D02*
X22163720Y-9463720D01*
X22163720Y-9423720D02*
X22123720Y-9463720D01*
X22380260Y-9680260D02*
X22420260Y-9720260D01*
X22420260Y-9680260D02*
X22380260Y-9720260D01*
X22494560Y-9217980D02*
X22534560Y-9257980D01*
X22534560Y-9217980D02*
X22494560Y-9257980D01*
X24917720Y-10091740D02*
X24957720Y-10131740D01*
X24957720Y-10091740D02*
X24917720Y-10131740D01*
X25103140Y-8616000D02*
X25143140Y-8656000D01*
X25143140Y-8616000D02*
X25103140Y-8656000D01*
X25171720Y-9837740D02*
X25211720Y-9877740D01*
X25211720Y-9837740D02*
X25171720Y-9877740D01*
X25471440Y-8616000D02*
X25511440Y-8656000D01*
X25511440Y-8616000D02*
X25471440Y-8656000D01*
X25623840Y-7523800D02*
X25663840Y-7563800D01*
X25663840Y-7523800D02*
X25623840Y-7563800D01*
X25923560Y-10282240D02*
X25963560Y-10322240D01*
X25963560Y-10282240D02*
X25923560Y-10322240D01*
X25938800Y-9266240D02*
X25978800Y-9306240D01*
X25978800Y-9266240D02*
X25938800Y-9306240D01*
X13776320Y-14772280D02*
G75*
G02*
X13696320Y-14772280I-40000J0D01*
G01*
X13696320Y-14772280D02*
G75*
G02*
X13776320Y-14772280I40000J0D01*
G01*
X13776320Y-15026280D02*
G75*
G02*
X13696320Y-15026280I-40000J0D01*
G01*
X13696320Y-15026280D02*
G75*
G02*
X13776320Y-15026280I40000J0D01*
G01*
X14436720Y-14772280D02*
G75*
G02*
X14356720Y-14772280I-40000J0D01*
G01*
X14356720Y-14772280D02*
G75*
G02*
X14436720Y-14772280I40000J0D01*
G01*
X14436720Y-15026280D02*
G75*
G02*
X14356720Y-15026280I-40000J0D01*
G01*
X14356720Y-15026280D02*
G75*
G02*
X14436720Y-15026280I40000J0D01*
G01*
X15005680Y-9580880D02*
G75*
G02*
X14925680Y-9580880I-40000J0D01*
G01*
X14925680Y-9580880D02*
G75*
G02*
X15005680Y-9580880I40000J0D01*
G01*
X15005680Y-9830880D02*
G75*
G02*
X14925680Y-9830880I-40000J0D01*
G01*
X14925680Y-9830880D02*
G75*
G02*
X15005680Y-9830880I40000J0D01*
G01*
X15070640Y-9113520D02*
G75*
G02*
X14990640Y-9113520I-40000J0D01*
G01*
X14990640Y-9113520D02*
G75*
G02*
X15070640Y-9113520I40000J0D01*
G01*
X15097120Y-14772280D02*
G75*
G02*
X15017120Y-14772280I-40000J0D01*
G01*
X15017120Y-14772280D02*
G75*
G02*
X15097120Y-14772280I40000J0D01*
G01*
X15097120Y-15026280D02*
G75*
G02*
X15017120Y-15026280I-40000J0D01*
G01*
X15017120Y-15026280D02*
G75*
G02*
X15097120Y-15026280I40000J0D01*
G01*
X15320640Y-9113520D02*
G75*
G02*
X15240640Y-9113520I-40000J0D01*
G01*
X15240640Y-9113520D02*
G75*
G02*
X15320640Y-9113520I40000J0D01*
G01*
X15323040Y-3977220D02*
G75*
G02*
X15243040Y-3977220I-40000J0D01*
G01*
X15243040Y-3977220D02*
G75*
G02*
X15323040Y-3977220I40000J0D01*
G01*
X15323040Y-4231220D02*
G75*
G02*
X15243040Y-4231220I-40000J0D01*
G01*
X15243040Y-4231220D02*
G75*
G02*
X15323040Y-4231220I40000J0D01*
G01*
X15323040Y-4485220D02*
G75*
G02*
X15243040Y-4485220I-40000J0D01*
G01*
X15243040Y-4485220D02*
G75*
G02*
X15323040Y-4485220I40000J0D01*
G01*
X15323040Y-4739220D02*
G75*
G02*
X15243040Y-4739220I-40000J0D01*
G01*
X15243040Y-4739220D02*
G75*
G02*
X15323040Y-4739220I40000J0D01*
G01*
X15323040Y-4993220D02*
G75*
G02*
X15243040Y-4993220I-40000J0D01*
G01*
X15243040Y-4993220D02*
G75*
G02*
X15323040Y-4993220I40000J0D01*
G01*
X15323040Y-5247220D02*
G75*
G02*
X15243040Y-5247220I-40000J0D01*
G01*
X15243040Y-5247220D02*
G75*
G02*
X15323040Y-5247220I40000J0D01*
G01*
X15323040Y-5501220D02*
G75*
G02*
X15243040Y-5501220I-40000J0D01*
G01*
X15243040Y-5501220D02*
G75*
G02*
X15323040Y-5501220I40000J0D01*
G01*
X15323040Y-5755220D02*
G75*
G02*
X15243040Y-5755220I-40000J0D01*
G01*
X15243040Y-5755220D02*
G75*
G02*
X15323040Y-5755220I40000J0D01*
G01*
X15323040Y-6009220D02*
G75*
G02*
X15243040Y-6009220I-40000J0D01*
G01*
X15243040Y-6009220D02*
G75*
G02*
X15323040Y-6009220I40000J0D01*
G01*
X15323040Y-6263220D02*
G75*
G02*
X15243040Y-6263220I-40000J0D01*
G01*
X15243040Y-6263220D02*
G75*
G02*
X15323040Y-6263220I40000J0D01*
G01*
X15323040Y-6517220D02*
G75*
G02*
X15243040Y-6517220I-40000J0D01*
G01*
X15243040Y-6517220D02*
G75*
G02*
X15323040Y-6517220I40000J0D01*
G01*
X15323040Y-6771220D02*
G75*
G02*
X15243040Y-6771220I-40000J0D01*
G01*
X15243040Y-6771220D02*
G75*
G02*
X15323040Y-6771220I40000J0D01*
G01*
X15323040Y-7025220D02*
G75*
G02*
X15243040Y-7025220I-40000J0D01*
G01*
X15243040Y-7025220D02*
G75*
G02*
X15323040Y-7025220I40000J0D01*
G01*
X15323040Y-7279220D02*
G75*
G02*
X15243040Y-7279220I-40000J0D01*
G01*
X15243040Y-7279220D02*
G75*
G02*
X15323040Y-7279220I40000J0D01*
G01*
X15323040Y-7533220D02*
G75*
G02*
X15243040Y-7533220I-40000J0D01*
G01*
X15243040Y-7533220D02*
G75*
G02*
X15323040Y-7533220I40000J0D01*
G01*
X15323040Y-7787220D02*
G75*
G02*
X15243040Y-7787220I-40000J0D01*
G01*
X15243040Y-7787220D02*
G75*
G02*
X15323040Y-7787220I40000J0D01*
G01*
X15323040Y-8041220D02*
G75*
G02*
X15243040Y-8041220I-40000J0D01*
G01*
X15243040Y-8041220D02*
G75*
G02*
X15323040Y-8041220I40000J0D01*
G01*
X15323040Y-8295220D02*
G75*
G02*
X15243040Y-8295220I-40000J0D01*
G01*
X15243040Y-8295220D02*
G75*
G02*
X15323040Y-8295220I40000J0D01*
G01*
X15323040Y-8549220D02*
G75*
G02*
X15243040Y-8549220I-40000J0D01*
G01*
X15243040Y-8549220D02*
G75*
G02*
X15323040Y-8549220I40000J0D01*
G01*
X15323040Y-8803220D02*
G75*
G02*
X15243040Y-8803220I-40000J0D01*
G01*
X15243040Y-8803220D02*
G75*
G02*
X15323040Y-8803220I40000J0D01*
G01*
X15323540Y-9582500D02*
G75*
G02*
X15243540Y-9582500I-40000J0D01*
G01*
X15243540Y-9582500D02*
G75*
G02*
X15323540Y-9582500I40000J0D01*
G01*
X15323540Y-9836500D02*
G75*
G02*
X15243540Y-9836500I-40000J0D01*
G01*
X15243540Y-9836500D02*
G75*
G02*
X15323540Y-9836500I40000J0D01*
G01*
X15323540Y-10090500D02*
G75*
G02*
X15243540Y-10090500I-40000J0D01*
G01*
X15243540Y-10090500D02*
G75*
G02*
X15323540Y-10090500I40000J0D01*
G01*
X15323540Y-10344500D02*
G75*
G02*
X15243540Y-10344500I-40000J0D01*
G01*
X15243540Y-10344500D02*
G75*
G02*
X15323540Y-10344500I40000J0D01*
G01*
X15323540Y-10598500D02*
G75*
G02*
X15243540Y-10598500I-40000J0D01*
G01*
X15243540Y-10598500D02*
G75*
G02*
X15323540Y-10598500I40000J0D01*
G01*
X15323540Y-10852500D02*
G75*
G02*
X15243540Y-10852500I-40000J0D01*
G01*
X15243540Y-10852500D02*
G75*
G02*
X15323540Y-10852500I40000J0D01*
G01*
X15323540Y-11106500D02*
G75*
G02*
X15243540Y-11106500I-40000J0D01*
G01*
X15243540Y-11106500D02*
G75*
G02*
X15323540Y-11106500I40000J0D01*
G01*
X15323540Y-11360500D02*
G75*
G02*
X15243540Y-11360500I-40000J0D01*
G01*
X15243540Y-11360500D02*
G75*
G02*
X15323540Y-11360500I40000J0D01*
G01*
X15323540Y-11614500D02*
G75*
G02*
X15243540Y-11614500I-40000J0D01*
G01*
X15243540Y-11614500D02*
G75*
G02*
X15323540Y-11614500I40000J0D01*
G01*
X15323540Y-11868500D02*
G75*
G02*
X15243540Y-11868500I-40000J0D01*
G01*
X15243540Y-11868500D02*
G75*
G02*
X15323540Y-11868500I40000J0D01*
G01*
X15323540Y-12122500D02*
G75*
G02*
X15243540Y-12122500I-40000J0D01*
G01*
X15243540Y-12122500D02*
G75*
G02*
X15323540Y-12122500I40000J0D01*
G01*
X15323540Y-12376500D02*
G75*
G02*
X15243540Y-12376500I-40000J0D01*
G01*
X15243540Y-12376500D02*
G75*
G02*
X15323540Y-12376500I40000J0D01*
G01*
X15323540Y-12630500D02*
G75*
G02*
X15243540Y-12630500I-40000J0D01*
G01*
X15243540Y-12630500D02*
G75*
G02*
X15323540Y-12630500I40000J0D01*
G01*
X15323540Y-12884500D02*
G75*
G02*
X15243540Y-12884500I-40000J0D01*
G01*
X15243540Y-12884500D02*
G75*
G02*
X15323540Y-12884500I40000J0D01*
G01*
X15757520Y-14772280D02*
G75*
G02*
X15677520Y-14772280I-40000J0D01*
G01*
X15677520Y-14772280D02*
G75*
G02*
X15757520Y-14772280I40000J0D01*
G01*
X15757520Y-15026280D02*
G75*
G02*
X15677520Y-15026280I-40000J0D01*
G01*
X15677520Y-15026280D02*
G75*
G02*
X15757520Y-15026280I40000J0D01*
G01*
X16417920Y-14772280D02*
G75*
G02*
X16337920Y-14772280I-40000J0D01*
G01*
X16337920Y-14772280D02*
G75*
G02*
X16417920Y-14772280I40000J0D01*
G01*
X16417920Y-15026280D02*
G75*
G02*
X16337920Y-15026280I-40000J0D01*
G01*
X16337920Y-15026280D02*
G75*
G02*
X16417920Y-15026280I40000J0D01*
G01*
X16847040Y-3977220D02*
G75*
G02*
X16767040Y-3977220I-40000J0D01*
G01*
X16767040Y-3977220D02*
G75*
G02*
X16847040Y-3977220I40000J0D01*
G01*
X16847040Y-4231220D02*
G75*
G02*
X16767040Y-4231220I-40000J0D01*
G01*
X16767040Y-4231220D02*
G75*
G02*
X16847040Y-4231220I40000J0D01*
G01*
X16847040Y-4485220D02*
G75*
G02*
X16767040Y-4485220I-40000J0D01*
G01*
X16767040Y-4485220D02*
G75*
G02*
X16847040Y-4485220I40000J0D01*
G01*
X16847040Y-4739220D02*
G75*
G02*
X16767040Y-4739220I-40000J0D01*
G01*
X16767040Y-4739220D02*
G75*
G02*
X16847040Y-4739220I40000J0D01*
G01*
X16847040Y-4993220D02*
G75*
G02*
X16767040Y-4993220I-40000J0D01*
G01*
X16767040Y-4993220D02*
G75*
G02*
X16847040Y-4993220I40000J0D01*
G01*
X16847040Y-5247220D02*
G75*
G02*
X16767040Y-5247220I-40000J0D01*
G01*
X16767040Y-5247220D02*
G75*
G02*
X16847040Y-5247220I40000J0D01*
G01*
X16847040Y-5501220D02*
G75*
G02*
X16767040Y-5501220I-40000J0D01*
G01*
X16767040Y-5501220D02*
G75*
G02*
X16847040Y-5501220I40000J0D01*
G01*
X16847040Y-5755220D02*
G75*
G02*
X16767040Y-5755220I-40000J0D01*
G01*
X16767040Y-5755220D02*
G75*
G02*
X16847040Y-5755220I40000J0D01*
G01*
X16847040Y-6009220D02*
G75*
G02*
X16767040Y-6009220I-40000J0D01*
G01*
X16767040Y-6009220D02*
G75*
G02*
X16847040Y-6009220I40000J0D01*
G01*
X16847040Y-6263220D02*
G75*
G02*
X16767040Y-6263220I-40000J0D01*
G01*
X16767040Y-6263220D02*
G75*
G02*
X16847040Y-6263220I40000J0D01*
G01*
X16847040Y-6517220D02*
G75*
G02*
X16767040Y-6517220I-40000J0D01*
G01*
X16767040Y-6517220D02*
G75*
G02*
X16847040Y-6517220I40000J0D01*
G01*
X16847040Y-6771220D02*
G75*
G02*
X16767040Y-6771220I-40000J0D01*
G01*
X16767040Y-6771220D02*
G75*
G02*
X16847040Y-6771220I40000J0D01*
G01*
X16847040Y-7025220D02*
G75*
G02*
X16767040Y-7025220I-40000J0D01*
G01*
X16767040Y-7025220D02*
G75*
G02*
X16847040Y-7025220I40000J0D01*
G01*
X16847040Y-7279220D02*
G75*
G02*
X16767040Y-7279220I-40000J0D01*
G01*
X16767040Y-7279220D02*
G75*
G02*
X16847040Y-7279220I40000J0D01*
G01*
X16847040Y-7533220D02*
G75*
G02*
X16767040Y-7533220I-40000J0D01*
G01*
X16767040Y-7533220D02*
G75*
G02*
X16847040Y-7533220I40000J0D01*
G01*
X16847040Y-7787220D02*
G75*
G02*
X16767040Y-7787220I-40000J0D01*
G01*
X16767040Y-7787220D02*
G75*
G02*
X16847040Y-7787220I40000J0D01*
G01*
X16847040Y-8041220D02*
G75*
G02*
X16767040Y-8041220I-40000J0D01*
G01*
X16767040Y-8041220D02*
G75*
G02*
X16847040Y-8041220I40000J0D01*
G01*
X16847040Y-8295220D02*
G75*
G02*
X16767040Y-8295220I-40000J0D01*
G01*
X16767040Y-8295220D02*
G75*
G02*
X16847040Y-8295220I40000J0D01*
G01*
X16847040Y-8549220D02*
G75*
G02*
X16767040Y-8549220I-40000J0D01*
G01*
X16767040Y-8549220D02*
G75*
G02*
X16847040Y-8549220I40000J0D01*
G01*
X16847040Y-8803220D02*
G75*
G02*
X16767040Y-8803220I-40000J0D01*
G01*
X16767040Y-8803220D02*
G75*
G02*
X16847040Y-8803220I40000J0D01*
G01*
X16847540Y-9582500D02*
G75*
G02*
X16767540Y-9582500I-40000J0D01*
G01*
X16767540Y-9582500D02*
G75*
G02*
X16847540Y-9582500I40000J0D01*
G01*
X16847540Y-9836500D02*
G75*
G02*
X16767540Y-9836500I-40000J0D01*
G01*
X16767540Y-9836500D02*
G75*
G02*
X16847540Y-9836500I40000J0D01*
G01*
X16847540Y-10090500D02*
G75*
G02*
X16767540Y-10090500I-40000J0D01*
G01*
X16767540Y-10090500D02*
G75*
G02*
X16847540Y-10090500I40000J0D01*
G01*
X16847540Y-10344500D02*
G75*
G02*
X16767540Y-10344500I-40000J0D01*
G01*
X16767540Y-10344500D02*
G75*
G02*
X16847540Y-10344500I40000J0D01*
G01*
X16847540Y-10598500D02*
G75*
G02*
X16767540Y-10598500I-40000J0D01*
G01*
X16767540Y-10598500D02*
G75*
G02*
X16847540Y-10598500I40000J0D01*
G01*
X16847540Y-10852500D02*
G75*
G02*
X16767540Y-10852500I-40000J0D01*
G01*
X16767540Y-10852500D02*
G75*
G02*
X16847540Y-10852500I40000J0D01*
G01*
X16847540Y-11106500D02*
G75*
G02*
X16767540Y-11106500I-40000J0D01*
G01*
X16767540Y-11106500D02*
G75*
G02*
X16847540Y-11106500I40000J0D01*
G01*
X16847540Y-11360500D02*
G75*
G02*
X16767540Y-11360500I-40000J0D01*
G01*
X16767540Y-11360500D02*
G75*
G02*
X16847540Y-11360500I40000J0D01*
G01*
X16847540Y-11614500D02*
G75*
G02*
X16767540Y-11614500I-40000J0D01*
G01*
X16767540Y-11614500D02*
G75*
G02*
X16847540Y-11614500I40000J0D01*
G01*
X16847540Y-11868500D02*
G75*
G02*
X16767540Y-11868500I-40000J0D01*
G01*
X16767540Y-11868500D02*
G75*
G02*
X16847540Y-11868500I40000J0D01*
G01*
X16847540Y-12122500D02*
G75*
G02*
X16767540Y-12122500I-40000J0D01*
G01*
X16767540Y-12122500D02*
G75*
G02*
X16847540Y-12122500I40000J0D01*
G01*
X16847540Y-12376500D02*
G75*
G02*
X16767540Y-12376500I-40000J0D01*
G01*
X16767540Y-12376500D02*
G75*
G02*
X16847540Y-12376500I40000J0D01*
G01*
X16847540Y-12630500D02*
G75*
G02*
X16767540Y-12630500I-40000J0D01*
G01*
X16767540Y-12630500D02*
G75*
G02*
X16847540Y-12630500I40000J0D01*
G01*
X16847540Y-12884500D02*
G75*
G02*
X16767540Y-12884500I-40000J0D01*
G01*
X16767540Y-12884500D02*
G75*
G02*
X16847540Y-12884500I40000J0D01*
G01*
X17078320Y-14772280D02*
G75*
G02*
X16998320Y-14772280I-40000J0D01*
G01*
X16998320Y-14772280D02*
G75*
G02*
X17078320Y-14772280I40000J0D01*
G01*
X17078320Y-15026280D02*
G75*
G02*
X16998320Y-15026280I-40000J0D01*
G01*
X16998320Y-15026280D02*
G75*
G02*
X17078320Y-15026280I40000J0D01*
G01*
X17172660Y-11361420D02*
G75*
G02*
X17092660Y-11361420I-40000J0D01*
G01*
X17092660Y-11361420D02*
G75*
G02*
X17172660Y-11361420I40000J0D01*
G01*
X17172660Y-11615420D02*
G75*
G02*
X17092660Y-11615420I-40000J0D01*
G01*
X17092660Y-11615420D02*
G75*
G02*
X17172660Y-11615420I40000J0D01*
G01*
X17172660Y-11849100D02*
G75*
G02*
X17092660Y-11849100I-40000J0D01*
G01*
X17092660Y-11849100D02*
G75*
G02*
X17172660Y-11849100I40000J0D01*
G01*
X17172660Y-12349100D02*
G75*
G02*
X17092660Y-12349100I-40000J0D01*
G01*
X17092660Y-12349100D02*
G75*
G02*
X17172660Y-12349100I40000J0D01*
G01*
X17558740Y-4234180D02*
G75*
G02*
X17478740Y-4234180I-40000J0D01*
G01*
X17478740Y-4234180D02*
G75*
G02*
X17558740Y-4234180I40000J0D01*
G01*
X17558740Y-4488180D02*
G75*
G02*
X17478740Y-4488180I-40000J0D01*
G01*
X17478740Y-4488180D02*
G75*
G02*
X17558740Y-4488180I40000J0D01*
G01*
X17673040Y-9989820D02*
G75*
G02*
X17593040Y-9989820I-40000J0D01*
G01*
X17593040Y-9989820D02*
G75*
G02*
X17673040Y-9989820I40000J0D01*
G01*
X17673040Y-10239820D02*
G75*
G02*
X17593040Y-10239820I-40000J0D01*
G01*
X17593040Y-10239820D02*
G75*
G02*
X17673040Y-10239820I40000J0D01*
G01*
X17738720Y-14771780D02*
G75*
G02*
X17658720Y-14771780I-40000J0D01*
G01*
X17658720Y-14771780D02*
G75*
G02*
X17738720Y-14771780I40000J0D01*
G01*
X17738720Y-15025780D02*
G75*
G02*
X17658720Y-15025780I-40000J0D01*
G01*
X17658720Y-15025780D02*
G75*
G02*
X17738720Y-15025780I40000J0D01*
G01*
X17822900Y-11361420D02*
G75*
G02*
X17742900Y-11361420I-40000J0D01*
G01*
X17742900Y-11361420D02*
G75*
G02*
X17822900Y-11361420I40000J0D01*
G01*
X17822900Y-11849420D02*
G75*
G02*
X17742900Y-11849420I-40000J0D01*
G01*
X17742900Y-11849420D02*
G75*
G02*
X17822900Y-11849420I40000J0D01*
G01*
X17883860Y-3979260D02*
G75*
G02*
X17803860Y-3979260I-40000J0D01*
G01*
X17803860Y-3979260D02*
G75*
G02*
X17883860Y-3979260I40000J0D01*
G01*
X17883860Y-4233260D02*
G75*
G02*
X17803860Y-4233260I-40000J0D01*
G01*
X17803860Y-4233260D02*
G75*
G02*
X17883860Y-4233260I40000J0D01*
G01*
X17883860Y-4487260D02*
G75*
G02*
X17803860Y-4487260I-40000J0D01*
G01*
X17803860Y-4487260D02*
G75*
G02*
X17883860Y-4487260I40000J0D01*
G01*
X17883860Y-4741260D02*
G75*
G02*
X17803860Y-4741260I-40000J0D01*
G01*
X17803860Y-4741260D02*
G75*
G02*
X17883860Y-4741260I40000J0D01*
G01*
X17883860Y-4995260D02*
G75*
G02*
X17803860Y-4995260I-40000J0D01*
G01*
X17803860Y-4995260D02*
G75*
G02*
X17883860Y-4995260I40000J0D01*
G01*
X17883860Y-5249260D02*
G75*
G02*
X17803860Y-5249260I-40000J0D01*
G01*
X17803860Y-5249260D02*
G75*
G02*
X17883860Y-5249260I40000J0D01*
G01*
X17883860Y-5503260D02*
G75*
G02*
X17803860Y-5503260I-40000J0D01*
G01*
X17803860Y-5503260D02*
G75*
G02*
X17883860Y-5503260I40000J0D01*
G01*
X17883860Y-5757260D02*
G75*
G02*
X17803860Y-5757260I-40000J0D01*
G01*
X17803860Y-5757260D02*
G75*
G02*
X17883860Y-5757260I40000J0D01*
G01*
X17883860Y-6011260D02*
G75*
G02*
X17803860Y-6011260I-40000J0D01*
G01*
X17803860Y-6011260D02*
G75*
G02*
X17883860Y-6011260I40000J0D01*
G01*
X17883860Y-6265260D02*
G75*
G02*
X17803860Y-6265260I-40000J0D01*
G01*
X17803860Y-6265260D02*
G75*
G02*
X17883860Y-6265260I40000J0D01*
G01*
X17883860Y-6519260D02*
G75*
G02*
X17803860Y-6519260I-40000J0D01*
G01*
X17803860Y-6519260D02*
G75*
G02*
X17883860Y-6519260I40000J0D01*
G01*
X17883860Y-6773260D02*
G75*
G02*
X17803860Y-6773260I-40000J0D01*
G01*
X17803860Y-6773260D02*
G75*
G02*
X17883860Y-6773260I40000J0D01*
G01*
X17883860Y-7027260D02*
G75*
G02*
X17803860Y-7027260I-40000J0D01*
G01*
X17803860Y-7027260D02*
G75*
G02*
X17883860Y-7027260I40000J0D01*
G01*
X17883860Y-7281260D02*
G75*
G02*
X17803860Y-7281260I-40000J0D01*
G01*
X17803860Y-7281260D02*
G75*
G02*
X17883860Y-7281260I40000J0D01*
G01*
X17883860Y-7535260D02*
G75*
G02*
X17803860Y-7535260I-40000J0D01*
G01*
X17803860Y-7535260D02*
G75*
G02*
X17883860Y-7535260I40000J0D01*
G01*
X17883860Y-7789260D02*
G75*
G02*
X17803860Y-7789260I-40000J0D01*
G01*
X17803860Y-7789260D02*
G75*
G02*
X17883860Y-7789260I40000J0D01*
G01*
X17883860Y-8043260D02*
G75*
G02*
X17803860Y-8043260I-40000J0D01*
G01*
X17803860Y-8043260D02*
G75*
G02*
X17883860Y-8043260I40000J0D01*
G01*
X17883860Y-8297260D02*
G75*
G02*
X17803860Y-8297260I-40000J0D01*
G01*
X17803860Y-8297260D02*
G75*
G02*
X17883860Y-8297260I40000J0D01*
G01*
X17883860Y-8551260D02*
G75*
G02*
X17803860Y-8551260I-40000J0D01*
G01*
X17803860Y-8551260D02*
G75*
G02*
X17883860Y-8551260I40000J0D01*
G01*
X17883860Y-8805260D02*
G75*
G02*
X17803860Y-8805260I-40000J0D01*
G01*
X17803860Y-8805260D02*
G75*
G02*
X17883860Y-8805260I40000J0D01*
G01*
X18399120Y-14776860D02*
G75*
G02*
X18319120Y-14776860I-40000J0D01*
G01*
X18319120Y-14776860D02*
G75*
G02*
X18399120Y-14776860I40000J0D01*
G01*
X18399120Y-15030860D02*
G75*
G02*
X18319120Y-15030860I-40000J0D01*
G01*
X18319120Y-15030860D02*
G75*
G02*
X18399120Y-15030860I40000J0D01*
G01*
X18528660Y-1752600D02*
G75*
G02*
X18448660Y-1752600I-40000J0D01*
G01*
X18448660Y-1752600D02*
G75*
G02*
X18528660Y-1752600I40000J0D01*
G01*
X18528660Y-2006600D02*
G75*
G02*
X18448660Y-2006600I-40000J0D01*
G01*
X18448660Y-2006600D02*
G75*
G02*
X18528660Y-2006600I40000J0D01*
G01*
X18593620Y-12877800D02*
G75*
G02*
X18513620Y-12877800I-40000J0D01*
G01*
X18513620Y-12877800D02*
G75*
G02*
X18593620Y-12877800I40000J0D01*
G01*
X18843620Y-11691080D02*
G75*
G02*
X18763620Y-11691080I-40000J0D01*
G01*
X18763620Y-11691080D02*
G75*
G02*
X18843620Y-11691080I40000J0D01*
G01*
X18843620Y-11941080D02*
G75*
G02*
X18763620Y-11941080I-40000J0D01*
G01*
X18763620Y-11941080D02*
G75*
G02*
X18843620Y-11941080I40000J0D01*
G01*
X18843620Y-12321540D02*
G75*
G02*
X18763620Y-12321540I-40000J0D01*
G01*
X18763620Y-12321540D02*
G75*
G02*
X18843620Y-12321540I40000J0D01*
G01*
X18843620Y-12571540D02*
G75*
G02*
X18763620Y-12571540I-40000J0D01*
G01*
X18763620Y-12571540D02*
G75*
G02*
X18843620Y-12571540I40000J0D01*
G01*
X18843620Y-12877800D02*
G75*
G02*
X18763620Y-12877800I-40000J0D01*
G01*
X18763620Y-12877800D02*
G75*
G02*
X18843620Y-12877800I40000J0D01*
G01*
X18912200Y-11229340D02*
G75*
G02*
X18832200Y-11229340I-40000J0D01*
G01*
X18832200Y-11229340D02*
G75*
G02*
X18912200Y-11229340I40000J0D01*
G01*
X18950660Y-9989820D02*
G75*
G02*
X18870660Y-9989820I-40000J0D01*
G01*
X18870660Y-9989820D02*
G75*
G02*
X18950660Y-9989820I40000J0D01*
G01*
X18950660Y-10243820D02*
G75*
G02*
X18870660Y-10243820I-40000J0D01*
G01*
X18870660Y-10243820D02*
G75*
G02*
X18950660Y-10243820I40000J0D01*
G01*
X19162200Y-11229340D02*
G75*
G02*
X19082200Y-11229340I-40000J0D01*
G01*
X19082200Y-11229340D02*
G75*
G02*
X19162200Y-11229340I40000J0D01*
G01*
X19166200Y-11559540D02*
G75*
G02*
X19086200Y-11559540I-40000J0D01*
G01*
X19086200Y-11559540D02*
G75*
G02*
X19166200Y-11559540I40000J0D01*
G01*
X19166200Y-11813540D02*
G75*
G02*
X19086200Y-11813540I-40000J0D01*
G01*
X19086200Y-11813540D02*
G75*
G02*
X19166200Y-11813540I40000J0D01*
G01*
X19166200Y-12067540D02*
G75*
G02*
X19086200Y-12067540I-40000J0D01*
G01*
X19086200Y-12067540D02*
G75*
G02*
X19166200Y-12067540I40000J0D01*
G01*
X19166200Y-12321540D02*
G75*
G02*
X19086200Y-12321540I-40000J0D01*
G01*
X19086200Y-12321540D02*
G75*
G02*
X19166200Y-12321540I40000J0D01*
G01*
X19166200Y-12575540D02*
G75*
G02*
X19086200Y-12575540I-40000J0D01*
G01*
X19086200Y-12575540D02*
G75*
G02*
X19166200Y-12575540I40000J0D01*
G01*
X19166200Y-12829540D02*
G75*
G02*
X19086200Y-12829540I-40000J0D01*
G01*
X19086200Y-12829540D02*
G75*
G02*
X19166200Y-12829540I40000J0D01*
G01*
X19166200Y-13083540D02*
G75*
G02*
X19086200Y-13083540I-40000J0D01*
G01*
X19086200Y-13083540D02*
G75*
G02*
X19166200Y-13083540I40000J0D01*
G01*
X19166200Y-13337540D02*
G75*
G02*
X19086200Y-13337540I-40000J0D01*
G01*
X19086200Y-13337540D02*
G75*
G02*
X19166200Y-13337540I40000J0D01*
G01*
X19189060Y-1752600D02*
G75*
G02*
X19109060Y-1752600I-40000J0D01*
G01*
X19109060Y-1752600D02*
G75*
G02*
X19189060Y-1752600I40000J0D01*
G01*
X19189060Y-2006600D02*
G75*
G02*
X19109060Y-2006600I-40000J0D01*
G01*
X19109060Y-2006600D02*
G75*
G02*
X19189060Y-2006600I40000J0D01*
G01*
X19407860Y-3979260D02*
G75*
G02*
X19327860Y-3979260I-40000J0D01*
G01*
X19327860Y-3979260D02*
G75*
G02*
X19407860Y-3979260I40000J0D01*
G01*
X19407860Y-4233260D02*
G75*
G02*
X19327860Y-4233260I-40000J0D01*
G01*
X19327860Y-4233260D02*
G75*
G02*
X19407860Y-4233260I40000J0D01*
G01*
X19407860Y-4487260D02*
G75*
G02*
X19327860Y-4487260I-40000J0D01*
G01*
X19327860Y-4487260D02*
G75*
G02*
X19407860Y-4487260I40000J0D01*
G01*
X19407860Y-4741260D02*
G75*
G02*
X19327860Y-4741260I-40000J0D01*
G01*
X19327860Y-4741260D02*
G75*
G02*
X19407860Y-4741260I40000J0D01*
G01*
X19407860Y-4995260D02*
G75*
G02*
X19327860Y-4995260I-40000J0D01*
G01*
X19327860Y-4995260D02*
G75*
G02*
X19407860Y-4995260I40000J0D01*
G01*
X19407860Y-5249260D02*
G75*
G02*
X19327860Y-5249260I-40000J0D01*
G01*
X19327860Y-5249260D02*
G75*
G02*
X19407860Y-5249260I40000J0D01*
G01*
X19407860Y-5503260D02*
G75*
G02*
X19327860Y-5503260I-40000J0D01*
G01*
X19327860Y-5503260D02*
G75*
G02*
X19407860Y-5503260I40000J0D01*
G01*
X19407860Y-5757260D02*
G75*
G02*
X19327860Y-5757260I-40000J0D01*
G01*
X19327860Y-5757260D02*
G75*
G02*
X19407860Y-5757260I40000J0D01*
G01*
X19407860Y-6011260D02*
G75*
G02*
X19327860Y-6011260I-40000J0D01*
G01*
X19327860Y-6011260D02*
G75*
G02*
X19407860Y-6011260I40000J0D01*
G01*
X19407860Y-6265260D02*
G75*
G02*
X19327860Y-6265260I-40000J0D01*
G01*
X19327860Y-6265260D02*
G75*
G02*
X19407860Y-6265260I40000J0D01*
G01*
X19407860Y-6519260D02*
G75*
G02*
X19327860Y-6519260I-40000J0D01*
G01*
X19327860Y-6519260D02*
G75*
G02*
X19407860Y-6519260I40000J0D01*
G01*
X19407860Y-6773260D02*
G75*
G02*
X19327860Y-6773260I-40000J0D01*
G01*
X19327860Y-6773260D02*
G75*
G02*
X19407860Y-6773260I40000J0D01*
G01*
X19407860Y-7027260D02*
G75*
G02*
X19327860Y-7027260I-40000J0D01*
G01*
X19327860Y-7027260D02*
G75*
G02*
X19407860Y-7027260I40000J0D01*
G01*
X19407860Y-7281260D02*
G75*
G02*
X19327860Y-7281260I-40000J0D01*
G01*
X19327860Y-7281260D02*
G75*
G02*
X19407860Y-7281260I40000J0D01*
G01*
X19407860Y-7535260D02*
G75*
G02*
X19327860Y-7535260I-40000J0D01*
G01*
X19327860Y-7535260D02*
G75*
G02*
X19407860Y-7535260I40000J0D01*
G01*
X19407860Y-7789260D02*
G75*
G02*
X19327860Y-7789260I-40000J0D01*
G01*
X19327860Y-7789260D02*
G75*
G02*
X19407860Y-7789260I40000J0D01*
G01*
X19407860Y-8043260D02*
G75*
G02*
X19327860Y-8043260I-40000J0D01*
G01*
X19327860Y-8043260D02*
G75*
G02*
X19407860Y-8043260I40000J0D01*
G01*
X19407860Y-8297260D02*
G75*
G02*
X19327860Y-8297260I-40000J0D01*
G01*
X19327860Y-8297260D02*
G75*
G02*
X19407860Y-8297260I40000J0D01*
G01*
X19407860Y-8551260D02*
G75*
G02*
X19327860Y-8551260I-40000J0D01*
G01*
X19327860Y-8551260D02*
G75*
G02*
X19407860Y-8551260I40000J0D01*
G01*
X19407860Y-8805260D02*
G75*
G02*
X19327860Y-8805260I-40000J0D01*
G01*
X19327860Y-8805260D02*
G75*
G02*
X19407860Y-8805260I40000J0D01*
G01*
X19849460Y-1752600D02*
G75*
G02*
X19769460Y-1752600I-40000J0D01*
G01*
X19769460Y-1752600D02*
G75*
G02*
X19849460Y-1752600I40000J0D01*
G01*
X19849460Y-2006600D02*
G75*
G02*
X19769460Y-2006600I-40000J0D01*
G01*
X19769460Y-2006600D02*
G75*
G02*
X19849460Y-2006600I40000J0D01*
G01*
X19928200Y-11559540D02*
G75*
G02*
X19848200Y-11559540I-40000J0D01*
G01*
X19848200Y-11559540D02*
G75*
G02*
X19928200Y-11559540I40000J0D01*
G01*
X19928200Y-11813540D02*
G75*
G02*
X19848200Y-11813540I-40000J0D01*
G01*
X19848200Y-11813540D02*
G75*
G02*
X19928200Y-11813540I40000J0D01*
G01*
X19928200Y-12067540D02*
G75*
G02*
X19848200Y-12067540I-40000J0D01*
G01*
X19848200Y-12067540D02*
G75*
G02*
X19928200Y-12067540I40000J0D01*
G01*
X19928200Y-12321540D02*
G75*
G02*
X19848200Y-12321540I-40000J0D01*
G01*
X19848200Y-12321540D02*
G75*
G02*
X19928200Y-12321540I40000J0D01*
G01*
X19928200Y-12575540D02*
G75*
G02*
X19848200Y-12575540I-40000J0D01*
G01*
X19848200Y-12575540D02*
G75*
G02*
X19928200Y-12575540I40000J0D01*
G01*
X19928200Y-12829540D02*
G75*
G02*
X19848200Y-12829540I-40000J0D01*
G01*
X19848200Y-12829540D02*
G75*
G02*
X19928200Y-12829540I40000J0D01*
G01*
X19928200Y-13083540D02*
G75*
G02*
X19848200Y-13083540I-40000J0D01*
G01*
X19848200Y-13083540D02*
G75*
G02*
X19928200Y-13083540I40000J0D01*
G01*
X19928200Y-13337540D02*
G75*
G02*
X19848200Y-13337540I-40000J0D01*
G01*
X19848200Y-13337540D02*
G75*
G02*
X19928200Y-13337540I40000J0D01*
G01*
X20166420Y-10624280D02*
G75*
G02*
X20086420Y-10624280I-40000J0D01*
G01*
X20086420Y-10624280D02*
G75*
G02*
X20166420Y-10624280I40000J0D01*
G01*
X20166420Y-10874280D02*
G75*
G02*
X20086420Y-10874280I-40000J0D01*
G01*
X20086420Y-10874280D02*
G75*
G02*
X20166420Y-10874280I40000J0D01*
G01*
X20479740Y-9349740D02*
G75*
G02*
X20399740Y-9349740I-40000J0D01*
G01*
X20399740Y-9349740D02*
G75*
G02*
X20479740Y-9349740I40000J0D01*
G01*
X20479740Y-9603740D02*
G75*
G02*
X20399740Y-9603740I-40000J0D01*
G01*
X20399740Y-9603740D02*
G75*
G02*
X20479740Y-9603740I40000J0D01*
G01*
X20479740Y-9857740D02*
G75*
G02*
X20399740Y-9857740I-40000J0D01*
G01*
X20399740Y-9857740D02*
G75*
G02*
X20479740Y-9857740I40000J0D01*
G01*
X20479740Y-10111740D02*
G75*
G02*
X20399740Y-10111740I-40000J0D01*
G01*
X20399740Y-10111740D02*
G75*
G02*
X20479740Y-10111740I40000J0D01*
G01*
X20479740Y-10365740D02*
G75*
G02*
X20399740Y-10365740I-40000J0D01*
G01*
X20399740Y-10365740D02*
G75*
G02*
X20479740Y-10365740I40000J0D01*
G01*
X20479740Y-10619740D02*
G75*
G02*
X20399740Y-10619740I-40000J0D01*
G01*
X20399740Y-10619740D02*
G75*
G02*
X20479740Y-10619740I40000J0D01*
G01*
X20479740Y-10873740D02*
G75*
G02*
X20399740Y-10873740I-40000J0D01*
G01*
X20399740Y-10873740D02*
G75*
G02*
X20479740Y-10873740I40000J0D01*
G01*
X20509860Y-1752600D02*
G75*
G02*
X20429860Y-1752600I-40000J0D01*
G01*
X20429860Y-1752600D02*
G75*
G02*
X20509860Y-1752600I40000J0D01*
G01*
X20509860Y-2006600D02*
G75*
G02*
X20429860Y-2006600I-40000J0D01*
G01*
X20429860Y-2006600D02*
G75*
G02*
X20509860Y-2006600I40000J0D01*
G01*
X20875980Y-8630920D02*
G75*
G02*
X20795980Y-8630920I-40000J0D01*
G01*
X20795980Y-8630920D02*
G75*
G02*
X20875980Y-8630920I40000J0D01*
G01*
X21125980Y-8630920D02*
G75*
G02*
X21045980Y-8630920I-40000J0D01*
G01*
X21045980Y-8630920D02*
G75*
G02*
X21125980Y-8630920I40000J0D01*
G01*
X21129980Y-5001260D02*
G75*
G02*
X21049980Y-5001260I-40000J0D01*
G01*
X21049980Y-5001260D02*
G75*
G02*
X21129980Y-5001260I40000J0D01*
G01*
X21129980Y-5255260D02*
G75*
G02*
X21049980Y-5255260I-40000J0D01*
G01*
X21049980Y-5255260D02*
G75*
G02*
X21129980Y-5255260I40000J0D01*
G01*
X21129980Y-5509260D02*
G75*
G02*
X21049980Y-5509260I-40000J0D01*
G01*
X21049980Y-5509260D02*
G75*
G02*
X21129980Y-5509260I40000J0D01*
G01*
X21129980Y-5763260D02*
G75*
G02*
X21049980Y-5763260I-40000J0D01*
G01*
X21049980Y-5763260D02*
G75*
G02*
X21129980Y-5763260I40000J0D01*
G01*
X21129980Y-6017260D02*
G75*
G02*
X21049980Y-6017260I-40000J0D01*
G01*
X21049980Y-6017260D02*
G75*
G02*
X21129980Y-6017260I40000J0D01*
G01*
X21129980Y-6271260D02*
G75*
G02*
X21049980Y-6271260I-40000J0D01*
G01*
X21049980Y-6271260D02*
G75*
G02*
X21129980Y-6271260I40000J0D01*
G01*
X21129980Y-6525260D02*
G75*
G02*
X21049980Y-6525260I-40000J0D01*
G01*
X21049980Y-6525260D02*
G75*
G02*
X21129980Y-6525260I40000J0D01*
G01*
X21129980Y-6779260D02*
G75*
G02*
X21049980Y-6779260I-40000J0D01*
G01*
X21049980Y-6779260D02*
G75*
G02*
X21129980Y-6779260I40000J0D01*
G01*
X21129980Y-7033260D02*
G75*
G02*
X21049980Y-7033260I-40000J0D01*
G01*
X21049980Y-7033260D02*
G75*
G02*
X21129980Y-7033260I40000J0D01*
G01*
X21129980Y-7287260D02*
G75*
G02*
X21049980Y-7287260I-40000J0D01*
G01*
X21049980Y-7287260D02*
G75*
G02*
X21129980Y-7287260I40000J0D01*
G01*
X21129980Y-7541260D02*
G75*
G02*
X21049980Y-7541260I-40000J0D01*
G01*
X21049980Y-7541260D02*
G75*
G02*
X21129980Y-7541260I40000J0D01*
G01*
X21129980Y-7795260D02*
G75*
G02*
X21049980Y-7795260I-40000J0D01*
G01*
X21049980Y-7795260D02*
G75*
G02*
X21129980Y-7795260I40000J0D01*
G01*
X21129980Y-8049260D02*
G75*
G02*
X21049980Y-8049260I-40000J0D01*
G01*
X21049980Y-8049260D02*
G75*
G02*
X21129980Y-8049260I40000J0D01*
G01*
X21129980Y-8303260D02*
G75*
G02*
X21049980Y-8303260I-40000J0D01*
G01*
X21049980Y-8303260D02*
G75*
G02*
X21129980Y-8303260I40000J0D01*
G01*
X21241740Y-9349740D02*
G75*
G02*
X21161740Y-9349740I-40000J0D01*
G01*
X21161740Y-9349740D02*
G75*
G02*
X21241740Y-9349740I40000J0D01*
G01*
X21241740Y-9603740D02*
G75*
G02*
X21161740Y-9603740I-40000J0D01*
G01*
X21161740Y-9603740D02*
G75*
G02*
X21241740Y-9603740I40000J0D01*
G01*
X21241740Y-9857740D02*
G75*
G02*
X21161740Y-9857740I-40000J0D01*
G01*
X21161740Y-9857740D02*
G75*
G02*
X21241740Y-9857740I40000J0D01*
G01*
X21241740Y-10111740D02*
G75*
G02*
X21161740Y-10111740I-40000J0D01*
G01*
X21161740Y-10111740D02*
G75*
G02*
X21241740Y-10111740I40000J0D01*
G01*
X21241740Y-10365740D02*
G75*
G02*
X21161740Y-10365740I-40000J0D01*
G01*
X21161740Y-10365740D02*
G75*
G02*
X21241740Y-10365740I40000J0D01*
G01*
X21241740Y-10619740D02*
G75*
G02*
X21161740Y-10619740I-40000J0D01*
G01*
X21161740Y-10619740D02*
G75*
G02*
X21241740Y-10619740I40000J0D01*
G01*
X21241740Y-10873740D02*
G75*
G02*
X21161740Y-10873740I-40000J0D01*
G01*
X21161740Y-10873740D02*
G75*
G02*
X21241740Y-10873740I40000J0D01*
G01*
X21894327Y-2490420D02*
G75*
G02*
X21814327Y-2490420I-40000J0D01*
G01*
X21814327Y-2490420D02*
G75*
G02*
X21894327Y-2490420I40000J0D01*
G01*
X21894327Y-3252420D02*
G75*
G02*
X21814327Y-3252420I-40000J0D01*
G01*
X21814327Y-3252420D02*
G75*
G02*
X21894327Y-3252420I40000J0D01*
G01*
X22653980Y-5001260D02*
G75*
G02*
X22573980Y-5001260I-40000J0D01*
G01*
X22573980Y-5001260D02*
G75*
G02*
X22653980Y-5001260I40000J0D01*
G01*
X22653980Y-5255260D02*
G75*
G02*
X22573980Y-5255260I-40000J0D01*
G01*
X22573980Y-5255260D02*
G75*
G02*
X22653980Y-5255260I40000J0D01*
G01*
X22653980Y-5509260D02*
G75*
G02*
X22573980Y-5509260I-40000J0D01*
G01*
X22573980Y-5509260D02*
G75*
G02*
X22653980Y-5509260I40000J0D01*
G01*
X22653980Y-5763260D02*
G75*
G02*
X22573980Y-5763260I-40000J0D01*
G01*
X22573980Y-5763260D02*
G75*
G02*
X22653980Y-5763260I40000J0D01*
G01*
X22653980Y-6017260D02*
G75*
G02*
X22573980Y-6017260I-40000J0D01*
G01*
X22573980Y-6017260D02*
G75*
G02*
X22653980Y-6017260I40000J0D01*
G01*
X22653980Y-6271260D02*
G75*
G02*
X22573980Y-6271260I-40000J0D01*
G01*
X22573980Y-6271260D02*
G75*
G02*
X22653980Y-6271260I40000J0D01*
G01*
X22653980Y-6525260D02*
G75*
G02*
X22573980Y-6525260I-40000J0D01*
G01*
X22573980Y-6525260D02*
G75*
G02*
X22653980Y-6525260I40000J0D01*
G01*
X22653980Y-6779260D02*
G75*
G02*
X22573980Y-6779260I-40000J0D01*
G01*
X22573980Y-6779260D02*
G75*
G02*
X22653980Y-6779260I40000J0D01*
G01*
X22653980Y-7033260D02*
G75*
G02*
X22573980Y-7033260I-40000J0D01*
G01*
X22573980Y-7033260D02*
G75*
G02*
X22653980Y-7033260I40000J0D01*
G01*
X22653980Y-7287260D02*
G75*
G02*
X22573980Y-7287260I-40000J0D01*
G01*
X22573980Y-7287260D02*
G75*
G02*
X22653980Y-7287260I40000J0D01*
G01*
X22653980Y-7541260D02*
G75*
G02*
X22573980Y-7541260I-40000J0D01*
G01*
X22573980Y-7541260D02*
G75*
G02*
X22653980Y-7541260I40000J0D01*
G01*
X22653980Y-7795260D02*
G75*
G02*
X22573980Y-7795260I-40000J0D01*
G01*
X22573980Y-7795260D02*
G75*
G02*
X22653980Y-7795260I40000J0D01*
G01*
X22653980Y-8049260D02*
G75*
G02*
X22573980Y-8049260I-40000J0D01*
G01*
X22573980Y-8049260D02*
G75*
G02*
X22653980Y-8049260I40000J0D01*
G01*
X22653980Y-8303260D02*
G75*
G02*
X22573980Y-8303260I-40000J0D01*
G01*
X22573980Y-8303260D02*
G75*
G02*
X22653980Y-8303260I40000J0D01*
G01*
X22656327Y-2490420D02*
G75*
G02*
X22576327Y-2490420I-40000J0D01*
G01*
X22576327Y-2490420D02*
G75*
G02*
X22656327Y-2490420I40000J0D01*
G01*
X22656327Y-3252420D02*
G75*
G02*
X22576327Y-3252420I-40000J0D01*
G01*
X22576327Y-3252420D02*
G75*
G02*
X22656327Y-3252420I40000J0D01*
G01*
X23118800Y-8620760D02*
G75*
G02*
X23038800Y-8620760I-40000J0D01*
G01*
X23038800Y-8620760D02*
G75*
G02*
X23118800Y-8620760I40000J0D01*
G01*
X23230200Y-2506980D02*
G75*
G02*
X23150200Y-2506980I-40000J0D01*
G01*
X23150200Y-2506980D02*
G75*
G02*
X23230200Y-2506980I40000J0D01*
G01*
X23230200Y-4030980D02*
G75*
G02*
X23150200Y-4030980I-40000J0D01*
G01*
X23150200Y-4030980D02*
G75*
G02*
X23230200Y-4030980I40000J0D01*
G01*
X23368800Y-8620760D02*
G75*
G02*
X23288800Y-8620760I-40000J0D01*
G01*
X23288800Y-8620760D02*
G75*
G02*
X23368800Y-8620760I40000J0D01*
G01*
X23370260Y-4999760D02*
G75*
G02*
X23290260Y-4999760I-40000J0D01*
G01*
X23290260Y-4999760D02*
G75*
G02*
X23370260Y-4999760I40000J0D01*
G01*
X23370260Y-5253760D02*
G75*
G02*
X23290260Y-5253760I-40000J0D01*
G01*
X23290260Y-5253760D02*
G75*
G02*
X23370260Y-5253760I40000J0D01*
G01*
X23370260Y-5507760D02*
G75*
G02*
X23290260Y-5507760I-40000J0D01*
G01*
X23290260Y-5507760D02*
G75*
G02*
X23370260Y-5507760I40000J0D01*
G01*
X23370260Y-5761760D02*
G75*
G02*
X23290260Y-5761760I-40000J0D01*
G01*
X23290260Y-5761760D02*
G75*
G02*
X23370260Y-5761760I40000J0D01*
G01*
X23370260Y-6015760D02*
G75*
G02*
X23290260Y-6015760I-40000J0D01*
G01*
X23290260Y-6015760D02*
G75*
G02*
X23370260Y-6015760I40000J0D01*
G01*
X23370260Y-6269760D02*
G75*
G02*
X23290260Y-6269760I-40000J0D01*
G01*
X23290260Y-6269760D02*
G75*
G02*
X23370260Y-6269760I40000J0D01*
G01*
X23370260Y-6523760D02*
G75*
G02*
X23290260Y-6523760I-40000J0D01*
G01*
X23290260Y-6523760D02*
G75*
G02*
X23370260Y-6523760I40000J0D01*
G01*
X23370260Y-6777760D02*
G75*
G02*
X23290260Y-6777760I-40000J0D01*
G01*
X23290260Y-6777760D02*
G75*
G02*
X23370260Y-6777760I40000J0D01*
G01*
X23370260Y-7031760D02*
G75*
G02*
X23290260Y-7031760I-40000J0D01*
G01*
X23290260Y-7031760D02*
G75*
G02*
X23370260Y-7031760I40000J0D01*
G01*
X23370260Y-7285760D02*
G75*
G02*
X23290260Y-7285760I-40000J0D01*
G01*
X23290260Y-7285760D02*
G75*
G02*
X23370260Y-7285760I40000J0D01*
G01*
X23370260Y-7539760D02*
G75*
G02*
X23290260Y-7539760I-40000J0D01*
G01*
X23290260Y-7539760D02*
G75*
G02*
X23370260Y-7539760I40000J0D01*
G01*
X23370260Y-7793760D02*
G75*
G02*
X23290260Y-7793760I-40000J0D01*
G01*
X23290260Y-7793760D02*
G75*
G02*
X23370260Y-7793760I40000J0D01*
G01*
X23370260Y-8047760D02*
G75*
G02*
X23290260Y-8047760I-40000J0D01*
G01*
X23290260Y-8047760D02*
G75*
G02*
X23370260Y-8047760I40000J0D01*
G01*
X23370260Y-8301760D02*
G75*
G02*
X23290260Y-8301760I-40000J0D01*
G01*
X23290260Y-8301760D02*
G75*
G02*
X23370260Y-8301760I40000J0D01*
G01*
X23992200Y-2506980D02*
G75*
G02*
X23912200Y-2506980I-40000J0D01*
G01*
X23912200Y-2506980D02*
G75*
G02*
X23992200Y-2506980I40000J0D01*
G01*
X23992200Y-4030980D02*
G75*
G02*
X23912200Y-4030980I-40000J0D01*
G01*
X23912200Y-4030980D02*
G75*
G02*
X23992200Y-4030980I40000J0D01*
G01*
X24023040Y-9820680D02*
G75*
G02*
X23943040Y-9820680I-40000J0D01*
G01*
X23943040Y-9820680D02*
G75*
G02*
X24023040Y-9820680I40000J0D01*
G01*
X24023040Y-10481080D02*
G75*
G02*
X23943040Y-10481080I-40000J0D01*
G01*
X23943040Y-10481080D02*
G75*
G02*
X24023040Y-10481080I40000J0D01*
G01*
X24023040Y-11141480D02*
G75*
G02*
X23943040Y-11141480I-40000J0D01*
G01*
X23943040Y-11141480D02*
G75*
G02*
X24023040Y-11141480I40000J0D01*
G01*
X24277040Y-9820680D02*
G75*
G02*
X24197040Y-9820680I-40000J0D01*
G01*
X24197040Y-9820680D02*
G75*
G02*
X24277040Y-9820680I40000J0D01*
G01*
X24277040Y-10481080D02*
G75*
G02*
X24197040Y-10481080I-40000J0D01*
G01*
X24197040Y-10481080D02*
G75*
G02*
X24277040Y-10481080I40000J0D01*
G01*
X24277040Y-11141480D02*
G75*
G02*
X24197040Y-11141480I-40000J0D01*
G01*
X24197040Y-11141480D02*
G75*
G02*
X24277040Y-11141480I40000J0D01*
G01*
X24458520Y-13698220D02*
G75*
G02*
X24378520Y-13698220I-40000J0D01*
G01*
X24378520Y-13698220D02*
G75*
G02*
X24458520Y-13698220I40000J0D01*
G01*
X24708520Y-13698220D02*
G75*
G02*
X24628520Y-13698220I-40000J0D01*
G01*
X24628520Y-13698220D02*
G75*
G02*
X24708520Y-13698220I40000J0D01*
G01*
X24894260Y-4999760D02*
G75*
G02*
X24814260Y-4999760I-40000J0D01*
G01*
X24814260Y-4999760D02*
G75*
G02*
X24894260Y-4999760I40000J0D01*
G01*
X24894260Y-5253760D02*
G75*
G02*
X24814260Y-5253760I-40000J0D01*
G01*
X24814260Y-5253760D02*
G75*
G02*
X24894260Y-5253760I40000J0D01*
G01*
X24894260Y-5507760D02*
G75*
G02*
X24814260Y-5507760I-40000J0D01*
G01*
X24814260Y-5507760D02*
G75*
G02*
X24894260Y-5507760I40000J0D01*
G01*
X24894260Y-5761760D02*
G75*
G02*
X24814260Y-5761760I-40000J0D01*
G01*
X24814260Y-5761760D02*
G75*
G02*
X24894260Y-5761760I40000J0D01*
G01*
X24894260Y-6015760D02*
G75*
G02*
X24814260Y-6015760I-40000J0D01*
G01*
X24814260Y-6015760D02*
G75*
G02*
X24894260Y-6015760I40000J0D01*
G01*
X24894260Y-6269760D02*
G75*
G02*
X24814260Y-6269760I-40000J0D01*
G01*
X24814260Y-6269760D02*
G75*
G02*
X24894260Y-6269760I40000J0D01*
G01*
X24894260Y-6523760D02*
G75*
G02*
X24814260Y-6523760I-40000J0D01*
G01*
X24814260Y-6523760D02*
G75*
G02*
X24894260Y-6523760I40000J0D01*
G01*
X24894260Y-6777760D02*
G75*
G02*
X24814260Y-6777760I-40000J0D01*
G01*
X24814260Y-6777760D02*
G75*
G02*
X24894260Y-6777760I40000J0D01*
G01*
X24894260Y-7031760D02*
G75*
G02*
X24814260Y-7031760I-40000J0D01*
G01*
X24814260Y-7031760D02*
G75*
G02*
X24894260Y-7031760I40000J0D01*
G01*
X24894260Y-7285760D02*
G75*
G02*
X24814260Y-7285760I-40000J0D01*
G01*
X24814260Y-7285760D02*
G75*
G02*
X24894260Y-7285760I40000J0D01*
G01*
X24894260Y-7539760D02*
G75*
G02*
X24814260Y-7539760I-40000J0D01*
G01*
X24814260Y-7539760D02*
G75*
G02*
X24894260Y-7539760I40000J0D01*
G01*
X24894260Y-7793760D02*
G75*
G02*
X24814260Y-7793760I-40000J0D01*
G01*
X24814260Y-7793760D02*
G75*
G02*
X24894260Y-7793760I40000J0D01*
G01*
X24894260Y-8047760D02*
G75*
G02*
X24814260Y-8047760I-40000J0D01*
G01*
X24814260Y-8047760D02*
G75*
G02*
X24894260Y-8047760I40000J0D01*
G01*
X24894260Y-8301760D02*
G75*
G02*
X24814260Y-8301760I-40000J0D01*
G01*
X24814260Y-8301760D02*
G75*
G02*
X24894260Y-8301760I40000J0D01*
G01*
X27741240Y-2283460D02*
G75*
G02*
X27661240Y-2283460I-40000J0D01*
G01*
X27661240Y-2283460D02*
G75*
G02*
X27741240Y-2283460I40000J0D01*
G01*
X27741240Y-2943860D02*
G75*
G02*
X27661240Y-2943860I-40000J0D01*
G01*
X27661240Y-2943860D02*
G75*
G02*
X27741240Y-2943860I40000J0D01*
G01*
X27741240Y-3604260D02*
G75*
G02*
X27661240Y-3604260I-40000J0D01*
G01*
X27661240Y-3604260D02*
G75*
G02*
X27741240Y-3604260I40000J0D01*
G01*
X27741240Y-4264660D02*
G75*
G02*
X27661240Y-4264660I-40000J0D01*
G01*
X27661240Y-4264660D02*
G75*
G02*
X27741240Y-4264660I40000J0D01*
G01*
X27741240Y-4925060D02*
G75*
G02*
X27661240Y-4925060I-40000J0D01*
G01*
X27661240Y-4925060D02*
G75*
G02*
X27741240Y-4925060I40000J0D01*
G01*
X27741240Y-5585460D02*
G75*
G02*
X27661240Y-5585460I-40000J0D01*
G01*
X27661240Y-5585460D02*
G75*
G02*
X27741240Y-5585460I40000J0D01*
G01*
X27741240Y-6245860D02*
G75*
G02*
X27661240Y-6245860I-40000J0D01*
G01*
X27661240Y-6245860D02*
G75*
G02*
X27741240Y-6245860I40000J0D01*
G01*
X27741240Y-6906260D02*
G75*
G02*
X27661240Y-6906260I-40000J0D01*
G01*
X27661240Y-6906260D02*
G75*
G02*
X27741240Y-6906260I40000J0D01*
G01*
X27741240Y-7863840D02*
G75*
G02*
X27661240Y-7863840I-40000J0D01*
G01*
X27661240Y-7863840D02*
G75*
G02*
X27741240Y-7863840I40000J0D01*
G01*
X27741240Y-8524240D02*
G75*
G02*
X27661240Y-8524240I-40000J0D01*
G01*
X27661240Y-8524240D02*
G75*
G02*
X27741240Y-8524240I40000J0D01*
G01*
X27741240Y-9184640D02*
G75*
G02*
X27661240Y-9184640I-40000J0D01*
G01*
X27661240Y-9184640D02*
G75*
G02*
X27741240Y-9184640I40000J0D01*
G01*
X27741240Y-9845040D02*
G75*
G02*
X27661240Y-9845040I-40000J0D01*
G01*
X27661240Y-9845040D02*
G75*
G02*
X27741240Y-9845040I40000J0D01*
G01*
X27741240Y-11165840D02*
G75*
G02*
X27661240Y-11165840I-40000J0D01*
G01*
X27661240Y-11165840D02*
G75*
G02*
X27741240Y-11165840I40000J0D01*
G01*
X27741240Y-11826240D02*
G75*
G02*
X27661240Y-11826240I-40000J0D01*
G01*
X27661240Y-11826240D02*
G75*
G02*
X27741240Y-11826240I40000J0D01*
G01*
X27741240Y-12486640D02*
G75*
G02*
X27661240Y-12486640I-40000J0D01*
G01*
X27661240Y-12486640D02*
G75*
G02*
X27741240Y-12486640I40000J0D01*
G01*
X27741740Y-10505440D02*
G75*
G02*
X27661740Y-10505440I-40000J0D01*
G01*
X27661740Y-10505440D02*
G75*
G02*
X27741740Y-10505440I40000J0D01*
G01*
X27995240Y-2283460D02*
G75*
G02*
X27915240Y-2283460I-40000J0D01*
G01*
X27915240Y-2283460D02*
G75*
G02*
X27995240Y-2283460I40000J0D01*
G01*
X27995240Y-2943860D02*
G75*
G02*
X27915240Y-2943860I-40000J0D01*
G01*
X27915240Y-2943860D02*
G75*
G02*
X27995240Y-2943860I40000J0D01*
G01*
X27995240Y-3604260D02*
G75*
G02*
X27915240Y-3604260I-40000J0D01*
G01*
X27915240Y-3604260D02*
G75*
G02*
X27995240Y-3604260I40000J0D01*
G01*
X27995240Y-4264660D02*
G75*
G02*
X27915240Y-4264660I-40000J0D01*
G01*
X27915240Y-4264660D02*
G75*
G02*
X27995240Y-4264660I40000J0D01*
G01*
X27995240Y-4925060D02*
G75*
G02*
X27915240Y-4925060I-40000J0D01*
G01*
X27915240Y-4925060D02*
G75*
G02*
X27995240Y-4925060I40000J0D01*
G01*
X27995240Y-5585460D02*
G75*
G02*
X27915240Y-5585460I-40000J0D01*
G01*
X27915240Y-5585460D02*
G75*
G02*
X27995240Y-5585460I40000J0D01*
G01*
X27995240Y-6245860D02*
G75*
G02*
X27915240Y-6245860I-40000J0D01*
G01*
X27915240Y-6245860D02*
G75*
G02*
X27995240Y-6245860I40000J0D01*
G01*
X27995240Y-6906260D02*
G75*
G02*
X27915240Y-6906260I-40000J0D01*
G01*
X27915240Y-6906260D02*
G75*
G02*
X27995240Y-6906260I40000J0D01*
G01*
X27995240Y-7863840D02*
G75*
G02*
X27915240Y-7863840I-40000J0D01*
G01*
X27915240Y-7863840D02*
G75*
G02*
X27995240Y-7863840I40000J0D01*
G01*
X27995240Y-8524240D02*
G75*
G02*
X27915240Y-8524240I-40000J0D01*
G01*
X27915240Y-8524240D02*
G75*
G02*
X27995240Y-8524240I40000J0D01*
G01*
X27995240Y-9184640D02*
G75*
G02*
X27915240Y-9184640I-40000J0D01*
G01*
X27915240Y-9184640D02*
G75*
G02*
X27995240Y-9184640I40000J0D01*
G01*
X27995240Y-9845040D02*
G75*
G02*
X27915240Y-9845040I-40000J0D01*
G01*
X27915240Y-9845040D02*
G75*
G02*
X27995240Y-9845040I40000J0D01*
G01*
X27995240Y-11165840D02*
G75*
G02*
X27915240Y-11165840I-40000J0D01*
G01*
X27915240Y-11165840D02*
G75*
G02*
X27995240Y-11165840I40000J0D01*
G01*
X27995240Y-11826240D02*
G75*
G02*
X27915240Y-11826240I-40000J0D01*
G01*
X27915240Y-11826240D02*
G75*
G02*
X27995240Y-11826240I40000J0D01*
G01*
X27995240Y-12486640D02*
G75*
G02*
X27915240Y-12486640I-40000J0D01*
G01*
X27915240Y-12486640D02*
G75*
G02*
X27995240Y-12486640I40000J0D01*
G01*
X27995740Y-10505440D02*
G75*
G02*
X27915740Y-10505440I-40000J0D01*
G01*
X27915740Y-10505440D02*
G75*
G02*
X27995740Y-10505440I40000J0D01*
G01*
X13736320Y-14120580D02*
X13736320Y-14210580D01*
X13691320Y-14165580D02*
X13781320Y-14165580D01*
X13736320Y-14374580D02*
X13736320Y-14464580D01*
X13691320Y-14419580D02*
X13781320Y-14419580D01*
X14396720Y-14120580D02*
X14396720Y-14210580D01*
X14351720Y-14165580D02*
X14441720Y-14165580D01*
X14396720Y-14374580D02*
X14396720Y-14464580D01*
X14351720Y-14419580D02*
X14441720Y-14419580D01*
X15057120Y-14120580D02*
X15057120Y-14210580D01*
X15012120Y-14165580D02*
X15102120Y-14165580D01*
X15057120Y-14374580D02*
X15057120Y-14464580D01*
X15012120Y-14419580D02*
X15102120Y-14419580D01*
X15717520Y-14120580D02*
X15717520Y-14210580D01*
X15672520Y-14165580D02*
X15762520Y-14165580D01*
X15717520Y-14374580D02*
X15717520Y-14464580D01*
X15672520Y-14419580D02*
X15762520Y-14419580D01*
X16377920Y-14120580D02*
X16377920Y-14210580D01*
X16332920Y-14165580D02*
X16422920Y-14165580D01*
X16377920Y-14374580D02*
X16377920Y-14464580D01*
X16332920Y-14419580D02*
X16422920Y-14419580D01*
X17038320Y-14120580D02*
X17038320Y-14210580D01*
X16993320Y-14165580D02*
X17083320Y-14165580D01*
X17038320Y-14374580D02*
X17038320Y-14464580D01*
X16993320Y-14419580D02*
X17083320Y-14419580D01*
X17698720Y-14120580D02*
X17698720Y-14210580D01*
X17653720Y-14165580D02*
X17743720Y-14165580D01*
X17698720Y-14374580D02*
X17698720Y-14464580D01*
X17653720Y-14419580D02*
X17743720Y-14419580D01*
X18359120Y-14122260D02*
X18359120Y-14212260D01*
X18314120Y-14167260D02*
X18404120Y-14167260D01*
X18359120Y-14376260D02*
X18359120Y-14466260D01*
X18314120Y-14421260D02*
X18404120Y-14421260D01*
X18488660Y-2317200D02*
X18488660Y-2407200D01*
X18443660Y-2362200D02*
X18533660Y-2362200D01*
X18488660Y-2571200D02*
X18488660Y-2661200D01*
X18443660Y-2616200D02*
X18533660Y-2616200D01*
X19149060Y-2317200D02*
X19149060Y-2407200D01*
X19104060Y-2362200D02*
X19194060Y-2362200D01*
X19149060Y-2571200D02*
X19149060Y-2661200D01*
X19104060Y-2616200D02*
X19194060Y-2616200D01*
X19809460Y-2317200D02*
X19809460Y-2407200D01*
X19764460Y-2362200D02*
X19854460Y-2362200D01*
X19809460Y-2571200D02*
X19809460Y-2661200D01*
X19764460Y-2616200D02*
X19854460Y-2616200D01*
X20469860Y-2317200D02*
X20469860Y-2407200D01*
X20424860Y-2362200D02*
X20514860Y-2362200D01*
X20469860Y-2571200D02*
X20469860Y-2661200D01*
X20424860Y-2616200D02*
X20514860Y-2616200D01*
X23373440Y-9775680D02*
X23373440Y-9865680D01*
X23328440Y-9820680D02*
X23418440Y-9820680D01*
X23373440Y-10436080D02*
X23373440Y-10526080D01*
X23328440Y-10481080D02*
X23418440Y-10481080D01*
X23373440Y-11099020D02*
X23373440Y-11189020D01*
X23328440Y-11144020D02*
X23418440Y-11144020D01*
X23627440Y-9775680D02*
X23627440Y-9865680D01*
X23582440Y-9820680D02*
X23672440Y-9820680D01*
X23627440Y-10436080D02*
X23627440Y-10526080D01*
X23582440Y-10481080D02*
X23672440Y-10481080D01*
X23627440Y-11099020D02*
X23627440Y-11189020D01*
X23582440Y-11144020D02*
X23672440Y-11144020D01*
X27091640Y-2238460D02*
X27091640Y-2328460D01*
X27046640Y-2283460D02*
X27136640Y-2283460D01*
X27091640Y-2898860D02*
X27091640Y-2988860D01*
X27046640Y-2943860D02*
X27136640Y-2943860D01*
X27091640Y-3559260D02*
X27091640Y-3649260D01*
X27046640Y-3604260D02*
X27136640Y-3604260D01*
X27091640Y-4219660D02*
X27091640Y-4309660D01*
X27046640Y-4264660D02*
X27136640Y-4264660D01*
X27091640Y-4880060D02*
X27091640Y-4970060D01*
X27046640Y-4925060D02*
X27136640Y-4925060D01*
X27091640Y-5540460D02*
X27091640Y-5630460D01*
X27046640Y-5585460D02*
X27136640Y-5585460D01*
X27091640Y-6200860D02*
X27091640Y-6290860D01*
X27046640Y-6245860D02*
X27136640Y-6245860D01*
X27091640Y-6861260D02*
X27091640Y-6951260D01*
X27046640Y-6906260D02*
X27136640Y-6906260D01*
X27091640Y-7818840D02*
X27091640Y-7908840D01*
X27046640Y-7863840D02*
X27136640Y-7863840D01*
X27091640Y-8479240D02*
X27091640Y-8569240D01*
X27046640Y-8524240D02*
X27136640Y-8524240D01*
X27091640Y-9139640D02*
X27091640Y-9229640D01*
X27046640Y-9184640D02*
X27136640Y-9184640D01*
X27091640Y-9800040D02*
X27091640Y-9890040D01*
X27046640Y-9845040D02*
X27136640Y-9845040D01*
X27091640Y-11120840D02*
X27091640Y-11210840D01*
X27046640Y-11165840D02*
X27136640Y-11165840D01*
X27091640Y-11781240D02*
X27091640Y-11871240D01*
X27046640Y-11826240D02*
X27136640Y-11826240D01*
X27091640Y-12441640D02*
X27091640Y-12531640D01*
X27046640Y-12486640D02*
X27136640Y-12486640D01*
X27092140Y-10460440D02*
X27092140Y-10550440D01*
X27047140Y-10505440D02*
X27137140Y-10505440D01*
X27345640Y-2238460D02*
X27345640Y-2328460D01*
X27300640Y-2283460D02*
X27390640Y-2283460D01*
X27345640Y-2898860D02*
X27345640Y-2988860D01*
X27300640Y-2943860D02*
X27390640Y-2943860D01*
X27345640Y-3559260D02*
X27345640Y-3649260D01*
X27300640Y-3604260D02*
X27390640Y-3604260D01*
X27345640Y-4219660D02*
X27345640Y-4309660D01*
X27300640Y-4264660D02*
X27390640Y-4264660D01*
X27345640Y-4880060D02*
X27345640Y-4970060D01*
X27300640Y-4925060D02*
X27390640Y-4925060D01*
X27345640Y-5540460D02*
X27345640Y-5630460D01*
X27300640Y-5585460D02*
X27390640Y-5585460D01*
X27345640Y-6200860D02*
X27345640Y-6290860D01*
X27300640Y-6245860D02*
X27390640Y-6245860D01*
X27345640Y-6861260D02*
X27345640Y-6951260D01*
X27300640Y-6906260D02*
X27390640Y-6906260D01*
X27345640Y-7818840D02*
X27345640Y-7908840D01*
X27300640Y-7863840D02*
X27390640Y-7863840D01*
X27345640Y-8479240D02*
X27345640Y-8569240D01*
X27300640Y-8524240D02*
X27390640Y-8524240D01*
X27345640Y-9139640D02*
X27345640Y-9229640D01*
X27300640Y-9184640D02*
X27390640Y-9184640D01*
X27345640Y-9800040D02*
X27345640Y-9890040D01*
X27300640Y-9845040D02*
X27390640Y-9845040D01*
X27345640Y-11120840D02*
X27345640Y-11210840D01*
X27300640Y-11165840D02*
X27390640Y-11165840D01*
X27345640Y-11781240D02*
X27345640Y-11871240D01*
X27300640Y-11826240D02*
X27390640Y-11826240D01*
X27345640Y-12441640D02*
X27345640Y-12531640D01*
X27300640Y-12486640D02*
X27390640Y-12486640D01*
X27346140Y-10460440D02*
X27346140Y-10550440D01*
X27301140Y-10505440D02*
X27391140Y-10505440D01*
X12445796Y-3631996D02*
X12445796Y-3561284D01*
X12375084Y-3561284D01*
X12375084Y-3631996D01*
X12445796Y-3631996D01*
X12445796Y-3885996D02*
X12445796Y-3815284D01*
X12375084Y-3815284D01*
X12375084Y-3885996D01*
X12445796Y-3885996D01*
X12445796Y-4139996D02*
X12445796Y-4069284D01*
X12375084Y-4069284D01*
X12375084Y-4139996D01*
X12445796Y-4139996D01*
X12445796Y-4393996D02*
X12445796Y-4323284D01*
X12375084Y-4323284D01*
X12375084Y-4393996D01*
X12445796Y-4393996D01*
X12445796Y-4647996D02*
X12445796Y-4577284D01*
X12375084Y-4577284D01*
X12375084Y-4647996D01*
X12445796Y-4647996D01*
X12445796Y-4901996D02*
X12445796Y-4831284D01*
X12375084Y-4831284D01*
X12375084Y-4901996D01*
X12445796Y-4901996D01*
X12445796Y-5155996D02*
X12445796Y-5085284D01*
X12375084Y-5085284D01*
X12375084Y-5155996D01*
X12445796Y-5155996D01*
X12445796Y-5409996D02*
X12445796Y-5339284D01*
X12375084Y-5339284D01*
X12375084Y-5409996D01*
X12445796Y-5409996D01*
X12445796Y-5663996D02*
X12445796Y-5593284D01*
X12375084Y-5593284D01*
X12375084Y-5663996D01*
X12445796Y-5663996D01*
X12445796Y-5917996D02*
X12445796Y-5847284D01*
X12375084Y-5847284D01*
X12375084Y-5917996D01*
X12445796Y-5917996D01*
X12445796Y-10810036D02*
X12445796Y-10739324D01*
X12375084Y-10739324D01*
X12375084Y-10810036D01*
X12445796Y-10810036D01*
X12445796Y-11064036D02*
X12445796Y-10993324D01*
X12375084Y-10993324D01*
X12375084Y-11064036D01*
X12445796Y-11064036D01*
X12445796Y-11318036D02*
X12445796Y-11247324D01*
X12375084Y-11247324D01*
X12375084Y-11318036D01*
X12445796Y-11318036D01*
X12445796Y-11572036D02*
X12445796Y-11501324D01*
X12375084Y-11501324D01*
X12375084Y-11572036D01*
X12445796Y-11572036D01*
X12445796Y-11826036D02*
X12445796Y-11755324D01*
X12375084Y-11755324D01*
X12375084Y-11826036D01*
X12445796Y-11826036D01*
X12445796Y-12080036D02*
X12445796Y-12009324D01*
X12375084Y-12009324D01*
X12375084Y-12080036D01*
X12445796Y-12080036D01*
X12445796Y-12334036D02*
X12445796Y-12263324D01*
X12375084Y-12263324D01*
X12375084Y-12334036D01*
X12445796Y-12334036D01*
X12445796Y-12588036D02*
X12445796Y-12517324D01*
X12375084Y-12517324D01*
X12375084Y-12588036D01*
X12445796Y-12588036D01*
X12445796Y-12842036D02*
X12445796Y-12771324D01*
X12375084Y-12771324D01*
X12375084Y-12842036D01*
X12445796Y-12842036D01*
X12445796Y-13096036D02*
X12445796Y-13025324D01*
X12375084Y-13025324D01*
X12375084Y-13096036D01*
X12445796Y-13096036D01*
X15194076Y-13484656D02*
X15194076Y-13413944D01*
X15123364Y-13413944D01*
X15123364Y-13484656D01*
X15194076Y-13484656D01*
X15448076Y-13484656D02*
X15448076Y-13413944D01*
X15377364Y-13413944D01*
X15377364Y-13484656D01*
X15448076Y-13484656D01*
X15702076Y-13484656D02*
X15702076Y-13413944D01*
X15631364Y-13413944D01*
X15631364Y-13484656D01*
X15702076Y-13484656D01*
X15956076Y-13484656D02*
X15956076Y-13413944D01*
X15885364Y-13413944D01*
X15885364Y-13484656D01*
X15956076Y-13484656D01*
X16210076Y-13484656D02*
X16210076Y-13413944D01*
X16139364Y-13413944D01*
X16139364Y-13484656D01*
X16210076Y-13484656D01*
X16464076Y-13484656D02*
X16464076Y-13413944D01*
X16393364Y-13413944D01*
X16393364Y-13484656D01*
X16464076Y-13484656D01*
X16718076Y-13484656D02*
X16718076Y-13413944D01*
X16647364Y-13413944D01*
X16647364Y-13484656D01*
X16718076Y-13484656D01*
X16972076Y-13484656D02*
X16972076Y-13413944D01*
X16901364Y-13413944D01*
X16901364Y-13484656D01*
X16972076Y-13484656D01*
X19132616Y-3362756D02*
X19132616Y-3292044D01*
X19061904Y-3292044D01*
X19061904Y-3362756D01*
X19132616Y-3362756D01*
X19386616Y-3362756D02*
X19386616Y-3292044D01*
X19315904Y-3292044D01*
X19315904Y-3362756D01*
X19386616Y-3362756D01*
X19640616Y-3362756D02*
X19640616Y-3292044D01*
X19569904Y-3292044D01*
X19569904Y-3362756D01*
X19640616Y-3362756D01*
X19894616Y-3362756D02*
X19894616Y-3292044D01*
X19823904Y-3292044D01*
X19823904Y-3362756D01*
X19894616Y-3362756D01*
X21356836Y-14130223D02*
X21356836Y-14059511D01*
X21286124Y-14059511D01*
X21286124Y-14130223D01*
X21356836Y-14130223D01*
X21495336Y-14414223D02*
X21495336Y-14343511D01*
X21424624Y-14343511D01*
X21424624Y-14414223D01*
X21495336Y-14414223D01*
X21633836Y-14130223D02*
X21633836Y-14059511D01*
X21563124Y-14059511D01*
X21563124Y-14130223D01*
X21633836Y-14130223D01*
X21772336Y-14414223D02*
X21772336Y-14343511D01*
X21701624Y-14343511D01*
X21701624Y-14414223D01*
X21772336Y-14414223D01*
X21910836Y-14130223D02*
X21910836Y-14059511D01*
X21840124Y-14059511D01*
X21840124Y-14130223D01*
X21910836Y-14130223D01*
X22049336Y-14414223D02*
X22049336Y-14343511D01*
X21978624Y-14343511D01*
X21978624Y-14414223D01*
X22049336Y-14414223D01*
X22187836Y-14130223D02*
X22187836Y-14059511D01*
X22117124Y-14059511D01*
X22117124Y-14130223D01*
X22187836Y-14130223D01*
X22326336Y-14414223D02*
X22326336Y-14343511D01*
X22255624Y-14343511D01*
X22255624Y-14414223D01*
X22326336Y-14414223D01*
X22464836Y-14130223D02*
X22464836Y-14059511D01*
X22394124Y-14059511D01*
X22394124Y-14130223D01*
X22464836Y-14130223D01*
X22684896Y-10263936D02*
X22684896Y-10193224D01*
X22614184Y-10193224D01*
X22614184Y-10263936D01*
X22684896Y-10263936D01*
X22684896Y-10517936D02*
X22684896Y-10447224D01*
X22614184Y-10447224D01*
X22614184Y-10517936D01*
X22684896Y-10517936D01*
X22684896Y-10771936D02*
X22684896Y-10701224D01*
X22614184Y-10701224D01*
X22614184Y-10771936D01*
X22684896Y-10771936D01*
X24454916Y-14043456D02*
X24454916Y-13972744D01*
X24384204Y-13972744D01*
X24384204Y-14043456D01*
X24454916Y-14043456D01*
X24289560Y-14058100D02*
X24549560Y-14058100D01*
X24549560Y-13958100D02*
G75*
G02*
X24549560Y-14058100I0J-50000D01*
G01*
X24549560Y-13958100D02*
X24289560Y-13958100D01*
X24289560Y-13958100D02*
G75*
G03*
X24289560Y-14058100I0J-50000D01*
G01*
X24454916Y-14673456D02*
X24454916Y-14602744D01*
X24384204Y-14602744D01*
X24384204Y-14673456D01*
X24454916Y-14673456D01*
X24309560Y-14688100D02*
X24529560Y-14688100D01*
X24529560Y-14588100D02*
G75*
G02*
X24529560Y-14688100I0J-50000D01*
G01*
X24529560Y-14588100D02*
X24309560Y-14588100D01*
X24309560Y-14588100D02*
G75*
G03*
X24309560Y-14688100I0J-50000D01*
G01*
X24934916Y-14333456D02*
X24934916Y-14262744D01*
X24864204Y-14262744D01*
X24864204Y-14333456D01*
X24934916Y-14333456D01*
X24849560Y-14188100D02*
X24849560Y-14408100D01*
X24949560Y-14408100D02*
G75*
G02*
X24849560Y-14408100I-50000J0D01*
G01*
X24949560Y-14408100D02*
X24949560Y-14188100D01*
X24949560Y-14188100D02*
G75*
G03*
X24849560Y-14188100I-50000J0D01*
G01*
X26390396Y-3741216D02*
X26390396Y-3670504D01*
X26319684Y-3670504D01*
X26319684Y-3741216D01*
X26390396Y-3741216D01*
X26390396Y-3995216D02*
X26390396Y-3924504D01*
X26319684Y-3924504D01*
X26319684Y-3995216D01*
X26390396Y-3995216D01*
X26390396Y-4249216D02*
X26390396Y-4178504D01*
X26319684Y-4178504D01*
X26319684Y-4249216D01*
X26390396Y-4249216D01*
X26390396Y-4503216D02*
X26390396Y-4432504D01*
X26319684Y-4432504D01*
X26319684Y-4503216D01*
X26390396Y-4503216D01*
X26390396Y-4757216D02*
X26390396Y-4686504D01*
X26319684Y-4686504D01*
X26319684Y-4757216D01*
X26390396Y-4757216D01*
X26390396Y-5011216D02*
X26390396Y-4940504D01*
X26319684Y-4940504D01*
X26319684Y-5011216D01*
X26390396Y-5011216D01*
X26390396Y-5265216D02*
X26390396Y-5194504D01*
X26319684Y-5194504D01*
X26319684Y-5265216D01*
X26390396Y-5265216D01*
X26390396Y-5519216D02*
X26390396Y-5448504D01*
X26319684Y-5448504D01*
X26319684Y-5519216D01*
X26390396Y-5519216D01*
X26425956Y-9321596D02*
X26425956Y-9250884D01*
X26355244Y-9250884D01*
X26355244Y-9321596D01*
X26425956Y-9321596D01*
X26425956Y-9575596D02*
X26425956Y-9504884D01*
X26355244Y-9504884D01*
X26355244Y-9575596D01*
X26425956Y-9575596D01*
X26425956Y-9829596D02*
X26425956Y-9758884D01*
X26355244Y-9758884D01*
X26355244Y-9829596D01*
X26425956Y-9829596D01*
X26425956Y-10083596D02*
X26425956Y-10012884D01*
X26355244Y-10012884D01*
X26355244Y-10083596D01*
X26425956Y-10083596D01*
X26425956Y-10337596D02*
X26425956Y-10266884D01*
X26355244Y-10266884D01*
X26355244Y-10337596D01*
X26425956Y-10337596D01*
X26425956Y-10591596D02*
X26425956Y-10520884D01*
X26355244Y-10520884D01*
X26355244Y-10591596D01*
X26425956Y-10591596D01*
X26425956Y-10845596D02*
X26425956Y-10774884D01*
X26355244Y-10774884D01*
X26355244Y-10845596D01*
X26425956Y-10845596D01*
X26425956Y-11099596D02*
X26425956Y-11028884D01*
X26355244Y-11028884D01*
X26355244Y-11099596D01*
X26425956Y-11099596D01*
D12*
X14938100Y-11413880D02*
X14993100Y-11358880D01*
X14938100Y-11303880D01*
X14883100Y-11358880D01*
X14938100Y-11413880D01*
X14938100Y-12429880D02*
X14993100Y-12374880D01*
X14938100Y-12319880D01*
X14883100Y-12374880D01*
X14938100Y-12429880D01*
X16807540Y-9204080D02*
X16862540Y-9149080D01*
X16807540Y-9094080D01*
X16752540Y-9149080D01*
X16807540Y-9204080D01*
X17823540Y-9204080D02*
X17878540Y-9149080D01*
X17823540Y-9094080D01*
X17768540Y-9149080D01*
X17823540Y-9204080D01*
X17950660Y-10045880D02*
X18005660Y-9990880D01*
X17950660Y-9935880D01*
X17895660Y-9990880D01*
X17950660Y-10045880D01*
X17950660Y-10495880D02*
X18005660Y-10440880D01*
X17950660Y-10385880D01*
X17895660Y-10440880D01*
X17950660Y-10495880D01*
X18600660Y-10045880D02*
X18655660Y-9990880D01*
X18600660Y-9935880D01*
X18545660Y-9990880D01*
X18600660Y-10045880D01*
X18600660Y-10495880D02*
X18655660Y-10440880D01*
X18600660Y-10385880D01*
X18545660Y-10440880D01*
X18600660Y-10495880D01*
D13*
X1592440Y-1592440D02*
X1892440Y-1892440D01*
X1892440Y-1592440D02*
X1592440Y-1892440D01*
X1892440Y-1742440D02*
G75*
G02*
X1592440Y-1742440I-150000J0D01*
G01*
X1592440Y-1742440D02*
G75*
G02*
X1892440Y-1742440I150000J0D01*
G01*
X1592440Y-7637640D02*
X1892440Y-7937640D01*
X1892440Y-7637640D02*
X1592440Y-7937640D01*
X1892440Y-7787640D02*
G75*
G02*
X1592440Y-7787640I-150000J0D01*
G01*
X1592440Y-7787640D02*
G75*
G02*
X1892440Y-7787640I150000J0D01*
G01*
X1592440Y-8719680D02*
X1892440Y-9019680D01*
X1892440Y-8719680D02*
X1592440Y-9019680D01*
X1892440Y-8869680D02*
G75*
G02*
X1592440Y-8869680I-150000J0D01*
G01*
X1592440Y-8869680D02*
G75*
G02*
X1892440Y-8869680I150000J0D01*
G01*
X1592440Y-14764880D02*
X1892440Y-15064880D01*
X1892440Y-14764880D02*
X1592440Y-15064880D01*
X1892440Y-14914880D02*
G75*
G02*
X1592440Y-14914880I-150000J0D01*
G01*
X1592440Y-14914880D02*
G75*
G02*
X1892440Y-14914880I150000J0D01*
G01*
X12585560Y-1592440D02*
X12885560Y-1892440D01*
X12885560Y-1592440D02*
X12585560Y-1892440D01*
X12885560Y-1742440D02*
G75*
G02*
X12585560Y-1742440I-150000J0D01*
G01*
X12585560Y-1742440D02*
G75*
G02*
X12885560Y-1742440I150000J0D01*
G01*
X12585560Y-7637640D02*
X12885560Y-7937640D01*
X12885560Y-7637640D02*
X12585560Y-7937640D01*
X12885560Y-7787640D02*
G75*
G02*
X12585560Y-7787640I-150000J0D01*
G01*
X12585560Y-7787640D02*
G75*
G02*
X12885560Y-7787640I150000J0D01*
G01*
X12585560Y-8719680D02*
X12885560Y-9019680D01*
X12885560Y-8719680D02*
X12585560Y-9019680D01*
X12885560Y-8869680D02*
G75*
G02*
X12585560Y-8869680I-150000J0D01*
G01*
X12585560Y-8869680D02*
G75*
G02*
X12885560Y-8869680I150000J0D01*
G01*
X12585560Y-14764880D02*
X12885560Y-15064880D01*
X12885560Y-14764880D02*
X12585560Y-15064880D01*
X12885560Y-14914880D02*
G75*
G02*
X12585560Y-14914880I-150000J0D01*
G01*
X12585560Y-14914880D02*
G75*
G02*
X12885560Y-14914880I150000J0D01*
G01*
X19448640Y-10269080D02*
X19748640Y-10569080D01*
X19748640Y-10269080D02*
X19448640Y-10569080D01*
X19748640Y-10419080D02*
G75*
G02*
X19448640Y-10419080I-150000J0D01*
G01*
X19448640Y-10419080D02*
G75*
G02*
X19748640Y-10419080I150000J0D01*
G01*
X20337640Y-4101960D02*
X20637640Y-4401960D01*
X20637640Y-4101960D02*
X20337640Y-4401960D01*
X20637640Y-4251960D02*
G75*
G02*
X20337640Y-4251960I-150000J0D01*
G01*
X20337640Y-4251960D02*
G75*
G02*
X20637640Y-4251960I150000J0D01*
G01*
X27861120Y-1536560D02*
X28161120Y-1836560D01*
X28161120Y-1536560D02*
X27861120Y-1836560D01*
X28161120Y-1686560D02*
G75*
G02*
X27861120Y-1686560I-150000J0D01*
G01*
X27861120Y-1686560D02*
G75*
G02*
X28161120Y-1686560I150000J0D01*
G01*
X27861120Y-14820760D02*
X28161120Y-15120760D01*
X28161120Y-14820760D02*
X27861120Y-15120760D01*
X28161120Y-14970760D02*
G75*
G02*
X27861120Y-14970760I-150000J0D01*
G01*
X27861120Y-14970760D02*
G75*
G02*
X28161120Y-14970760I150000J0D01*
G01*
D14*
X20465480Y-14076867D02*
X20785480Y-14396867D01*
X20785480Y-14076867D02*
X20465480Y-14396867D01*
X20625480Y-14076867D02*
X20625480Y-14396867D01*
X20465480Y-14236867D02*
X20785480Y-14236867D01*
X22965480Y-14076867D02*
X23285480Y-14396867D01*
X23285480Y-14076867D02*
X22965480Y-14396867D01*
X23125480Y-14076867D02*
X23125480Y-14396867D01*
X22965480Y-14236867D02*
X23285480Y-14236867D01*
D11*
X1469897Y-15759684D02*
X1469897Y-15559684D01*
X1469897Y-15559684D02*
X1517516Y-15559684D01*
X1517516Y-15559684D02*
X1546087Y-15569208D01*
X1546087Y-15569208D02*
X1565135Y-15588255D01*
X1565135Y-15588255D02*
X1574659Y-15607303D01*
X1574659Y-15607303D02*
X1584182Y-15645398D01*
X1584182Y-15645398D02*
X1584182Y-15673969D01*
X1584182Y-15673969D02*
X1574659Y-15712065D01*
X1574659Y-15712065D02*
X1565135Y-15731112D01*
X1565135Y-15731112D02*
X1546087Y-15750160D01*
X1546087Y-15750160D02*
X1517516Y-15759684D01*
X1517516Y-15759684D02*
X1469897Y-15759684D01*
X1669897Y-15759684D02*
X1669897Y-15626350D01*
X1669897Y-15664446D02*
X1679421Y-15645398D01*
X1679421Y-15645398D02*
X1688944Y-15635874D01*
X1688944Y-15635874D02*
X1707992Y-15626350D01*
X1707992Y-15626350D02*
X1727040Y-15626350D01*
X1793706Y-15759684D02*
X1793706Y-15626350D01*
X1793706Y-15559684D02*
X1784182Y-15569208D01*
X1784182Y-15569208D02*
X1793706Y-15578731D01*
X1793706Y-15578731D02*
X1803230Y-15569208D01*
X1803230Y-15569208D02*
X1793706Y-15559684D01*
X1793706Y-15559684D02*
X1793706Y-15578731D01*
X1917516Y-15759684D02*
X1898468Y-15750160D01*
X1898468Y-15750160D02*
X1888944Y-15731112D01*
X1888944Y-15731112D02*
X1888944Y-15559684D01*
X2022278Y-15759684D02*
X2003230Y-15750160D01*
X2003230Y-15750160D02*
X1993706Y-15731112D01*
X1993706Y-15731112D02*
X1993706Y-15559684D01*
X2250849Y-15759684D02*
X2250849Y-15559684D01*
X2250849Y-15559684D02*
X2317516Y-15702541D01*
X2317516Y-15702541D02*
X2384183Y-15559684D01*
X2384183Y-15559684D02*
X2384183Y-15759684D01*
X2565135Y-15759684D02*
X2565135Y-15654922D01*
X2565135Y-15654922D02*
X2555611Y-15635874D01*
X2555611Y-15635874D02*
X2536564Y-15626350D01*
X2536564Y-15626350D02*
X2498468Y-15626350D01*
X2498468Y-15626350D02*
X2479421Y-15635874D01*
X2565135Y-15750160D02*
X2546087Y-15759684D01*
X2546087Y-15759684D02*
X2498468Y-15759684D01*
X2498468Y-15759684D02*
X2479421Y-15750160D01*
X2479421Y-15750160D02*
X2469897Y-15731112D01*
X2469897Y-15731112D02*
X2469897Y-15712065D01*
X2469897Y-15712065D02*
X2479421Y-15693017D01*
X2479421Y-15693017D02*
X2498468Y-15683493D01*
X2498468Y-15683493D02*
X2546087Y-15683493D01*
X2546087Y-15683493D02*
X2565135Y-15673969D01*
X2660373Y-15626350D02*
X2660373Y-15826350D01*
X2660373Y-15635874D02*
X2679421Y-15626350D01*
X2679421Y-15626350D02*
X2717516Y-15626350D01*
X2717516Y-15626350D02*
X2736564Y-15635874D01*
X2736564Y-15635874D02*
X2746087Y-15645398D01*
X2746087Y-15645398D02*
X2755611Y-15664446D01*
X2755611Y-15664446D02*
X2755611Y-15721588D01*
X2755611Y-15721588D02*
X2746087Y-15740636D01*
X2746087Y-15740636D02*
X2736564Y-15750160D01*
X2736564Y-15750160D02*
X2717516Y-15759684D01*
X2717516Y-15759684D02*
X2679421Y-15759684D01*
X2679421Y-15759684D02*
X2660373Y-15750160D01*
X2841325Y-15740636D02*
X2850849Y-15750160D01*
X2850849Y-15750160D02*
X2841325Y-15759684D01*
X2841325Y-15759684D02*
X2831802Y-15750160D01*
X2831802Y-15750160D02*
X2841325Y-15740636D01*
X2841325Y-15740636D02*
X2841325Y-15759684D01*
X2841325Y-15635874D02*
X2850849Y-15645398D01*
X2850849Y-15645398D02*
X2841325Y-15654922D01*
X2841325Y-15654922D02*
X2831802Y-15645398D01*
X2831802Y-15645398D02*
X2841325Y-15635874D01*
X2841325Y-15635874D02*
X2841325Y-15654922D01*
D10*
X1169120Y-16068200D02*
X1209120Y-16108200D01*
X1209120Y-16068200D02*
X1169120Y-16108200D01*
D11*
X1507992Y-15979684D02*
X1527040Y-15979684D01*
X1527040Y-15979684D02*
X1546087Y-15989208D01*
X1546087Y-15989208D02*
X1555611Y-15998731D01*
X1555611Y-15998731D02*
X1565135Y-16017779D01*
X1565135Y-16017779D02*
X1574659Y-16055874D01*
X1574659Y-16055874D02*
X1574659Y-16103493D01*
X1574659Y-16103493D02*
X1565135Y-16141588D01*
X1565135Y-16141588D02*
X1555611Y-16160636D01*
X1555611Y-16160636D02*
X1546087Y-16170160D01*
X1546087Y-16170160D02*
X1527040Y-16179684D01*
X1527040Y-16179684D02*
X1507992Y-16179684D01*
X1507992Y-16179684D02*
X1488944Y-16170160D01*
X1488944Y-16170160D02*
X1479421Y-16160636D01*
X1479421Y-16160636D02*
X1469897Y-16141588D01*
X1469897Y-16141588D02*
X1460373Y-16103493D01*
X1460373Y-16103493D02*
X1460373Y-16055874D01*
X1460373Y-16055874D02*
X1469897Y-16017779D01*
X1469897Y-16017779D02*
X1479421Y-15998731D01*
X1479421Y-15998731D02*
X1488944Y-15989208D01*
X1488944Y-15989208D02*
X1507992Y-15979684D01*
X1660373Y-16160636D02*
X1669897Y-16170160D01*
X1669897Y-16170160D02*
X1660373Y-16179684D01*
X1660373Y-16179684D02*
X1650849Y-16170160D01*
X1650849Y-16170160D02*
X1660373Y-16160636D01*
X1660373Y-16160636D02*
X1660373Y-16179684D01*
X1841325Y-16046350D02*
X1841325Y-16179684D01*
X1793706Y-15970160D02*
X1746087Y-16113017D01*
X1746087Y-16113017D02*
X1869897Y-16113017D01*
X1984182Y-15979684D02*
X2003230Y-15979684D01*
X2003230Y-15979684D02*
X2022278Y-15989208D01*
X2022278Y-15989208D02*
X2031802Y-15998731D01*
X2031802Y-15998731D02*
X2041325Y-16017779D01*
X2041325Y-16017779D02*
X2050849Y-16055874D01*
X2050849Y-16055874D02*
X2050849Y-16103493D01*
X2050849Y-16103493D02*
X2041325Y-16141588D01*
X2041325Y-16141588D02*
X2031802Y-16160636D01*
X2031802Y-16160636D02*
X2022278Y-16170160D01*
X2022278Y-16170160D02*
X2003230Y-16179684D01*
X2003230Y-16179684D02*
X1984182Y-16179684D01*
X1984182Y-16179684D02*
X1965135Y-16170160D01*
X1965135Y-16170160D02*
X1955611Y-16160636D01*
X1955611Y-16160636D02*
X1946087Y-16141588D01*
X1946087Y-16141588D02*
X1936563Y-16103493D01*
X1936563Y-16103493D02*
X1936563Y-16055874D01*
X1936563Y-16055874D02*
X1946087Y-16017779D01*
X1946087Y-16017779D02*
X1955611Y-15998731D01*
X1955611Y-15998731D02*
X1965135Y-15989208D01*
X1965135Y-15989208D02*
X1984182Y-15979684D01*
X2174659Y-15979684D02*
X2193706Y-15979684D01*
X2193706Y-15979684D02*
X2212754Y-15989208D01*
X2212754Y-15989208D02*
X2222278Y-15998731D01*
X2222278Y-15998731D02*
X2231802Y-16017779D01*
X2231802Y-16017779D02*
X2241325Y-16055874D01*
X2241325Y-16055874D02*
X2241325Y-16103493D01*
X2241325Y-16103493D02*
X2231802Y-16141588D01*
X2231802Y-16141588D02*
X2222278Y-16160636D01*
X2222278Y-16160636D02*
X2212754Y-16170160D01*
X2212754Y-16170160D02*
X2193706Y-16179684D01*
X2193706Y-16179684D02*
X2174659Y-16179684D01*
X2174659Y-16179684D02*
X2155611Y-16170160D01*
X2155611Y-16170160D02*
X2146087Y-16160636D01*
X2146087Y-16160636D02*
X2136564Y-16141588D01*
X2136564Y-16141588D02*
X2127040Y-16103493D01*
X2127040Y-16103493D02*
X2127040Y-16055874D01*
X2127040Y-16055874D02*
X2136564Y-16017779D01*
X2136564Y-16017779D02*
X2146087Y-15998731D01*
X2146087Y-15998731D02*
X2155611Y-15989208D01*
X2155611Y-15989208D02*
X2174659Y-15979684D01*
X2327040Y-16179684D02*
X2327040Y-16046350D01*
X2327040Y-16065398D02*
X2336564Y-16055874D01*
X2336564Y-16055874D02*
X2355611Y-16046350D01*
X2355611Y-16046350D02*
X2384183Y-16046350D01*
X2384183Y-16046350D02*
X2403230Y-16055874D01*
X2403230Y-16055874D02*
X2412754Y-16074922D01*
X2412754Y-16074922D02*
X2412754Y-16179684D01*
X2412754Y-16074922D02*
X2422278Y-16055874D01*
X2422278Y-16055874D02*
X2441325Y-16046350D01*
X2441325Y-16046350D02*
X2469897Y-16046350D01*
X2469897Y-16046350D02*
X2488945Y-16055874D01*
X2488945Y-16055874D02*
X2498468Y-16074922D01*
X2498468Y-16074922D02*
X2498468Y-16179684D01*
X2593706Y-16179684D02*
X2593706Y-16046350D01*
X2593706Y-16065398D02*
X2603230Y-16055874D01*
X2603230Y-16055874D02*
X2622278Y-16046350D01*
X2622278Y-16046350D02*
X2650849Y-16046350D01*
X2650849Y-16046350D02*
X2669897Y-16055874D01*
X2669897Y-16055874D02*
X2679421Y-16074922D01*
X2679421Y-16074922D02*
X2679421Y-16179684D01*
X2679421Y-16074922D02*
X2688945Y-16055874D01*
X2688945Y-16055874D02*
X2707992Y-16046350D01*
X2707992Y-16046350D02*
X2736564Y-16046350D01*
X2736564Y-16046350D02*
X2755611Y-16055874D01*
X2755611Y-16055874D02*
X2765135Y-16074922D01*
X2765135Y-16074922D02*
X2765135Y-16179684D01*
X3155611Y-15970160D02*
X2984183Y-16227303D01*
X3412754Y-15979684D02*
X3431802Y-15979684D01*
X3431802Y-15979684D02*
X3450849Y-15989208D01*
X3450849Y-15989208D02*
X3460373Y-15998731D01*
X3460373Y-15998731D02*
X3469897Y-16017779D01*
X3469897Y-16017779D02*
X3479421Y-16055874D01*
X3479421Y-16055874D02*
X3479421Y-16103493D01*
X3479421Y-16103493D02*
X3469897Y-16141588D01*
X3469897Y-16141588D02*
X3460373Y-16160636D01*
X3460373Y-16160636D02*
X3450849Y-16170160D01*
X3450849Y-16170160D02*
X3431802Y-16179684D01*
X3431802Y-16179684D02*
X3412754Y-16179684D01*
X3412754Y-16179684D02*
X3393706Y-16170160D01*
X3393706Y-16170160D02*
X3384183Y-16160636D01*
X3384183Y-16160636D02*
X3374659Y-16141588D01*
X3374659Y-16141588D02*
X3365135Y-16103493D01*
X3365135Y-16103493D02*
X3365135Y-16055874D01*
X3365135Y-16055874D02*
X3374659Y-16017779D01*
X3374659Y-16017779D02*
X3384183Y-15998731D01*
X3384183Y-15998731D02*
X3393706Y-15989208D01*
X3393706Y-15989208D02*
X3412754Y-15979684D01*
X3565135Y-16160636D02*
X3574659Y-16170160D01*
X3574659Y-16170160D02*
X3565135Y-16179684D01*
X3565135Y-16179684D02*
X3555611Y-16170160D01*
X3555611Y-16170160D02*
X3565135Y-16160636D01*
X3565135Y-16160636D02*
X3565135Y-16179684D01*
X3698468Y-15979684D02*
X3717516Y-15979684D01*
X3717516Y-15979684D02*
X3736564Y-15989208D01*
X3736564Y-15989208D02*
X3746087Y-15998731D01*
X3746087Y-15998731D02*
X3755611Y-16017779D01*
X3755611Y-16017779D02*
X3765135Y-16055874D01*
X3765135Y-16055874D02*
X3765135Y-16103493D01*
X3765135Y-16103493D02*
X3755611Y-16141588D01*
X3755611Y-16141588D02*
X3746087Y-16160636D01*
X3746087Y-16160636D02*
X3736564Y-16170160D01*
X3736564Y-16170160D02*
X3717516Y-16179684D01*
X3717516Y-16179684D02*
X3698468Y-16179684D01*
X3698468Y-16179684D02*
X3679421Y-16170160D01*
X3679421Y-16170160D02*
X3669897Y-16160636D01*
X3669897Y-16160636D02*
X3660373Y-16141588D01*
X3660373Y-16141588D02*
X3650849Y-16103493D01*
X3650849Y-16103493D02*
X3650849Y-16055874D01*
X3650849Y-16055874D02*
X3660373Y-16017779D01*
X3660373Y-16017779D02*
X3669897Y-15998731D01*
X3669897Y-15998731D02*
X3679421Y-15989208D01*
X3679421Y-15989208D02*
X3698468Y-15979684D01*
X3955611Y-16179684D02*
X3841326Y-16179684D01*
X3898468Y-16179684D02*
X3898468Y-15979684D01*
X3898468Y-15979684D02*
X3879421Y-16008255D01*
X3879421Y-16008255D02*
X3860373Y-16027303D01*
X3860373Y-16027303D02*
X3841326Y-16036827D01*
X4136564Y-15979684D02*
X4041326Y-15979684D01*
X4041326Y-15979684D02*
X4031802Y-16074922D01*
X4031802Y-16074922D02*
X4041326Y-16065398D01*
X4041326Y-16065398D02*
X4060373Y-16055874D01*
X4060373Y-16055874D02*
X4107992Y-16055874D01*
X4107992Y-16055874D02*
X4127040Y-16065398D01*
X4127040Y-16065398D02*
X4136564Y-16074922D01*
X4136564Y-16074922D02*
X4146087Y-16093969D01*
X4146087Y-16093969D02*
X4146087Y-16141588D01*
X4146087Y-16141588D02*
X4136564Y-16160636D01*
X4136564Y-16160636D02*
X4127040Y-16170160D01*
X4127040Y-16170160D02*
X4107992Y-16179684D01*
X4107992Y-16179684D02*
X4060373Y-16179684D01*
X4060373Y-16179684D02*
X4041326Y-16170160D01*
X4041326Y-16170160D02*
X4031802Y-16160636D01*
X4212754Y-15979684D02*
X4346088Y-15979684D01*
X4346088Y-15979684D02*
X4260373Y-16179684D01*
X4412754Y-15979684D02*
X4412754Y-16017779D01*
X4488945Y-15979684D02*
X4488945Y-16017779D01*
X4784183Y-16255874D02*
X4774659Y-16246350D01*
X4774659Y-16246350D02*
X4755611Y-16217779D01*
X4755611Y-16217779D02*
X4746088Y-16198731D01*
X4746088Y-16198731D02*
X4736564Y-16170160D01*
X4736564Y-16170160D02*
X4727040Y-16122541D01*
X4727040Y-16122541D02*
X4727040Y-16084446D01*
X4727040Y-16084446D02*
X4736564Y-16036827D01*
X4736564Y-16036827D02*
X4746088Y-16008255D01*
X4746088Y-16008255D02*
X4755611Y-15989208D01*
X4755611Y-15989208D02*
X4774659Y-15960636D01*
X4774659Y-15960636D02*
X4784183Y-15951112D01*
X4946088Y-16046350D02*
X4946088Y-16179684D01*
X4898469Y-15970160D02*
X4850850Y-16113017D01*
X4850850Y-16113017D02*
X4974659Y-16113017D01*
X5031802Y-15979684D02*
X5155611Y-15979684D01*
X5155611Y-15979684D02*
X5088945Y-16055874D01*
X5088945Y-16055874D02*
X5117516Y-16055874D01*
X5117516Y-16055874D02*
X5136564Y-16065398D01*
X5136564Y-16065398D02*
X5146088Y-16074922D01*
X5146088Y-16074922D02*
X5155611Y-16093969D01*
X5155611Y-16093969D02*
X5155611Y-16141588D01*
X5155611Y-16141588D02*
X5146088Y-16160636D01*
X5146088Y-16160636D02*
X5136564Y-16170160D01*
X5136564Y-16170160D02*
X5117516Y-16179684D01*
X5117516Y-16179684D02*
X5060373Y-16179684D01*
X5060373Y-16179684D02*
X5041326Y-16170160D01*
X5041326Y-16170160D02*
X5031802Y-16160636D01*
X5393707Y-16179684D02*
X5393707Y-15979684D01*
X5479421Y-16179684D02*
X5479421Y-16074922D01*
X5479421Y-16074922D02*
X5469897Y-16055874D01*
X5469897Y-16055874D02*
X5450850Y-16046350D01*
X5450850Y-16046350D02*
X5422278Y-16046350D01*
X5422278Y-16046350D02*
X5403231Y-16055874D01*
X5403231Y-16055874D02*
X5393707Y-16065398D01*
X5603230Y-16179684D02*
X5584183Y-16170160D01*
X5584183Y-16170160D02*
X5574659Y-16160636D01*
X5574659Y-16160636D02*
X5565135Y-16141588D01*
X5565135Y-16141588D02*
X5565135Y-16084446D01*
X5565135Y-16084446D02*
X5574659Y-16065398D01*
X5574659Y-16065398D02*
X5584183Y-16055874D01*
X5584183Y-16055874D02*
X5603230Y-16046350D01*
X5603230Y-16046350D02*
X5631802Y-16046350D01*
X5631802Y-16046350D02*
X5650850Y-16055874D01*
X5650850Y-16055874D02*
X5660373Y-16065398D01*
X5660373Y-16065398D02*
X5669897Y-16084446D01*
X5669897Y-16084446D02*
X5669897Y-16141588D01*
X5669897Y-16141588D02*
X5660373Y-16160636D01*
X5660373Y-16160636D02*
X5650850Y-16170160D01*
X5650850Y-16170160D02*
X5631802Y-16179684D01*
X5631802Y-16179684D02*
X5603230Y-16179684D01*
X5784183Y-16179684D02*
X5765135Y-16170160D01*
X5765135Y-16170160D02*
X5755611Y-16151112D01*
X5755611Y-16151112D02*
X5755611Y-15979684D01*
X5936564Y-16170160D02*
X5917516Y-16179684D01*
X5917516Y-16179684D02*
X5879421Y-16179684D01*
X5879421Y-16179684D02*
X5860373Y-16170160D01*
X5860373Y-16170160D02*
X5850850Y-16151112D01*
X5850850Y-16151112D02*
X5850850Y-16074922D01*
X5850850Y-16074922D02*
X5860373Y-16055874D01*
X5860373Y-16055874D02*
X5879421Y-16046350D01*
X5879421Y-16046350D02*
X5917516Y-16046350D01*
X5917516Y-16046350D02*
X5936564Y-16055874D01*
X5936564Y-16055874D02*
X5946088Y-16074922D01*
X5946088Y-16074922D02*
X5946088Y-16093969D01*
X5946088Y-16093969D02*
X5850850Y-16113017D01*
X6022278Y-16170160D02*
X6041326Y-16179684D01*
X6041326Y-16179684D02*
X6079421Y-16179684D01*
X6079421Y-16179684D02*
X6098469Y-16170160D01*
X6098469Y-16170160D02*
X6107992Y-16151112D01*
X6107992Y-16151112D02*
X6107992Y-16141588D01*
X6107992Y-16141588D02*
X6098469Y-16122541D01*
X6098469Y-16122541D02*
X6079421Y-16113017D01*
X6079421Y-16113017D02*
X6050850Y-16113017D01*
X6050850Y-16113017D02*
X6031802Y-16103493D01*
X6031802Y-16103493D02*
X6022278Y-16084446D01*
X6022278Y-16084446D02*
X6022278Y-16074922D01*
X6022278Y-16074922D02*
X6031802Y-16055874D01*
X6031802Y-16055874D02*
X6050850Y-16046350D01*
X6050850Y-16046350D02*
X6079421Y-16046350D01*
X6079421Y-16046350D02*
X6098469Y-16055874D01*
X6174659Y-16255874D02*
X6184183Y-16246350D01*
X6184183Y-16246350D02*
X6203231Y-16217779D01*
X6203231Y-16217779D02*
X6212754Y-16198731D01*
X6212754Y-16198731D02*
X6222278Y-16170160D01*
X6222278Y-16170160D02*
X6231802Y-16122541D01*
X6231802Y-16122541D02*
X6231802Y-16084446D01*
X6231802Y-16084446D02*
X6222278Y-16036827D01*
X6222278Y-16036827D02*
X6212754Y-16008255D01*
X6212754Y-16008255D02*
X6203231Y-15989208D01*
X6203231Y-15989208D02*
X6184183Y-15960636D01*
X6184183Y-15960636D02*
X6174659Y-15951112D01*
D10*
X1209120Y-16352200D02*
G75*
G02*
X1129120Y-16352200I-40000J0D01*
G01*
X1129120Y-16352200D02*
G75*
G02*
X1209120Y-16352200I40000J0D01*
G01*
D11*
X1507992Y-16243684D02*
X1527040Y-16243684D01*
X1527040Y-16243684D02*
X1546087Y-16253208D01*
X1546087Y-16253208D02*
X1555611Y-16262731D01*
X1555611Y-16262731D02*
X1565135Y-16281779D01*
X1565135Y-16281779D02*
X1574659Y-16319874D01*
X1574659Y-16319874D02*
X1574659Y-16367493D01*
X1574659Y-16367493D02*
X1565135Y-16405588D01*
X1565135Y-16405588D02*
X1555611Y-16424636D01*
X1555611Y-16424636D02*
X1546087Y-16434160D01*
X1546087Y-16434160D02*
X1527040Y-16443684D01*
X1527040Y-16443684D02*
X1507992Y-16443684D01*
X1507992Y-16443684D02*
X1488944Y-16434160D01*
X1488944Y-16434160D02*
X1479421Y-16424636D01*
X1479421Y-16424636D02*
X1469897Y-16405588D01*
X1469897Y-16405588D02*
X1460373Y-16367493D01*
X1460373Y-16367493D02*
X1460373Y-16319874D01*
X1460373Y-16319874D02*
X1469897Y-16281779D01*
X1469897Y-16281779D02*
X1479421Y-16262731D01*
X1479421Y-16262731D02*
X1488944Y-16253208D01*
X1488944Y-16253208D02*
X1507992Y-16243684D01*
X1660373Y-16424636D02*
X1669897Y-16434160D01*
X1669897Y-16434160D02*
X1660373Y-16443684D01*
X1660373Y-16443684D02*
X1650849Y-16434160D01*
X1650849Y-16434160D02*
X1660373Y-16424636D01*
X1660373Y-16424636D02*
X1660373Y-16443684D01*
X1784182Y-16329398D02*
X1765135Y-16319874D01*
X1765135Y-16319874D02*
X1755611Y-16310350D01*
X1755611Y-16310350D02*
X1746087Y-16291303D01*
X1746087Y-16291303D02*
X1746087Y-16281779D01*
X1746087Y-16281779D02*
X1755611Y-16262731D01*
X1755611Y-16262731D02*
X1765135Y-16253208D01*
X1765135Y-16253208D02*
X1784182Y-16243684D01*
X1784182Y-16243684D02*
X1822278Y-16243684D01*
X1822278Y-16243684D02*
X1841325Y-16253208D01*
X1841325Y-16253208D02*
X1850849Y-16262731D01*
X1850849Y-16262731D02*
X1860373Y-16281779D01*
X1860373Y-16281779D02*
X1860373Y-16291303D01*
X1860373Y-16291303D02*
X1850849Y-16310350D01*
X1850849Y-16310350D02*
X1841325Y-16319874D01*
X1841325Y-16319874D02*
X1822278Y-16329398D01*
X1822278Y-16329398D02*
X1784182Y-16329398D01*
X1784182Y-16329398D02*
X1765135Y-16338922D01*
X1765135Y-16338922D02*
X1755611Y-16348446D01*
X1755611Y-16348446D02*
X1746087Y-16367493D01*
X1746087Y-16367493D02*
X1746087Y-16405588D01*
X1746087Y-16405588D02*
X1755611Y-16424636D01*
X1755611Y-16424636D02*
X1765135Y-16434160D01*
X1765135Y-16434160D02*
X1784182Y-16443684D01*
X1784182Y-16443684D02*
X1822278Y-16443684D01*
X1822278Y-16443684D02*
X1841325Y-16434160D01*
X1841325Y-16434160D02*
X1850849Y-16424636D01*
X1850849Y-16424636D02*
X1860373Y-16405588D01*
X1860373Y-16405588D02*
X1860373Y-16367493D01*
X1860373Y-16367493D02*
X1850849Y-16348446D01*
X1850849Y-16348446D02*
X1841325Y-16338922D01*
X1841325Y-16338922D02*
X1822278Y-16329398D01*
X1984182Y-16243684D02*
X2003230Y-16243684D01*
X2003230Y-16243684D02*
X2022278Y-16253208D01*
X2022278Y-16253208D02*
X2031802Y-16262731D01*
X2031802Y-16262731D02*
X2041325Y-16281779D01*
X2041325Y-16281779D02*
X2050849Y-16319874D01*
X2050849Y-16319874D02*
X2050849Y-16367493D01*
X2050849Y-16367493D02*
X2041325Y-16405588D01*
X2041325Y-16405588D02*
X2031802Y-16424636D01*
X2031802Y-16424636D02*
X2022278Y-16434160D01*
X2022278Y-16434160D02*
X2003230Y-16443684D01*
X2003230Y-16443684D02*
X1984182Y-16443684D01*
X1984182Y-16443684D02*
X1965135Y-16434160D01*
X1965135Y-16434160D02*
X1955611Y-16424636D01*
X1955611Y-16424636D02*
X1946087Y-16405588D01*
X1946087Y-16405588D02*
X1936563Y-16367493D01*
X1936563Y-16367493D02*
X1936563Y-16319874D01*
X1936563Y-16319874D02*
X1946087Y-16281779D01*
X1946087Y-16281779D02*
X1955611Y-16262731D01*
X1955611Y-16262731D02*
X1965135Y-16253208D01*
X1965135Y-16253208D02*
X1984182Y-16243684D01*
X2174659Y-16243684D02*
X2193706Y-16243684D01*
X2193706Y-16243684D02*
X2212754Y-16253208D01*
X2212754Y-16253208D02*
X2222278Y-16262731D01*
X2222278Y-16262731D02*
X2231802Y-16281779D01*
X2231802Y-16281779D02*
X2241325Y-16319874D01*
X2241325Y-16319874D02*
X2241325Y-16367493D01*
X2241325Y-16367493D02*
X2231802Y-16405588D01*
X2231802Y-16405588D02*
X2222278Y-16424636D01*
X2222278Y-16424636D02*
X2212754Y-16434160D01*
X2212754Y-16434160D02*
X2193706Y-16443684D01*
X2193706Y-16443684D02*
X2174659Y-16443684D01*
X2174659Y-16443684D02*
X2155611Y-16434160D01*
X2155611Y-16434160D02*
X2146087Y-16424636D01*
X2146087Y-16424636D02*
X2136564Y-16405588D01*
X2136564Y-16405588D02*
X2127040Y-16367493D01*
X2127040Y-16367493D02*
X2127040Y-16319874D01*
X2127040Y-16319874D02*
X2136564Y-16281779D01*
X2136564Y-16281779D02*
X2146087Y-16262731D01*
X2146087Y-16262731D02*
X2155611Y-16253208D01*
X2155611Y-16253208D02*
X2174659Y-16243684D01*
X2327040Y-16443684D02*
X2327040Y-16310350D01*
X2327040Y-16329398D02*
X2336564Y-16319874D01*
X2336564Y-16319874D02*
X2355611Y-16310350D01*
X2355611Y-16310350D02*
X2384183Y-16310350D01*
X2384183Y-16310350D02*
X2403230Y-16319874D01*
X2403230Y-16319874D02*
X2412754Y-16338922D01*
X2412754Y-16338922D02*
X2412754Y-16443684D01*
X2412754Y-16338922D02*
X2422278Y-16319874D01*
X2422278Y-16319874D02*
X2441325Y-16310350D01*
X2441325Y-16310350D02*
X2469897Y-16310350D01*
X2469897Y-16310350D02*
X2488945Y-16319874D01*
X2488945Y-16319874D02*
X2498468Y-16338922D01*
X2498468Y-16338922D02*
X2498468Y-16443684D01*
X2593706Y-16443684D02*
X2593706Y-16310350D01*
X2593706Y-16329398D02*
X2603230Y-16319874D01*
X2603230Y-16319874D02*
X2622278Y-16310350D01*
X2622278Y-16310350D02*
X2650849Y-16310350D01*
X2650849Y-16310350D02*
X2669897Y-16319874D01*
X2669897Y-16319874D02*
X2679421Y-16338922D01*
X2679421Y-16338922D02*
X2679421Y-16443684D01*
X2679421Y-16338922D02*
X2688945Y-16319874D01*
X2688945Y-16319874D02*
X2707992Y-16310350D01*
X2707992Y-16310350D02*
X2736564Y-16310350D01*
X2736564Y-16310350D02*
X2755611Y-16319874D01*
X2755611Y-16319874D02*
X2765135Y-16338922D01*
X2765135Y-16338922D02*
X2765135Y-16443684D01*
X3155611Y-16234160D02*
X2984183Y-16491303D01*
X3412754Y-16243684D02*
X3431802Y-16243684D01*
X3431802Y-16243684D02*
X3450849Y-16253208D01*
X3450849Y-16253208D02*
X3460373Y-16262731D01*
X3460373Y-16262731D02*
X3469897Y-16281779D01*
X3469897Y-16281779D02*
X3479421Y-16319874D01*
X3479421Y-16319874D02*
X3479421Y-16367493D01*
X3479421Y-16367493D02*
X3469897Y-16405588D01*
X3469897Y-16405588D02*
X3460373Y-16424636D01*
X3460373Y-16424636D02*
X3450849Y-16434160D01*
X3450849Y-16434160D02*
X3431802Y-16443684D01*
X3431802Y-16443684D02*
X3412754Y-16443684D01*
X3412754Y-16443684D02*
X3393706Y-16434160D01*
X3393706Y-16434160D02*
X3384183Y-16424636D01*
X3384183Y-16424636D02*
X3374659Y-16405588D01*
X3374659Y-16405588D02*
X3365135Y-16367493D01*
X3365135Y-16367493D02*
X3365135Y-16319874D01*
X3365135Y-16319874D02*
X3374659Y-16281779D01*
X3374659Y-16281779D02*
X3384183Y-16262731D01*
X3384183Y-16262731D02*
X3393706Y-16253208D01*
X3393706Y-16253208D02*
X3412754Y-16243684D01*
X3565135Y-16424636D02*
X3574659Y-16434160D01*
X3574659Y-16434160D02*
X3565135Y-16443684D01*
X3565135Y-16443684D02*
X3555611Y-16434160D01*
X3555611Y-16434160D02*
X3565135Y-16424636D01*
X3565135Y-16424636D02*
X3565135Y-16443684D01*
X3698468Y-16243684D02*
X3717516Y-16243684D01*
X3717516Y-16243684D02*
X3736564Y-16253208D01*
X3736564Y-16253208D02*
X3746087Y-16262731D01*
X3746087Y-16262731D02*
X3755611Y-16281779D01*
X3755611Y-16281779D02*
X3765135Y-16319874D01*
X3765135Y-16319874D02*
X3765135Y-16367493D01*
X3765135Y-16367493D02*
X3755611Y-16405588D01*
X3755611Y-16405588D02*
X3746087Y-16424636D01*
X3746087Y-16424636D02*
X3736564Y-16434160D01*
X3736564Y-16434160D02*
X3717516Y-16443684D01*
X3717516Y-16443684D02*
X3698468Y-16443684D01*
X3698468Y-16443684D02*
X3679421Y-16434160D01*
X3679421Y-16434160D02*
X3669897Y-16424636D01*
X3669897Y-16424636D02*
X3660373Y-16405588D01*
X3660373Y-16405588D02*
X3650849Y-16367493D01*
X3650849Y-16367493D02*
X3650849Y-16319874D01*
X3650849Y-16319874D02*
X3660373Y-16281779D01*
X3660373Y-16281779D02*
X3669897Y-16262731D01*
X3669897Y-16262731D02*
X3679421Y-16253208D01*
X3679421Y-16253208D02*
X3698468Y-16243684D01*
X3831802Y-16243684D02*
X3955611Y-16243684D01*
X3955611Y-16243684D02*
X3888945Y-16319874D01*
X3888945Y-16319874D02*
X3917516Y-16319874D01*
X3917516Y-16319874D02*
X3936564Y-16329398D01*
X3936564Y-16329398D02*
X3946087Y-16338922D01*
X3946087Y-16338922D02*
X3955611Y-16357969D01*
X3955611Y-16357969D02*
X3955611Y-16405588D01*
X3955611Y-16405588D02*
X3946087Y-16424636D01*
X3946087Y-16424636D02*
X3936564Y-16434160D01*
X3936564Y-16434160D02*
X3917516Y-16443684D01*
X3917516Y-16443684D02*
X3860373Y-16443684D01*
X3860373Y-16443684D02*
X3841326Y-16434160D01*
X3841326Y-16434160D02*
X3831802Y-16424636D01*
X4146087Y-16443684D02*
X4031802Y-16443684D01*
X4088945Y-16443684D02*
X4088945Y-16243684D01*
X4088945Y-16243684D02*
X4069897Y-16272255D01*
X4069897Y-16272255D02*
X4050849Y-16291303D01*
X4050849Y-16291303D02*
X4031802Y-16300827D01*
X4327040Y-16243684D02*
X4231802Y-16243684D01*
X4231802Y-16243684D02*
X4222278Y-16338922D01*
X4222278Y-16338922D02*
X4231802Y-16329398D01*
X4231802Y-16329398D02*
X4250849Y-16319874D01*
X4250849Y-16319874D02*
X4298469Y-16319874D01*
X4298469Y-16319874D02*
X4317516Y-16329398D01*
X4317516Y-16329398D02*
X4327040Y-16338922D01*
X4327040Y-16338922D02*
X4336564Y-16357969D01*
X4336564Y-16357969D02*
X4336564Y-16405588D01*
X4336564Y-16405588D02*
X4327040Y-16424636D01*
X4327040Y-16424636D02*
X4317516Y-16434160D01*
X4317516Y-16434160D02*
X4298469Y-16443684D01*
X4298469Y-16443684D02*
X4250849Y-16443684D01*
X4250849Y-16443684D02*
X4231802Y-16434160D01*
X4231802Y-16434160D02*
X4222278Y-16424636D01*
X4412754Y-16243684D02*
X4412754Y-16281779D01*
X4488945Y-16243684D02*
X4488945Y-16281779D01*
X4784183Y-16519874D02*
X4774659Y-16510350D01*
X4774659Y-16510350D02*
X4755611Y-16481779D01*
X4755611Y-16481779D02*
X4746088Y-16462731D01*
X4746088Y-16462731D02*
X4736564Y-16434160D01*
X4736564Y-16434160D02*
X4727040Y-16386541D01*
X4727040Y-16386541D02*
X4727040Y-16348446D01*
X4727040Y-16348446D02*
X4736564Y-16300827D01*
X4736564Y-16300827D02*
X4746088Y-16272255D01*
X4746088Y-16272255D02*
X4755611Y-16253208D01*
X4755611Y-16253208D02*
X4774659Y-16224636D01*
X4774659Y-16224636D02*
X4784183Y-16215112D01*
X4850850Y-16262731D02*
X4860373Y-16253208D01*
X4860373Y-16253208D02*
X4879421Y-16243684D01*
X4879421Y-16243684D02*
X4927040Y-16243684D01*
X4927040Y-16243684D02*
X4946088Y-16253208D01*
X4946088Y-16253208D02*
X4955611Y-16262731D01*
X4955611Y-16262731D02*
X4965135Y-16281779D01*
X4965135Y-16281779D02*
X4965135Y-16300827D01*
X4965135Y-16300827D02*
X4955611Y-16329398D01*
X4955611Y-16329398D02*
X4841326Y-16443684D01*
X4841326Y-16443684D02*
X4965135Y-16443684D01*
X5060373Y-16443684D02*
X5098469Y-16443684D01*
X5098469Y-16443684D02*
X5117516Y-16434160D01*
X5117516Y-16434160D02*
X5127040Y-16424636D01*
X5127040Y-16424636D02*
X5146088Y-16396065D01*
X5146088Y-16396065D02*
X5155611Y-16357969D01*
X5155611Y-16357969D02*
X5155611Y-16281779D01*
X5155611Y-16281779D02*
X5146088Y-16262731D01*
X5146088Y-16262731D02*
X5136564Y-16253208D01*
X5136564Y-16253208D02*
X5117516Y-16243684D01*
X5117516Y-16243684D02*
X5079421Y-16243684D01*
X5079421Y-16243684D02*
X5060373Y-16253208D01*
X5060373Y-16253208D02*
X5050850Y-16262731D01*
X5050850Y-16262731D02*
X5041326Y-16281779D01*
X5041326Y-16281779D02*
X5041326Y-16329398D01*
X5041326Y-16329398D02*
X5050850Y-16348446D01*
X5050850Y-16348446D02*
X5060373Y-16357969D01*
X5060373Y-16357969D02*
X5079421Y-16367493D01*
X5079421Y-16367493D02*
X5117516Y-16367493D01*
X5117516Y-16367493D02*
X5136564Y-16357969D01*
X5136564Y-16357969D02*
X5146088Y-16348446D01*
X5146088Y-16348446D02*
X5155611Y-16329398D01*
X5327040Y-16243684D02*
X5288945Y-16243684D01*
X5288945Y-16243684D02*
X5269897Y-16253208D01*
X5269897Y-16253208D02*
X5260373Y-16262731D01*
X5260373Y-16262731D02*
X5241326Y-16291303D01*
X5241326Y-16291303D02*
X5231802Y-16329398D01*
X5231802Y-16329398D02*
X5231802Y-16405588D01*
X5231802Y-16405588D02*
X5241326Y-16424636D01*
X5241326Y-16424636D02*
X5250850Y-16434160D01*
X5250850Y-16434160D02*
X5269897Y-16443684D01*
X5269897Y-16443684D02*
X5307992Y-16443684D01*
X5307992Y-16443684D02*
X5327040Y-16434160D01*
X5327040Y-16434160D02*
X5336564Y-16424636D01*
X5336564Y-16424636D02*
X5346088Y-16405588D01*
X5346088Y-16405588D02*
X5346088Y-16357969D01*
X5346088Y-16357969D02*
X5336564Y-16338922D01*
X5336564Y-16338922D02*
X5327040Y-16329398D01*
X5327040Y-16329398D02*
X5307992Y-16319874D01*
X5307992Y-16319874D02*
X5269897Y-16319874D01*
X5269897Y-16319874D02*
X5250850Y-16329398D01*
X5250850Y-16329398D02*
X5241326Y-16338922D01*
X5241326Y-16338922D02*
X5231802Y-16357969D01*
X5584183Y-16443684D02*
X5584183Y-16243684D01*
X5669897Y-16443684D02*
X5669897Y-16338922D01*
X5669897Y-16338922D02*
X5660373Y-16319874D01*
X5660373Y-16319874D02*
X5641326Y-16310350D01*
X5641326Y-16310350D02*
X5612754Y-16310350D01*
X5612754Y-16310350D02*
X5593707Y-16319874D01*
X5593707Y-16319874D02*
X5584183Y-16329398D01*
X5793707Y-16443684D02*
X5774659Y-16434160D01*
X5774659Y-16434160D02*
X5765135Y-16424636D01*
X5765135Y-16424636D02*
X5755611Y-16405588D01*
X5755611Y-16405588D02*
X5755611Y-16348446D01*
X5755611Y-16348446D02*
X5765135Y-16329398D01*
X5765135Y-16329398D02*
X5774659Y-16319874D01*
X5774659Y-16319874D02*
X5793707Y-16310350D01*
X5793707Y-16310350D02*
X5822278Y-16310350D01*
X5822278Y-16310350D02*
X5841326Y-16319874D01*
X5841326Y-16319874D02*
X5850850Y-16329398D01*
X5850850Y-16329398D02*
X5860373Y-16348446D01*
X5860373Y-16348446D02*
X5860373Y-16405588D01*
X5860373Y-16405588D02*
X5850850Y-16424636D01*
X5850850Y-16424636D02*
X5841326Y-16434160D01*
X5841326Y-16434160D02*
X5822278Y-16443684D01*
X5822278Y-16443684D02*
X5793707Y-16443684D01*
X5974659Y-16443684D02*
X5955611Y-16434160D01*
X5955611Y-16434160D02*
X5946088Y-16415112D01*
X5946088Y-16415112D02*
X5946088Y-16243684D01*
X6127040Y-16434160D02*
X6107992Y-16443684D01*
X6107992Y-16443684D02*
X6069897Y-16443684D01*
X6069897Y-16443684D02*
X6050850Y-16434160D01*
X6050850Y-16434160D02*
X6041326Y-16415112D01*
X6041326Y-16415112D02*
X6041326Y-16338922D01*
X6041326Y-16338922D02*
X6050850Y-16319874D01*
X6050850Y-16319874D02*
X6069897Y-16310350D01*
X6069897Y-16310350D02*
X6107992Y-16310350D01*
X6107992Y-16310350D02*
X6127040Y-16319874D01*
X6127040Y-16319874D02*
X6136564Y-16338922D01*
X6136564Y-16338922D02*
X6136564Y-16357969D01*
X6136564Y-16357969D02*
X6041326Y-16377017D01*
X6212754Y-16434160D02*
X6231802Y-16443684D01*
X6231802Y-16443684D02*
X6269897Y-16443684D01*
X6269897Y-16443684D02*
X6288945Y-16434160D01*
X6288945Y-16434160D02*
X6298469Y-16415112D01*
X6298469Y-16415112D02*
X6298469Y-16405588D01*
X6298469Y-16405588D02*
X6288945Y-16386541D01*
X6288945Y-16386541D02*
X6269897Y-16377017D01*
X6269897Y-16377017D02*
X6241326Y-16377017D01*
X6241326Y-16377017D02*
X6222278Y-16367493D01*
X6222278Y-16367493D02*
X6212754Y-16348446D01*
X6212754Y-16348446D02*
X6212754Y-16338922D01*
X6212754Y-16338922D02*
X6222278Y-16319874D01*
X6222278Y-16319874D02*
X6241326Y-16310350D01*
X6241326Y-16310350D02*
X6269897Y-16310350D01*
X6269897Y-16310350D02*
X6288945Y-16319874D01*
X6365135Y-16519874D02*
X6374659Y-16510350D01*
X6374659Y-16510350D02*
X6393707Y-16481779D01*
X6393707Y-16481779D02*
X6403231Y-16462731D01*
X6403231Y-16462731D02*
X6412754Y-16434160D01*
X6412754Y-16434160D02*
X6422278Y-16386541D01*
X6422278Y-16386541D02*
X6422278Y-16348446D01*
X6422278Y-16348446D02*
X6412754Y-16300827D01*
X6412754Y-16300827D02*
X6403231Y-16272255D01*
X6403231Y-16272255D02*
X6393707Y-16253208D01*
X6393707Y-16253208D02*
X6374659Y-16224636D01*
X6374659Y-16224636D02*
X6365135Y-16215112D01*
D10*
X1164120Y-16571200D02*
X1164120Y-16661200D01*
X1119120Y-16616200D02*
X1209120Y-16616200D01*
D11*
X1507992Y-16507684D02*
X1527040Y-16507684D01*
X1527040Y-16507684D02*
X1546087Y-16517208D01*
X1546087Y-16517208D02*
X1555611Y-16526731D01*
X1555611Y-16526731D02*
X1565135Y-16545779D01*
X1565135Y-16545779D02*
X1574659Y-16583874D01*
X1574659Y-16583874D02*
X1574659Y-16631493D01*
X1574659Y-16631493D02*
X1565135Y-16669588D01*
X1565135Y-16669588D02*
X1555611Y-16688636D01*
X1555611Y-16688636D02*
X1546087Y-16698160D01*
X1546087Y-16698160D02*
X1527040Y-16707684D01*
X1527040Y-16707684D02*
X1507992Y-16707684D01*
X1507992Y-16707684D02*
X1488944Y-16698160D01*
X1488944Y-16698160D02*
X1479421Y-16688636D01*
X1479421Y-16688636D02*
X1469897Y-16669588D01*
X1469897Y-16669588D02*
X1460373Y-16631493D01*
X1460373Y-16631493D02*
X1460373Y-16583874D01*
X1460373Y-16583874D02*
X1469897Y-16545779D01*
X1469897Y-16545779D02*
X1479421Y-16526731D01*
X1479421Y-16526731D02*
X1488944Y-16517208D01*
X1488944Y-16517208D02*
X1507992Y-16507684D01*
X1660373Y-16688636D02*
X1669897Y-16698160D01*
X1669897Y-16698160D02*
X1660373Y-16707684D01*
X1660373Y-16707684D02*
X1650849Y-16698160D01*
X1650849Y-16698160D02*
X1660373Y-16688636D01*
X1660373Y-16688636D02*
X1660373Y-16707684D01*
X1765135Y-16707684D02*
X1803230Y-16707684D01*
X1803230Y-16707684D02*
X1822278Y-16698160D01*
X1822278Y-16698160D02*
X1831802Y-16688636D01*
X1831802Y-16688636D02*
X1850849Y-16660065D01*
X1850849Y-16660065D02*
X1860373Y-16621969D01*
X1860373Y-16621969D02*
X1860373Y-16545779D01*
X1860373Y-16545779D02*
X1850849Y-16526731D01*
X1850849Y-16526731D02*
X1841325Y-16517208D01*
X1841325Y-16517208D02*
X1822278Y-16507684D01*
X1822278Y-16507684D02*
X1784182Y-16507684D01*
X1784182Y-16507684D02*
X1765135Y-16517208D01*
X1765135Y-16517208D02*
X1755611Y-16526731D01*
X1755611Y-16526731D02*
X1746087Y-16545779D01*
X1746087Y-16545779D02*
X1746087Y-16593398D01*
X1746087Y-16593398D02*
X1755611Y-16612446D01*
X1755611Y-16612446D02*
X1765135Y-16621969D01*
X1765135Y-16621969D02*
X1784182Y-16631493D01*
X1784182Y-16631493D02*
X1822278Y-16631493D01*
X1822278Y-16631493D02*
X1841325Y-16621969D01*
X1841325Y-16621969D02*
X1850849Y-16612446D01*
X1850849Y-16612446D02*
X1860373Y-16593398D01*
X1984182Y-16507684D02*
X2003230Y-16507684D01*
X2003230Y-16507684D02*
X2022278Y-16517208D01*
X2022278Y-16517208D02*
X2031802Y-16526731D01*
X2031802Y-16526731D02*
X2041325Y-16545779D01*
X2041325Y-16545779D02*
X2050849Y-16583874D01*
X2050849Y-16583874D02*
X2050849Y-16631493D01*
X2050849Y-16631493D02*
X2041325Y-16669588D01*
X2041325Y-16669588D02*
X2031802Y-16688636D01*
X2031802Y-16688636D02*
X2022278Y-16698160D01*
X2022278Y-16698160D02*
X2003230Y-16707684D01*
X2003230Y-16707684D02*
X1984182Y-16707684D01*
X1984182Y-16707684D02*
X1965135Y-16698160D01*
X1965135Y-16698160D02*
X1955611Y-16688636D01*
X1955611Y-16688636D02*
X1946087Y-16669588D01*
X1946087Y-16669588D02*
X1936563Y-16631493D01*
X1936563Y-16631493D02*
X1936563Y-16583874D01*
X1936563Y-16583874D02*
X1946087Y-16545779D01*
X1946087Y-16545779D02*
X1955611Y-16526731D01*
X1955611Y-16526731D02*
X1965135Y-16517208D01*
X1965135Y-16517208D02*
X1984182Y-16507684D01*
X2174659Y-16507684D02*
X2193706Y-16507684D01*
X2193706Y-16507684D02*
X2212754Y-16517208D01*
X2212754Y-16517208D02*
X2222278Y-16526731D01*
X2222278Y-16526731D02*
X2231802Y-16545779D01*
X2231802Y-16545779D02*
X2241325Y-16583874D01*
X2241325Y-16583874D02*
X2241325Y-16631493D01*
X2241325Y-16631493D02*
X2231802Y-16669588D01*
X2231802Y-16669588D02*
X2222278Y-16688636D01*
X2222278Y-16688636D02*
X2212754Y-16698160D01*
X2212754Y-16698160D02*
X2193706Y-16707684D01*
X2193706Y-16707684D02*
X2174659Y-16707684D01*
X2174659Y-16707684D02*
X2155611Y-16698160D01*
X2155611Y-16698160D02*
X2146087Y-16688636D01*
X2146087Y-16688636D02*
X2136564Y-16669588D01*
X2136564Y-16669588D02*
X2127040Y-16631493D01*
X2127040Y-16631493D02*
X2127040Y-16583874D01*
X2127040Y-16583874D02*
X2136564Y-16545779D01*
X2136564Y-16545779D02*
X2146087Y-16526731D01*
X2146087Y-16526731D02*
X2155611Y-16517208D01*
X2155611Y-16517208D02*
X2174659Y-16507684D01*
X2327040Y-16707684D02*
X2327040Y-16574350D01*
X2327040Y-16593398D02*
X2336564Y-16583874D01*
X2336564Y-16583874D02*
X2355611Y-16574350D01*
X2355611Y-16574350D02*
X2384183Y-16574350D01*
X2384183Y-16574350D02*
X2403230Y-16583874D01*
X2403230Y-16583874D02*
X2412754Y-16602922D01*
X2412754Y-16602922D02*
X2412754Y-16707684D01*
X2412754Y-16602922D02*
X2422278Y-16583874D01*
X2422278Y-16583874D02*
X2441325Y-16574350D01*
X2441325Y-16574350D02*
X2469897Y-16574350D01*
X2469897Y-16574350D02*
X2488945Y-16583874D01*
X2488945Y-16583874D02*
X2498468Y-16602922D01*
X2498468Y-16602922D02*
X2498468Y-16707684D01*
X2593706Y-16707684D02*
X2593706Y-16574350D01*
X2593706Y-16593398D02*
X2603230Y-16583874D01*
X2603230Y-16583874D02*
X2622278Y-16574350D01*
X2622278Y-16574350D02*
X2650849Y-16574350D01*
X2650849Y-16574350D02*
X2669897Y-16583874D01*
X2669897Y-16583874D02*
X2679421Y-16602922D01*
X2679421Y-16602922D02*
X2679421Y-16707684D01*
X2679421Y-16602922D02*
X2688945Y-16583874D01*
X2688945Y-16583874D02*
X2707992Y-16574350D01*
X2707992Y-16574350D02*
X2736564Y-16574350D01*
X2736564Y-16574350D02*
X2755611Y-16583874D01*
X2755611Y-16583874D02*
X2765135Y-16602922D01*
X2765135Y-16602922D02*
X2765135Y-16707684D01*
X3155611Y-16498160D02*
X2984183Y-16755303D01*
X3412754Y-16507684D02*
X3431802Y-16507684D01*
X3431802Y-16507684D02*
X3450849Y-16517208D01*
X3450849Y-16517208D02*
X3460373Y-16526731D01*
X3460373Y-16526731D02*
X3469897Y-16545779D01*
X3469897Y-16545779D02*
X3479421Y-16583874D01*
X3479421Y-16583874D02*
X3479421Y-16631493D01*
X3479421Y-16631493D02*
X3469897Y-16669588D01*
X3469897Y-16669588D02*
X3460373Y-16688636D01*
X3460373Y-16688636D02*
X3450849Y-16698160D01*
X3450849Y-16698160D02*
X3431802Y-16707684D01*
X3431802Y-16707684D02*
X3412754Y-16707684D01*
X3412754Y-16707684D02*
X3393706Y-16698160D01*
X3393706Y-16698160D02*
X3384183Y-16688636D01*
X3384183Y-16688636D02*
X3374659Y-16669588D01*
X3374659Y-16669588D02*
X3365135Y-16631493D01*
X3365135Y-16631493D02*
X3365135Y-16583874D01*
X3365135Y-16583874D02*
X3374659Y-16545779D01*
X3374659Y-16545779D02*
X3384183Y-16526731D01*
X3384183Y-16526731D02*
X3393706Y-16517208D01*
X3393706Y-16517208D02*
X3412754Y-16507684D01*
X3565135Y-16688636D02*
X3574659Y-16698160D01*
X3574659Y-16698160D02*
X3565135Y-16707684D01*
X3565135Y-16707684D02*
X3555611Y-16698160D01*
X3555611Y-16698160D02*
X3565135Y-16688636D01*
X3565135Y-16688636D02*
X3565135Y-16707684D01*
X3698468Y-16507684D02*
X3717516Y-16507684D01*
X3717516Y-16507684D02*
X3736564Y-16517208D01*
X3736564Y-16517208D02*
X3746087Y-16526731D01*
X3746087Y-16526731D02*
X3755611Y-16545779D01*
X3755611Y-16545779D02*
X3765135Y-16583874D01*
X3765135Y-16583874D02*
X3765135Y-16631493D01*
X3765135Y-16631493D02*
X3755611Y-16669588D01*
X3755611Y-16669588D02*
X3746087Y-16688636D01*
X3746087Y-16688636D02*
X3736564Y-16698160D01*
X3736564Y-16698160D02*
X3717516Y-16707684D01*
X3717516Y-16707684D02*
X3698468Y-16707684D01*
X3698468Y-16707684D02*
X3679421Y-16698160D01*
X3679421Y-16698160D02*
X3669897Y-16688636D01*
X3669897Y-16688636D02*
X3660373Y-16669588D01*
X3660373Y-16669588D02*
X3650849Y-16631493D01*
X3650849Y-16631493D02*
X3650849Y-16583874D01*
X3650849Y-16583874D02*
X3660373Y-16545779D01*
X3660373Y-16545779D02*
X3669897Y-16526731D01*
X3669897Y-16526731D02*
X3679421Y-16517208D01*
X3679421Y-16517208D02*
X3698468Y-16507684D01*
X3831802Y-16507684D02*
X3955611Y-16507684D01*
X3955611Y-16507684D02*
X3888945Y-16583874D01*
X3888945Y-16583874D02*
X3917516Y-16583874D01*
X3917516Y-16583874D02*
X3936564Y-16593398D01*
X3936564Y-16593398D02*
X3946087Y-16602922D01*
X3946087Y-16602922D02*
X3955611Y-16621969D01*
X3955611Y-16621969D02*
X3955611Y-16669588D01*
X3955611Y-16669588D02*
X3946087Y-16688636D01*
X3946087Y-16688636D02*
X3936564Y-16698160D01*
X3936564Y-16698160D02*
X3917516Y-16707684D01*
X3917516Y-16707684D02*
X3860373Y-16707684D01*
X3860373Y-16707684D02*
X3841326Y-16698160D01*
X3841326Y-16698160D02*
X3831802Y-16688636D01*
X4136564Y-16507684D02*
X4041326Y-16507684D01*
X4041326Y-16507684D02*
X4031802Y-16602922D01*
X4031802Y-16602922D02*
X4041326Y-16593398D01*
X4041326Y-16593398D02*
X4060373Y-16583874D01*
X4060373Y-16583874D02*
X4107992Y-16583874D01*
X4107992Y-16583874D02*
X4127040Y-16593398D01*
X4127040Y-16593398D02*
X4136564Y-16602922D01*
X4136564Y-16602922D02*
X4146087Y-16621969D01*
X4146087Y-16621969D02*
X4146087Y-16669588D01*
X4146087Y-16669588D02*
X4136564Y-16688636D01*
X4136564Y-16688636D02*
X4127040Y-16698160D01*
X4127040Y-16698160D02*
X4107992Y-16707684D01*
X4107992Y-16707684D02*
X4060373Y-16707684D01*
X4060373Y-16707684D02*
X4041326Y-16698160D01*
X4041326Y-16698160D02*
X4031802Y-16688636D01*
X4317516Y-16574350D02*
X4317516Y-16707684D01*
X4269897Y-16498160D02*
X4222278Y-16641017D01*
X4222278Y-16641017D02*
X4346088Y-16641017D01*
X4412754Y-16507684D02*
X4412754Y-16545779D01*
X4488945Y-16507684D02*
X4488945Y-16545779D01*
X4784183Y-16783874D02*
X4774659Y-16774350D01*
X4774659Y-16774350D02*
X4755611Y-16745779D01*
X4755611Y-16745779D02*
X4746088Y-16726731D01*
X4746088Y-16726731D02*
X4736564Y-16698160D01*
X4736564Y-16698160D02*
X4727040Y-16650541D01*
X4727040Y-16650541D02*
X4727040Y-16612446D01*
X4727040Y-16612446D02*
X4736564Y-16564827D01*
X4736564Y-16564827D02*
X4746088Y-16536255D01*
X4746088Y-16536255D02*
X4755611Y-16517208D01*
X4755611Y-16517208D02*
X4774659Y-16488636D01*
X4774659Y-16488636D02*
X4784183Y-16479112D01*
X4946088Y-16507684D02*
X4907992Y-16507684D01*
X4907992Y-16507684D02*
X4888945Y-16517208D01*
X4888945Y-16517208D02*
X4879421Y-16526731D01*
X4879421Y-16526731D02*
X4860373Y-16555303D01*
X4860373Y-16555303D02*
X4850850Y-16593398D01*
X4850850Y-16593398D02*
X4850850Y-16669588D01*
X4850850Y-16669588D02*
X4860373Y-16688636D01*
X4860373Y-16688636D02*
X4869897Y-16698160D01*
X4869897Y-16698160D02*
X4888945Y-16707684D01*
X4888945Y-16707684D02*
X4927040Y-16707684D01*
X4927040Y-16707684D02*
X4946088Y-16698160D01*
X4946088Y-16698160D02*
X4955611Y-16688636D01*
X4955611Y-16688636D02*
X4965135Y-16669588D01*
X4965135Y-16669588D02*
X4965135Y-16621969D01*
X4965135Y-16621969D02*
X4955611Y-16602922D01*
X4955611Y-16602922D02*
X4946088Y-16593398D01*
X4946088Y-16593398D02*
X4927040Y-16583874D01*
X4927040Y-16583874D02*
X4888945Y-16583874D01*
X4888945Y-16583874D02*
X4869897Y-16593398D01*
X4869897Y-16593398D02*
X4860373Y-16602922D01*
X4860373Y-16602922D02*
X4850850Y-16621969D01*
X5041326Y-16526731D02*
X5050850Y-16517208D01*
X5050850Y-16517208D02*
X5069897Y-16507684D01*
X5069897Y-16507684D02*
X5117516Y-16507684D01*
X5117516Y-16507684D02*
X5136564Y-16517208D01*
X5136564Y-16517208D02*
X5146088Y-16526731D01*
X5146088Y-16526731D02*
X5155611Y-16545779D01*
X5155611Y-16545779D02*
X5155611Y-16564827D01*
X5155611Y-16564827D02*
X5146088Y-16593398D01*
X5146088Y-16593398D02*
X5031802Y-16707684D01*
X5031802Y-16707684D02*
X5155611Y-16707684D01*
X5393707Y-16707684D02*
X5393707Y-16507684D01*
X5479421Y-16707684D02*
X5479421Y-16602922D01*
X5479421Y-16602922D02*
X5469897Y-16583874D01*
X5469897Y-16583874D02*
X5450850Y-16574350D01*
X5450850Y-16574350D02*
X5422278Y-16574350D01*
X5422278Y-16574350D02*
X5403231Y-16583874D01*
X5403231Y-16583874D02*
X5393707Y-16593398D01*
X5603230Y-16707684D02*
X5584183Y-16698160D01*
X5584183Y-16698160D02*
X5574659Y-16688636D01*
X5574659Y-16688636D02*
X5565135Y-16669588D01*
X5565135Y-16669588D02*
X5565135Y-16612446D01*
X5565135Y-16612446D02*
X5574659Y-16593398D01*
X5574659Y-16593398D02*
X5584183Y-16583874D01*
X5584183Y-16583874D02*
X5603230Y-16574350D01*
X5603230Y-16574350D02*
X5631802Y-16574350D01*
X5631802Y-16574350D02*
X5650850Y-16583874D01*
X5650850Y-16583874D02*
X5660373Y-16593398D01*
X5660373Y-16593398D02*
X5669897Y-16612446D01*
X5669897Y-16612446D02*
X5669897Y-16669588D01*
X5669897Y-16669588D02*
X5660373Y-16688636D01*
X5660373Y-16688636D02*
X5650850Y-16698160D01*
X5650850Y-16698160D02*
X5631802Y-16707684D01*
X5631802Y-16707684D02*
X5603230Y-16707684D01*
X5784183Y-16707684D02*
X5765135Y-16698160D01*
X5765135Y-16698160D02*
X5755611Y-16679112D01*
X5755611Y-16679112D02*
X5755611Y-16507684D01*
X5936564Y-16698160D02*
X5917516Y-16707684D01*
X5917516Y-16707684D02*
X5879421Y-16707684D01*
X5879421Y-16707684D02*
X5860373Y-16698160D01*
X5860373Y-16698160D02*
X5850850Y-16679112D01*
X5850850Y-16679112D02*
X5850850Y-16602922D01*
X5850850Y-16602922D02*
X5860373Y-16583874D01*
X5860373Y-16583874D02*
X5879421Y-16574350D01*
X5879421Y-16574350D02*
X5917516Y-16574350D01*
X5917516Y-16574350D02*
X5936564Y-16583874D01*
X5936564Y-16583874D02*
X5946088Y-16602922D01*
X5946088Y-16602922D02*
X5946088Y-16621969D01*
X5946088Y-16621969D02*
X5850850Y-16641017D01*
X6022278Y-16698160D02*
X6041326Y-16707684D01*
X6041326Y-16707684D02*
X6079421Y-16707684D01*
X6079421Y-16707684D02*
X6098469Y-16698160D01*
X6098469Y-16698160D02*
X6107992Y-16679112D01*
X6107992Y-16679112D02*
X6107992Y-16669588D01*
X6107992Y-16669588D02*
X6098469Y-16650541D01*
X6098469Y-16650541D02*
X6079421Y-16641017D01*
X6079421Y-16641017D02*
X6050850Y-16641017D01*
X6050850Y-16641017D02*
X6031802Y-16631493D01*
X6031802Y-16631493D02*
X6022278Y-16612446D01*
X6022278Y-16612446D02*
X6022278Y-16602922D01*
X6022278Y-16602922D02*
X6031802Y-16583874D01*
X6031802Y-16583874D02*
X6050850Y-16574350D01*
X6050850Y-16574350D02*
X6079421Y-16574350D01*
X6079421Y-16574350D02*
X6098469Y-16583874D01*
X6174659Y-16783874D02*
X6184183Y-16774350D01*
X6184183Y-16774350D02*
X6203231Y-16745779D01*
X6203231Y-16745779D02*
X6212754Y-16726731D01*
X6212754Y-16726731D02*
X6222278Y-16698160D01*
X6222278Y-16698160D02*
X6231802Y-16650541D01*
X6231802Y-16650541D02*
X6231802Y-16612446D01*
X6231802Y-16612446D02*
X6222278Y-16564827D01*
X6222278Y-16564827D02*
X6212754Y-16536255D01*
X6212754Y-16536255D02*
X6203231Y-16517208D01*
X6203231Y-16517208D02*
X6184183Y-16488636D01*
X6184183Y-16488636D02*
X6174659Y-16479112D01*
D10*
X1194476Y-16915556D02*
X1194476Y-16844844D01*
X1123764Y-16844844D01*
X1123764Y-16915556D01*
X1194476Y-16915556D01*
D11*
X1574659Y-16971684D02*
X1460373Y-16971684D01*
X1517516Y-16971684D02*
X1517516Y-16771684D01*
X1517516Y-16771684D02*
X1498468Y-16800255D01*
X1498468Y-16800255D02*
X1479421Y-16819303D01*
X1479421Y-16819303D02*
X1460373Y-16828827D01*
X1660373Y-16952636D02*
X1669897Y-16962160D01*
X1669897Y-16962160D02*
X1660373Y-16971684D01*
X1660373Y-16971684D02*
X1650849Y-16962160D01*
X1650849Y-16962160D02*
X1660373Y-16952636D01*
X1660373Y-16952636D02*
X1660373Y-16971684D01*
X1793706Y-16771684D02*
X1812754Y-16771684D01*
X1812754Y-16771684D02*
X1831802Y-16781208D01*
X1831802Y-16781208D02*
X1841325Y-16790731D01*
X1841325Y-16790731D02*
X1850849Y-16809779D01*
X1850849Y-16809779D02*
X1860373Y-16847874D01*
X1860373Y-16847874D02*
X1860373Y-16895493D01*
X1860373Y-16895493D02*
X1850849Y-16933589D01*
X1850849Y-16933589D02*
X1841325Y-16952636D01*
X1841325Y-16952636D02*
X1831802Y-16962160D01*
X1831802Y-16962160D02*
X1812754Y-16971684D01*
X1812754Y-16971684D02*
X1793706Y-16971684D01*
X1793706Y-16971684D02*
X1774659Y-16962160D01*
X1774659Y-16962160D02*
X1765135Y-16952636D01*
X1765135Y-16952636D02*
X1755611Y-16933589D01*
X1755611Y-16933589D02*
X1746087Y-16895493D01*
X1746087Y-16895493D02*
X1746087Y-16847874D01*
X1746087Y-16847874D02*
X1755611Y-16809779D01*
X1755611Y-16809779D02*
X1765135Y-16790731D01*
X1765135Y-16790731D02*
X1774659Y-16781208D01*
X1774659Y-16781208D02*
X1793706Y-16771684D01*
X1984182Y-16771684D02*
X2003230Y-16771684D01*
X2003230Y-16771684D02*
X2022278Y-16781208D01*
X2022278Y-16781208D02*
X2031802Y-16790731D01*
X2031802Y-16790731D02*
X2041325Y-16809779D01*
X2041325Y-16809779D02*
X2050849Y-16847874D01*
X2050849Y-16847874D02*
X2050849Y-16895493D01*
X2050849Y-16895493D02*
X2041325Y-16933589D01*
X2041325Y-16933589D02*
X2031802Y-16952636D01*
X2031802Y-16952636D02*
X2022278Y-16962160D01*
X2022278Y-16962160D02*
X2003230Y-16971684D01*
X2003230Y-16971684D02*
X1984182Y-16971684D01*
X1984182Y-16971684D02*
X1965135Y-16962160D01*
X1965135Y-16962160D02*
X1955611Y-16952636D01*
X1955611Y-16952636D02*
X1946087Y-16933589D01*
X1946087Y-16933589D02*
X1936563Y-16895493D01*
X1936563Y-16895493D02*
X1936563Y-16847874D01*
X1936563Y-16847874D02*
X1946087Y-16809779D01*
X1946087Y-16809779D02*
X1955611Y-16790731D01*
X1955611Y-16790731D02*
X1965135Y-16781208D01*
X1965135Y-16781208D02*
X1984182Y-16771684D01*
X2174659Y-16771684D02*
X2193706Y-16771684D01*
X2193706Y-16771684D02*
X2212754Y-16781208D01*
X2212754Y-16781208D02*
X2222278Y-16790731D01*
X2222278Y-16790731D02*
X2231802Y-16809779D01*
X2231802Y-16809779D02*
X2241325Y-16847874D01*
X2241325Y-16847874D02*
X2241325Y-16895493D01*
X2241325Y-16895493D02*
X2231802Y-16933589D01*
X2231802Y-16933589D02*
X2222278Y-16952636D01*
X2222278Y-16952636D02*
X2212754Y-16962160D01*
X2212754Y-16962160D02*
X2193706Y-16971684D01*
X2193706Y-16971684D02*
X2174659Y-16971684D01*
X2174659Y-16971684D02*
X2155611Y-16962160D01*
X2155611Y-16962160D02*
X2146087Y-16952636D01*
X2146087Y-16952636D02*
X2136564Y-16933589D01*
X2136564Y-16933589D02*
X2127040Y-16895493D01*
X2127040Y-16895493D02*
X2127040Y-16847874D01*
X2127040Y-16847874D02*
X2136564Y-16809779D01*
X2136564Y-16809779D02*
X2146087Y-16790731D01*
X2146087Y-16790731D02*
X2155611Y-16781208D01*
X2155611Y-16781208D02*
X2174659Y-16771684D01*
X2327040Y-16971684D02*
X2327040Y-16838350D01*
X2327040Y-16857398D02*
X2336564Y-16847874D01*
X2336564Y-16847874D02*
X2355611Y-16838350D01*
X2355611Y-16838350D02*
X2384183Y-16838350D01*
X2384183Y-16838350D02*
X2403230Y-16847874D01*
X2403230Y-16847874D02*
X2412754Y-16866922D01*
X2412754Y-16866922D02*
X2412754Y-16971684D01*
X2412754Y-16866922D02*
X2422278Y-16847874D01*
X2422278Y-16847874D02*
X2441325Y-16838350D01*
X2441325Y-16838350D02*
X2469897Y-16838350D01*
X2469897Y-16838350D02*
X2488945Y-16847874D01*
X2488945Y-16847874D02*
X2498468Y-16866922D01*
X2498468Y-16866922D02*
X2498468Y-16971684D01*
X2593706Y-16971684D02*
X2593706Y-16838350D01*
X2593706Y-16857398D02*
X2603230Y-16847874D01*
X2603230Y-16847874D02*
X2622278Y-16838350D01*
X2622278Y-16838350D02*
X2650849Y-16838350D01*
X2650849Y-16838350D02*
X2669897Y-16847874D01*
X2669897Y-16847874D02*
X2679421Y-16866922D01*
X2679421Y-16866922D02*
X2679421Y-16971684D01*
X2679421Y-16866922D02*
X2688945Y-16847874D01*
X2688945Y-16847874D02*
X2707992Y-16838350D01*
X2707992Y-16838350D02*
X2736564Y-16838350D01*
X2736564Y-16838350D02*
X2755611Y-16847874D01*
X2755611Y-16847874D02*
X2765135Y-16866922D01*
X2765135Y-16866922D02*
X2765135Y-16971684D01*
X3155611Y-16762160D02*
X2984183Y-17019303D01*
X3412754Y-16771684D02*
X3431802Y-16771684D01*
X3431802Y-16771684D02*
X3450849Y-16781208D01*
X3450849Y-16781208D02*
X3460373Y-16790731D01*
X3460373Y-16790731D02*
X3469897Y-16809779D01*
X3469897Y-16809779D02*
X3479421Y-16847874D01*
X3479421Y-16847874D02*
X3479421Y-16895493D01*
X3479421Y-16895493D02*
X3469897Y-16933589D01*
X3469897Y-16933589D02*
X3460373Y-16952636D01*
X3460373Y-16952636D02*
X3450849Y-16962160D01*
X3450849Y-16962160D02*
X3431802Y-16971684D01*
X3431802Y-16971684D02*
X3412754Y-16971684D01*
X3412754Y-16971684D02*
X3393706Y-16962160D01*
X3393706Y-16962160D02*
X3384183Y-16952636D01*
X3384183Y-16952636D02*
X3374659Y-16933589D01*
X3374659Y-16933589D02*
X3365135Y-16895493D01*
X3365135Y-16895493D02*
X3365135Y-16847874D01*
X3365135Y-16847874D02*
X3374659Y-16809779D01*
X3374659Y-16809779D02*
X3384183Y-16790731D01*
X3384183Y-16790731D02*
X3393706Y-16781208D01*
X3393706Y-16781208D02*
X3412754Y-16771684D01*
X3565135Y-16952636D02*
X3574659Y-16962160D01*
X3574659Y-16962160D02*
X3565135Y-16971684D01*
X3565135Y-16971684D02*
X3555611Y-16962160D01*
X3555611Y-16962160D02*
X3565135Y-16952636D01*
X3565135Y-16952636D02*
X3565135Y-16971684D01*
X3698468Y-16771684D02*
X3717516Y-16771684D01*
X3717516Y-16771684D02*
X3736564Y-16781208D01*
X3736564Y-16781208D02*
X3746087Y-16790731D01*
X3746087Y-16790731D02*
X3755611Y-16809779D01*
X3755611Y-16809779D02*
X3765135Y-16847874D01*
X3765135Y-16847874D02*
X3765135Y-16895493D01*
X3765135Y-16895493D02*
X3755611Y-16933589D01*
X3755611Y-16933589D02*
X3746087Y-16952636D01*
X3746087Y-16952636D02*
X3736564Y-16962160D01*
X3736564Y-16962160D02*
X3717516Y-16971684D01*
X3717516Y-16971684D02*
X3698468Y-16971684D01*
X3698468Y-16971684D02*
X3679421Y-16962160D01*
X3679421Y-16962160D02*
X3669897Y-16952636D01*
X3669897Y-16952636D02*
X3660373Y-16933589D01*
X3660373Y-16933589D02*
X3650849Y-16895493D01*
X3650849Y-16895493D02*
X3650849Y-16847874D01*
X3650849Y-16847874D02*
X3660373Y-16809779D01*
X3660373Y-16809779D02*
X3669897Y-16790731D01*
X3669897Y-16790731D02*
X3679421Y-16781208D01*
X3679421Y-16781208D02*
X3698468Y-16771684D01*
X3831802Y-16771684D02*
X3955611Y-16771684D01*
X3955611Y-16771684D02*
X3888945Y-16847874D01*
X3888945Y-16847874D02*
X3917516Y-16847874D01*
X3917516Y-16847874D02*
X3936564Y-16857398D01*
X3936564Y-16857398D02*
X3946087Y-16866922D01*
X3946087Y-16866922D02*
X3955611Y-16885970D01*
X3955611Y-16885970D02*
X3955611Y-16933589D01*
X3955611Y-16933589D02*
X3946087Y-16952636D01*
X3946087Y-16952636D02*
X3936564Y-16962160D01*
X3936564Y-16962160D02*
X3917516Y-16971684D01*
X3917516Y-16971684D02*
X3860373Y-16971684D01*
X3860373Y-16971684D02*
X3841326Y-16962160D01*
X3841326Y-16962160D02*
X3831802Y-16952636D01*
X4050849Y-16971684D02*
X4088945Y-16971684D01*
X4088945Y-16971684D02*
X4107992Y-16962160D01*
X4107992Y-16962160D02*
X4117516Y-16952636D01*
X4117516Y-16952636D02*
X4136564Y-16924065D01*
X4136564Y-16924065D02*
X4146087Y-16885970D01*
X4146087Y-16885970D02*
X4146087Y-16809779D01*
X4146087Y-16809779D02*
X4136564Y-16790731D01*
X4136564Y-16790731D02*
X4127040Y-16781208D01*
X4127040Y-16781208D02*
X4107992Y-16771684D01*
X4107992Y-16771684D02*
X4069897Y-16771684D01*
X4069897Y-16771684D02*
X4050849Y-16781208D01*
X4050849Y-16781208D02*
X4041326Y-16790731D01*
X4041326Y-16790731D02*
X4031802Y-16809779D01*
X4031802Y-16809779D02*
X4031802Y-16857398D01*
X4031802Y-16857398D02*
X4041326Y-16876446D01*
X4041326Y-16876446D02*
X4050849Y-16885970D01*
X4050849Y-16885970D02*
X4069897Y-16895493D01*
X4069897Y-16895493D02*
X4107992Y-16895493D01*
X4107992Y-16895493D02*
X4127040Y-16885970D01*
X4127040Y-16885970D02*
X4136564Y-16876446D01*
X4136564Y-16876446D02*
X4146087Y-16857398D01*
X4317516Y-16838350D02*
X4317516Y-16971684D01*
X4269897Y-16762160D02*
X4222278Y-16905017D01*
X4222278Y-16905017D02*
X4346088Y-16905017D01*
X4412754Y-16771684D02*
X4412754Y-16809779D01*
X4488945Y-16771684D02*
X4488945Y-16809779D01*
X4784183Y-17047874D02*
X4774659Y-17038350D01*
X4774659Y-17038350D02*
X4755611Y-17009779D01*
X4755611Y-17009779D02*
X4746088Y-16990731D01*
X4746088Y-16990731D02*
X4736564Y-16962160D01*
X4736564Y-16962160D02*
X4727040Y-16914541D01*
X4727040Y-16914541D02*
X4727040Y-16876446D01*
X4727040Y-16876446D02*
X4736564Y-16828827D01*
X4736564Y-16828827D02*
X4746088Y-16800255D01*
X4746088Y-16800255D02*
X4755611Y-16781208D01*
X4755611Y-16781208D02*
X4774659Y-16752636D01*
X4774659Y-16752636D02*
X4784183Y-16743112D01*
X4946088Y-16771684D02*
X4907992Y-16771684D01*
X4907992Y-16771684D02*
X4888945Y-16781208D01*
X4888945Y-16781208D02*
X4879421Y-16790731D01*
X4879421Y-16790731D02*
X4860373Y-16819303D01*
X4860373Y-16819303D02*
X4850850Y-16857398D01*
X4850850Y-16857398D02*
X4850850Y-16933589D01*
X4850850Y-16933589D02*
X4860373Y-16952636D01*
X4860373Y-16952636D02*
X4869897Y-16962160D01*
X4869897Y-16962160D02*
X4888945Y-16971684D01*
X4888945Y-16971684D02*
X4927040Y-16971684D01*
X4927040Y-16971684D02*
X4946088Y-16962160D01*
X4946088Y-16962160D02*
X4955611Y-16952636D01*
X4955611Y-16952636D02*
X4965135Y-16933589D01*
X4965135Y-16933589D02*
X4965135Y-16885970D01*
X4965135Y-16885970D02*
X4955611Y-16866922D01*
X4955611Y-16866922D02*
X4946088Y-16857398D01*
X4946088Y-16857398D02*
X4927040Y-16847874D01*
X4927040Y-16847874D02*
X4888945Y-16847874D01*
X4888945Y-16847874D02*
X4869897Y-16857398D01*
X4869897Y-16857398D02*
X4860373Y-16866922D01*
X4860373Y-16866922D02*
X4850850Y-16885970D01*
X5088945Y-16771684D02*
X5107992Y-16771684D01*
X5107992Y-16771684D02*
X5127040Y-16781208D01*
X5127040Y-16781208D02*
X5136564Y-16790731D01*
X5136564Y-16790731D02*
X5146088Y-16809779D01*
X5146088Y-16809779D02*
X5155611Y-16847874D01*
X5155611Y-16847874D02*
X5155611Y-16895493D01*
X5155611Y-16895493D02*
X5146088Y-16933589D01*
X5146088Y-16933589D02*
X5136564Y-16952636D01*
X5136564Y-16952636D02*
X5127040Y-16962160D01*
X5127040Y-16962160D02*
X5107992Y-16971684D01*
X5107992Y-16971684D02*
X5088945Y-16971684D01*
X5088945Y-16971684D02*
X5069897Y-16962160D01*
X5069897Y-16962160D02*
X5060373Y-16952636D01*
X5060373Y-16952636D02*
X5050850Y-16933589D01*
X5050850Y-16933589D02*
X5041326Y-16895493D01*
X5041326Y-16895493D02*
X5041326Y-16847874D01*
X5041326Y-16847874D02*
X5050850Y-16809779D01*
X5050850Y-16809779D02*
X5060373Y-16790731D01*
X5060373Y-16790731D02*
X5069897Y-16781208D01*
X5069897Y-16781208D02*
X5088945Y-16771684D01*
X5393707Y-16971684D02*
X5393707Y-16771684D01*
X5479421Y-16971684D02*
X5479421Y-16866922D01*
X5479421Y-16866922D02*
X5469897Y-16847874D01*
X5469897Y-16847874D02*
X5450850Y-16838350D01*
X5450850Y-16838350D02*
X5422278Y-16838350D01*
X5422278Y-16838350D02*
X5403231Y-16847874D01*
X5403231Y-16847874D02*
X5393707Y-16857398D01*
X5603230Y-16971684D02*
X5584183Y-16962160D01*
X5584183Y-16962160D02*
X5574659Y-16952636D01*
X5574659Y-16952636D02*
X5565135Y-16933589D01*
X5565135Y-16933589D02*
X5565135Y-16876446D01*
X5565135Y-16876446D02*
X5574659Y-16857398D01*
X5574659Y-16857398D02*
X5584183Y-16847874D01*
X5584183Y-16847874D02*
X5603230Y-16838350D01*
X5603230Y-16838350D02*
X5631802Y-16838350D01*
X5631802Y-16838350D02*
X5650850Y-16847874D01*
X5650850Y-16847874D02*
X5660373Y-16857398D01*
X5660373Y-16857398D02*
X5669897Y-16876446D01*
X5669897Y-16876446D02*
X5669897Y-16933589D01*
X5669897Y-16933589D02*
X5660373Y-16952636D01*
X5660373Y-16952636D02*
X5650850Y-16962160D01*
X5650850Y-16962160D02*
X5631802Y-16971684D01*
X5631802Y-16971684D02*
X5603230Y-16971684D01*
X5784183Y-16971684D02*
X5765135Y-16962160D01*
X5765135Y-16962160D02*
X5755611Y-16943112D01*
X5755611Y-16943112D02*
X5755611Y-16771684D01*
X5936564Y-16962160D02*
X5917516Y-16971684D01*
X5917516Y-16971684D02*
X5879421Y-16971684D01*
X5879421Y-16971684D02*
X5860373Y-16962160D01*
X5860373Y-16962160D02*
X5850850Y-16943112D01*
X5850850Y-16943112D02*
X5850850Y-16866922D01*
X5850850Y-16866922D02*
X5860373Y-16847874D01*
X5860373Y-16847874D02*
X5879421Y-16838350D01*
X5879421Y-16838350D02*
X5917516Y-16838350D01*
X5917516Y-16838350D02*
X5936564Y-16847874D01*
X5936564Y-16847874D02*
X5946088Y-16866922D01*
X5946088Y-16866922D02*
X5946088Y-16885970D01*
X5946088Y-16885970D02*
X5850850Y-16905017D01*
X6022278Y-16962160D02*
X6041326Y-16971684D01*
X6041326Y-16971684D02*
X6079421Y-16971684D01*
X6079421Y-16971684D02*
X6098469Y-16962160D01*
X6098469Y-16962160D02*
X6107992Y-16943112D01*
X6107992Y-16943112D02*
X6107992Y-16933589D01*
X6107992Y-16933589D02*
X6098469Y-16914541D01*
X6098469Y-16914541D02*
X6079421Y-16905017D01*
X6079421Y-16905017D02*
X6050850Y-16905017D01*
X6050850Y-16905017D02*
X6031802Y-16895493D01*
X6031802Y-16895493D02*
X6022278Y-16876446D01*
X6022278Y-16876446D02*
X6022278Y-16866922D01*
X6022278Y-16866922D02*
X6031802Y-16847874D01*
X6031802Y-16847874D02*
X6050850Y-16838350D01*
X6050850Y-16838350D02*
X6079421Y-16838350D01*
X6079421Y-16838350D02*
X6098469Y-16847874D01*
X6346088Y-16895493D02*
X6498469Y-16895493D01*
X6422278Y-16971684D02*
X6422278Y-16819303D01*
X6727040Y-16771684D02*
X6850850Y-16771684D01*
X6850850Y-16771684D02*
X6784183Y-16847874D01*
X6784183Y-16847874D02*
X6812754Y-16847874D01*
X6812754Y-16847874D02*
X6831802Y-16857398D01*
X6831802Y-16857398D02*
X6841326Y-16866922D01*
X6841326Y-16866922D02*
X6850850Y-16885970D01*
X6850850Y-16885970D02*
X6850850Y-16933589D01*
X6850850Y-16933589D02*
X6841326Y-16952636D01*
X6841326Y-16952636D02*
X6831802Y-16962160D01*
X6831802Y-16962160D02*
X6812754Y-16971684D01*
X6812754Y-16971684D02*
X6755612Y-16971684D01*
X6755612Y-16971684D02*
X6736564Y-16962160D01*
X6736564Y-16962160D02*
X6727040Y-16952636D01*
X7079421Y-16962160D02*
X7098469Y-16971684D01*
X7098469Y-16971684D02*
X7136564Y-16971684D01*
X7136564Y-16971684D02*
X7155612Y-16962160D01*
X7155612Y-16962160D02*
X7165135Y-16943112D01*
X7165135Y-16943112D02*
X7165135Y-16933589D01*
X7165135Y-16933589D02*
X7155612Y-16914541D01*
X7155612Y-16914541D02*
X7136564Y-16905017D01*
X7136564Y-16905017D02*
X7107993Y-16905017D01*
X7107993Y-16905017D02*
X7088945Y-16895493D01*
X7088945Y-16895493D02*
X7079421Y-16876446D01*
X7079421Y-16876446D02*
X7079421Y-16866922D01*
X7079421Y-16866922D02*
X7088945Y-16847874D01*
X7088945Y-16847874D02*
X7107993Y-16838350D01*
X7107993Y-16838350D02*
X7136564Y-16838350D01*
X7136564Y-16838350D02*
X7155612Y-16847874D01*
X7279421Y-16971684D02*
X7260374Y-16962160D01*
X7260374Y-16962160D02*
X7250850Y-16943112D01*
X7250850Y-16943112D02*
X7250850Y-16771684D01*
X7384183Y-16971684D02*
X7365135Y-16962160D01*
X7365135Y-16962160D02*
X7355612Y-16952636D01*
X7355612Y-16952636D02*
X7346088Y-16933589D01*
X7346088Y-16933589D02*
X7346088Y-16876446D01*
X7346088Y-16876446D02*
X7355612Y-16857398D01*
X7355612Y-16857398D02*
X7365135Y-16847874D01*
X7365135Y-16847874D02*
X7384183Y-16838350D01*
X7384183Y-16838350D02*
X7412755Y-16838350D01*
X7412755Y-16838350D02*
X7431802Y-16847874D01*
X7431802Y-16847874D02*
X7441326Y-16857398D01*
X7441326Y-16857398D02*
X7450850Y-16876446D01*
X7450850Y-16876446D02*
X7450850Y-16933589D01*
X7450850Y-16933589D02*
X7441326Y-16952636D01*
X7441326Y-16952636D02*
X7431802Y-16962160D01*
X7431802Y-16962160D02*
X7412755Y-16971684D01*
X7412755Y-16971684D02*
X7384183Y-16971684D01*
X7507993Y-16838350D02*
X7584183Y-16838350D01*
X7536564Y-16771684D02*
X7536564Y-16943112D01*
X7536564Y-16943112D02*
X7546088Y-16962160D01*
X7546088Y-16962160D02*
X7565135Y-16971684D01*
X7565135Y-16971684D02*
X7584183Y-16971684D01*
X7641326Y-16962160D02*
X7660374Y-16971684D01*
X7660374Y-16971684D02*
X7698469Y-16971684D01*
X7698469Y-16971684D02*
X7717516Y-16962160D01*
X7717516Y-16962160D02*
X7727040Y-16943112D01*
X7727040Y-16943112D02*
X7727040Y-16933589D01*
X7727040Y-16933589D02*
X7717516Y-16914541D01*
X7717516Y-16914541D02*
X7698469Y-16905017D01*
X7698469Y-16905017D02*
X7669897Y-16905017D01*
X7669897Y-16905017D02*
X7650850Y-16895493D01*
X7650850Y-16895493D02*
X7641326Y-16876446D01*
X7641326Y-16876446D02*
X7641326Y-16866922D01*
X7641326Y-16866922D02*
X7650850Y-16847874D01*
X7650850Y-16847874D02*
X7669897Y-16838350D01*
X7669897Y-16838350D02*
X7698469Y-16838350D01*
X7698469Y-16838350D02*
X7717516Y-16847874D01*
X7793707Y-17047874D02*
X7803231Y-17038350D01*
X7803231Y-17038350D02*
X7822278Y-17009779D01*
X7822278Y-17009779D02*
X7831802Y-16990731D01*
X7831802Y-16990731D02*
X7841326Y-16962160D01*
X7841326Y-16962160D02*
X7850850Y-16914541D01*
X7850850Y-16914541D02*
X7850850Y-16876446D01*
X7850850Y-16876446D02*
X7841326Y-16828827D01*
X7841326Y-16828827D02*
X7831802Y-16800255D01*
X7831802Y-16800255D02*
X7822278Y-16781208D01*
X7822278Y-16781208D02*
X7803231Y-16752636D01*
X7803231Y-16752636D02*
X7793707Y-16743112D01*
D12*
X1154120Y-17199200D02*
X1209120Y-17144200D01*
X1154120Y-17089200D01*
X1099120Y-17144200D01*
X1154120Y-17199200D01*
D11*
X1574659Y-17235684D02*
X1460373Y-17235684D01*
X1517516Y-17235684D02*
X1517516Y-17035684D01*
X1517516Y-17035684D02*
X1498468Y-17064255D01*
X1498468Y-17064255D02*
X1479421Y-17083303D01*
X1479421Y-17083303D02*
X1460373Y-17092827D01*
X1660373Y-17216636D02*
X1669897Y-17226160D01*
X1669897Y-17226160D02*
X1660373Y-17235684D01*
X1660373Y-17235684D02*
X1650849Y-17226160D01*
X1650849Y-17226160D02*
X1660373Y-17216636D01*
X1660373Y-17216636D02*
X1660373Y-17235684D01*
X1860373Y-17235684D02*
X1746087Y-17235684D01*
X1803230Y-17235684D02*
X1803230Y-17035684D01*
X1803230Y-17035684D02*
X1784182Y-17064255D01*
X1784182Y-17064255D02*
X1765135Y-17083303D01*
X1765135Y-17083303D02*
X1746087Y-17092827D01*
X1984182Y-17035684D02*
X2003230Y-17035684D01*
X2003230Y-17035684D02*
X2022278Y-17045208D01*
X2022278Y-17045208D02*
X2031802Y-17054731D01*
X2031802Y-17054731D02*
X2041325Y-17073779D01*
X2041325Y-17073779D02*
X2050849Y-17111874D01*
X2050849Y-17111874D02*
X2050849Y-17159493D01*
X2050849Y-17159493D02*
X2041325Y-17197589D01*
X2041325Y-17197589D02*
X2031802Y-17216636D01*
X2031802Y-17216636D02*
X2022278Y-17226160D01*
X2022278Y-17226160D02*
X2003230Y-17235684D01*
X2003230Y-17235684D02*
X1984182Y-17235684D01*
X1984182Y-17235684D02*
X1965135Y-17226160D01*
X1965135Y-17226160D02*
X1955611Y-17216636D01*
X1955611Y-17216636D02*
X1946087Y-17197589D01*
X1946087Y-17197589D02*
X1936563Y-17159493D01*
X1936563Y-17159493D02*
X1936563Y-17111874D01*
X1936563Y-17111874D02*
X1946087Y-17073779D01*
X1946087Y-17073779D02*
X1955611Y-17054731D01*
X1955611Y-17054731D02*
X1965135Y-17045208D01*
X1965135Y-17045208D02*
X1984182Y-17035684D01*
X2174659Y-17035684D02*
X2193706Y-17035684D01*
X2193706Y-17035684D02*
X2212754Y-17045208D01*
X2212754Y-17045208D02*
X2222278Y-17054731D01*
X2222278Y-17054731D02*
X2231802Y-17073779D01*
X2231802Y-17073779D02*
X2241325Y-17111874D01*
X2241325Y-17111874D02*
X2241325Y-17159493D01*
X2241325Y-17159493D02*
X2231802Y-17197589D01*
X2231802Y-17197589D02*
X2222278Y-17216636D01*
X2222278Y-17216636D02*
X2212754Y-17226160D01*
X2212754Y-17226160D02*
X2193706Y-17235684D01*
X2193706Y-17235684D02*
X2174659Y-17235684D01*
X2174659Y-17235684D02*
X2155611Y-17226160D01*
X2155611Y-17226160D02*
X2146087Y-17216636D01*
X2146087Y-17216636D02*
X2136564Y-17197589D01*
X2136564Y-17197589D02*
X2127040Y-17159493D01*
X2127040Y-17159493D02*
X2127040Y-17111874D01*
X2127040Y-17111874D02*
X2136564Y-17073779D01*
X2136564Y-17073779D02*
X2146087Y-17054731D01*
X2146087Y-17054731D02*
X2155611Y-17045208D01*
X2155611Y-17045208D02*
X2174659Y-17035684D01*
X2327040Y-17235684D02*
X2327040Y-17102350D01*
X2327040Y-17121398D02*
X2336564Y-17111874D01*
X2336564Y-17111874D02*
X2355611Y-17102350D01*
X2355611Y-17102350D02*
X2384183Y-17102350D01*
X2384183Y-17102350D02*
X2403230Y-17111874D01*
X2403230Y-17111874D02*
X2412754Y-17130922D01*
X2412754Y-17130922D02*
X2412754Y-17235684D01*
X2412754Y-17130922D02*
X2422278Y-17111874D01*
X2422278Y-17111874D02*
X2441325Y-17102350D01*
X2441325Y-17102350D02*
X2469897Y-17102350D01*
X2469897Y-17102350D02*
X2488945Y-17111874D01*
X2488945Y-17111874D02*
X2498468Y-17130922D01*
X2498468Y-17130922D02*
X2498468Y-17235684D01*
X2593706Y-17235684D02*
X2593706Y-17102350D01*
X2593706Y-17121398D02*
X2603230Y-17111874D01*
X2603230Y-17111874D02*
X2622278Y-17102350D01*
X2622278Y-17102350D02*
X2650849Y-17102350D01*
X2650849Y-17102350D02*
X2669897Y-17111874D01*
X2669897Y-17111874D02*
X2679421Y-17130922D01*
X2679421Y-17130922D02*
X2679421Y-17235684D01*
X2679421Y-17130922D02*
X2688945Y-17111874D01*
X2688945Y-17111874D02*
X2707992Y-17102350D01*
X2707992Y-17102350D02*
X2736564Y-17102350D01*
X2736564Y-17102350D02*
X2755611Y-17111874D01*
X2755611Y-17111874D02*
X2765135Y-17130922D01*
X2765135Y-17130922D02*
X2765135Y-17235684D01*
X3155611Y-17026160D02*
X2984183Y-17283303D01*
X3412754Y-17035684D02*
X3431802Y-17035684D01*
X3431802Y-17035684D02*
X3450849Y-17045208D01*
X3450849Y-17045208D02*
X3460373Y-17054731D01*
X3460373Y-17054731D02*
X3469897Y-17073779D01*
X3469897Y-17073779D02*
X3479421Y-17111874D01*
X3479421Y-17111874D02*
X3479421Y-17159493D01*
X3479421Y-17159493D02*
X3469897Y-17197589D01*
X3469897Y-17197589D02*
X3460373Y-17216636D01*
X3460373Y-17216636D02*
X3450849Y-17226160D01*
X3450849Y-17226160D02*
X3431802Y-17235684D01*
X3431802Y-17235684D02*
X3412754Y-17235684D01*
X3412754Y-17235684D02*
X3393706Y-17226160D01*
X3393706Y-17226160D02*
X3384183Y-17216636D01*
X3384183Y-17216636D02*
X3374659Y-17197589D01*
X3374659Y-17197589D02*
X3365135Y-17159493D01*
X3365135Y-17159493D02*
X3365135Y-17111874D01*
X3365135Y-17111874D02*
X3374659Y-17073779D01*
X3374659Y-17073779D02*
X3384183Y-17054731D01*
X3384183Y-17054731D02*
X3393706Y-17045208D01*
X3393706Y-17045208D02*
X3412754Y-17035684D01*
X3565135Y-17216636D02*
X3574659Y-17226160D01*
X3574659Y-17226160D02*
X3565135Y-17235684D01*
X3565135Y-17235684D02*
X3555611Y-17226160D01*
X3555611Y-17226160D02*
X3565135Y-17216636D01*
X3565135Y-17216636D02*
X3565135Y-17235684D01*
X3698468Y-17035684D02*
X3717516Y-17035684D01*
X3717516Y-17035684D02*
X3736564Y-17045208D01*
X3736564Y-17045208D02*
X3746087Y-17054731D01*
X3746087Y-17054731D02*
X3755611Y-17073779D01*
X3755611Y-17073779D02*
X3765135Y-17111874D01*
X3765135Y-17111874D02*
X3765135Y-17159493D01*
X3765135Y-17159493D02*
X3755611Y-17197589D01*
X3755611Y-17197589D02*
X3746087Y-17216636D01*
X3746087Y-17216636D02*
X3736564Y-17226160D01*
X3736564Y-17226160D02*
X3717516Y-17235684D01*
X3717516Y-17235684D02*
X3698468Y-17235684D01*
X3698468Y-17235684D02*
X3679421Y-17226160D01*
X3679421Y-17226160D02*
X3669897Y-17216636D01*
X3669897Y-17216636D02*
X3660373Y-17197589D01*
X3660373Y-17197589D02*
X3650849Y-17159493D01*
X3650849Y-17159493D02*
X3650849Y-17111874D01*
X3650849Y-17111874D02*
X3660373Y-17073779D01*
X3660373Y-17073779D02*
X3669897Y-17054731D01*
X3669897Y-17054731D02*
X3679421Y-17045208D01*
X3679421Y-17045208D02*
X3698468Y-17035684D01*
X3936564Y-17102350D02*
X3936564Y-17235684D01*
X3888945Y-17026160D02*
X3841326Y-17169017D01*
X3841326Y-17169017D02*
X3965135Y-17169017D01*
X4022278Y-17035684D02*
X4146087Y-17035684D01*
X4146087Y-17035684D02*
X4079421Y-17111874D01*
X4079421Y-17111874D02*
X4107992Y-17111874D01*
X4107992Y-17111874D02*
X4127040Y-17121398D01*
X4127040Y-17121398D02*
X4136564Y-17130922D01*
X4136564Y-17130922D02*
X4146087Y-17149970D01*
X4146087Y-17149970D02*
X4146087Y-17197589D01*
X4146087Y-17197589D02*
X4136564Y-17216636D01*
X4136564Y-17216636D02*
X4127040Y-17226160D01*
X4127040Y-17226160D02*
X4107992Y-17235684D01*
X4107992Y-17235684D02*
X4050849Y-17235684D01*
X4050849Y-17235684D02*
X4031802Y-17226160D01*
X4031802Y-17226160D02*
X4022278Y-17216636D01*
X4212754Y-17035684D02*
X4336564Y-17035684D01*
X4336564Y-17035684D02*
X4269897Y-17111874D01*
X4269897Y-17111874D02*
X4298469Y-17111874D01*
X4298469Y-17111874D02*
X4317516Y-17121398D01*
X4317516Y-17121398D02*
X4327040Y-17130922D01*
X4327040Y-17130922D02*
X4336564Y-17149970D01*
X4336564Y-17149970D02*
X4336564Y-17197589D01*
X4336564Y-17197589D02*
X4327040Y-17216636D01*
X4327040Y-17216636D02*
X4317516Y-17226160D01*
X4317516Y-17226160D02*
X4298469Y-17235684D01*
X4298469Y-17235684D02*
X4241326Y-17235684D01*
X4241326Y-17235684D02*
X4222278Y-17226160D01*
X4222278Y-17226160D02*
X4212754Y-17216636D01*
X4412754Y-17035684D02*
X4412754Y-17073779D01*
X4488945Y-17035684D02*
X4488945Y-17073779D01*
X4784183Y-17311874D02*
X4774659Y-17302350D01*
X4774659Y-17302350D02*
X4755611Y-17273779D01*
X4755611Y-17273779D02*
X4746088Y-17254731D01*
X4746088Y-17254731D02*
X4736564Y-17226160D01*
X4736564Y-17226160D02*
X4727040Y-17178541D01*
X4727040Y-17178541D02*
X4727040Y-17140446D01*
X4727040Y-17140446D02*
X4736564Y-17092827D01*
X4736564Y-17092827D02*
X4746088Y-17064255D01*
X4746088Y-17064255D02*
X4755611Y-17045208D01*
X4755611Y-17045208D02*
X4774659Y-17016636D01*
X4774659Y-17016636D02*
X4784183Y-17007112D01*
X4888945Y-17121398D02*
X4869897Y-17111874D01*
X4869897Y-17111874D02*
X4860373Y-17102350D01*
X4860373Y-17102350D02*
X4850850Y-17083303D01*
X4850850Y-17083303D02*
X4850850Y-17073779D01*
X4850850Y-17073779D02*
X4860373Y-17054731D01*
X4860373Y-17054731D02*
X4869897Y-17045208D01*
X4869897Y-17045208D02*
X4888945Y-17035684D01*
X4888945Y-17035684D02*
X4927040Y-17035684D01*
X4927040Y-17035684D02*
X4946088Y-17045208D01*
X4946088Y-17045208D02*
X4955611Y-17054731D01*
X4955611Y-17054731D02*
X4965135Y-17073779D01*
X4965135Y-17073779D02*
X4965135Y-17083303D01*
X4965135Y-17083303D02*
X4955611Y-17102350D01*
X4955611Y-17102350D02*
X4946088Y-17111874D01*
X4946088Y-17111874D02*
X4927040Y-17121398D01*
X4927040Y-17121398D02*
X4888945Y-17121398D01*
X4888945Y-17121398D02*
X4869897Y-17130922D01*
X4869897Y-17130922D02*
X4860373Y-17140446D01*
X4860373Y-17140446D02*
X4850850Y-17159493D01*
X4850850Y-17159493D02*
X4850850Y-17197589D01*
X4850850Y-17197589D02*
X4860373Y-17216636D01*
X4860373Y-17216636D02*
X4869897Y-17226160D01*
X4869897Y-17226160D02*
X4888945Y-17235684D01*
X4888945Y-17235684D02*
X4927040Y-17235684D01*
X4927040Y-17235684D02*
X4946088Y-17226160D01*
X4946088Y-17226160D02*
X4955611Y-17216636D01*
X4955611Y-17216636D02*
X4965135Y-17197589D01*
X4965135Y-17197589D02*
X4965135Y-17159493D01*
X4965135Y-17159493D02*
X4955611Y-17140446D01*
X4955611Y-17140446D02*
X4946088Y-17130922D01*
X4946088Y-17130922D02*
X4927040Y-17121398D01*
X5203231Y-17235684D02*
X5203231Y-17035684D01*
X5288945Y-17235684D02*
X5288945Y-17130922D01*
X5288945Y-17130922D02*
X5279421Y-17111874D01*
X5279421Y-17111874D02*
X5260373Y-17102350D01*
X5260373Y-17102350D02*
X5231802Y-17102350D01*
X5231802Y-17102350D02*
X5212754Y-17111874D01*
X5212754Y-17111874D02*
X5203231Y-17121398D01*
X5412754Y-17235684D02*
X5393707Y-17226160D01*
X5393707Y-17226160D02*
X5384183Y-17216636D01*
X5384183Y-17216636D02*
X5374659Y-17197589D01*
X5374659Y-17197589D02*
X5374659Y-17140446D01*
X5374659Y-17140446D02*
X5384183Y-17121398D01*
X5384183Y-17121398D02*
X5393707Y-17111874D01*
X5393707Y-17111874D02*
X5412754Y-17102350D01*
X5412754Y-17102350D02*
X5441326Y-17102350D01*
X5441326Y-17102350D02*
X5460373Y-17111874D01*
X5460373Y-17111874D02*
X5469897Y-17121398D01*
X5469897Y-17121398D02*
X5479421Y-17140446D01*
X5479421Y-17140446D02*
X5479421Y-17197589D01*
X5479421Y-17197589D02*
X5469897Y-17216636D01*
X5469897Y-17216636D02*
X5460373Y-17226160D01*
X5460373Y-17226160D02*
X5441326Y-17235684D01*
X5441326Y-17235684D02*
X5412754Y-17235684D01*
X5593707Y-17235684D02*
X5574659Y-17226160D01*
X5574659Y-17226160D02*
X5565135Y-17207112D01*
X5565135Y-17207112D02*
X5565135Y-17035684D01*
X5746088Y-17226160D02*
X5727040Y-17235684D01*
X5727040Y-17235684D02*
X5688945Y-17235684D01*
X5688945Y-17235684D02*
X5669897Y-17226160D01*
X5669897Y-17226160D02*
X5660373Y-17207112D01*
X5660373Y-17207112D02*
X5660373Y-17130922D01*
X5660373Y-17130922D02*
X5669897Y-17111874D01*
X5669897Y-17111874D02*
X5688945Y-17102350D01*
X5688945Y-17102350D02*
X5727040Y-17102350D01*
X5727040Y-17102350D02*
X5746088Y-17111874D01*
X5746088Y-17111874D02*
X5755611Y-17130922D01*
X5755611Y-17130922D02*
X5755611Y-17149970D01*
X5755611Y-17149970D02*
X5660373Y-17169017D01*
X5831802Y-17226160D02*
X5850850Y-17235684D01*
X5850850Y-17235684D02*
X5888945Y-17235684D01*
X5888945Y-17235684D02*
X5907992Y-17226160D01*
X5907992Y-17226160D02*
X5917516Y-17207112D01*
X5917516Y-17207112D02*
X5917516Y-17197589D01*
X5917516Y-17197589D02*
X5907992Y-17178541D01*
X5907992Y-17178541D02*
X5888945Y-17169017D01*
X5888945Y-17169017D02*
X5860373Y-17169017D01*
X5860373Y-17169017D02*
X5841326Y-17159493D01*
X5841326Y-17159493D02*
X5831802Y-17140446D01*
X5831802Y-17140446D02*
X5831802Y-17130922D01*
X5831802Y-17130922D02*
X5841326Y-17111874D01*
X5841326Y-17111874D02*
X5860373Y-17102350D01*
X5860373Y-17102350D02*
X5888945Y-17102350D01*
X5888945Y-17102350D02*
X5907992Y-17111874D01*
X5984183Y-17311874D02*
X5993707Y-17302350D01*
X5993707Y-17302350D02*
X6012754Y-17273779D01*
X6012754Y-17273779D02*
X6022278Y-17254731D01*
X6022278Y-17254731D02*
X6031802Y-17226160D01*
X6031802Y-17226160D02*
X6041326Y-17178541D01*
X6041326Y-17178541D02*
X6041326Y-17140446D01*
X6041326Y-17140446D02*
X6031802Y-17092827D01*
X6031802Y-17092827D02*
X6022278Y-17064255D01*
X6022278Y-17064255D02*
X6012754Y-17045208D01*
X6012754Y-17045208D02*
X5993707Y-17016636D01*
X5993707Y-17016636D02*
X5984183Y-17007112D01*
X1009120Y-17308200D02*
X1209120Y-17508200D01*
X1209120Y-17308200D02*
X1009120Y-17508200D01*
X1209120Y-17408200D02*
G75*
G02*
X1009120Y-17408200I-100000J0D01*
G01*
X1009120Y-17408200D02*
G75*
G02*
X1209120Y-17408200I100000J0D01*
G01*
X1450849Y-17299684D02*
X1574659Y-17299684D01*
X1574659Y-17299684D02*
X1507992Y-17375874D01*
X1507992Y-17375874D02*
X1536563Y-17375874D01*
X1536563Y-17375874D02*
X1555611Y-17385398D01*
X1555611Y-17385398D02*
X1565135Y-17394922D01*
X1565135Y-17394922D02*
X1574659Y-17413970D01*
X1574659Y-17413970D02*
X1574659Y-17461589D01*
X1574659Y-17461589D02*
X1565135Y-17480636D01*
X1565135Y-17480636D02*
X1555611Y-17490160D01*
X1555611Y-17490160D02*
X1536563Y-17499684D01*
X1536563Y-17499684D02*
X1479421Y-17499684D01*
X1479421Y-17499684D02*
X1460373Y-17490160D01*
X1460373Y-17490160D02*
X1450849Y-17480636D01*
X1660373Y-17480636D02*
X1669897Y-17490160D01*
X1669897Y-17490160D02*
X1660373Y-17499684D01*
X1660373Y-17499684D02*
X1650849Y-17490160D01*
X1650849Y-17490160D02*
X1660373Y-17480636D01*
X1660373Y-17480636D02*
X1660373Y-17499684D01*
X1793706Y-17299684D02*
X1812754Y-17299684D01*
X1812754Y-17299684D02*
X1831802Y-17309208D01*
X1831802Y-17309208D02*
X1841325Y-17318731D01*
X1841325Y-17318731D02*
X1850849Y-17337779D01*
X1850849Y-17337779D02*
X1860373Y-17375874D01*
X1860373Y-17375874D02*
X1860373Y-17423493D01*
X1860373Y-17423493D02*
X1850849Y-17461589D01*
X1850849Y-17461589D02*
X1841325Y-17480636D01*
X1841325Y-17480636D02*
X1831802Y-17490160D01*
X1831802Y-17490160D02*
X1812754Y-17499684D01*
X1812754Y-17499684D02*
X1793706Y-17499684D01*
X1793706Y-17499684D02*
X1774659Y-17490160D01*
X1774659Y-17490160D02*
X1765135Y-17480636D01*
X1765135Y-17480636D02*
X1755611Y-17461589D01*
X1755611Y-17461589D02*
X1746087Y-17423493D01*
X1746087Y-17423493D02*
X1746087Y-17375874D01*
X1746087Y-17375874D02*
X1755611Y-17337779D01*
X1755611Y-17337779D02*
X1765135Y-17318731D01*
X1765135Y-17318731D02*
X1774659Y-17309208D01*
X1774659Y-17309208D02*
X1793706Y-17299684D01*
X1984182Y-17299684D02*
X2003230Y-17299684D01*
X2003230Y-17299684D02*
X2022278Y-17309208D01*
X2022278Y-17309208D02*
X2031802Y-17318731D01*
X2031802Y-17318731D02*
X2041325Y-17337779D01*
X2041325Y-17337779D02*
X2050849Y-17375874D01*
X2050849Y-17375874D02*
X2050849Y-17423493D01*
X2050849Y-17423493D02*
X2041325Y-17461589D01*
X2041325Y-17461589D02*
X2031802Y-17480636D01*
X2031802Y-17480636D02*
X2022278Y-17490160D01*
X2022278Y-17490160D02*
X2003230Y-17499684D01*
X2003230Y-17499684D02*
X1984182Y-17499684D01*
X1984182Y-17499684D02*
X1965135Y-17490160D01*
X1965135Y-17490160D02*
X1955611Y-17480636D01*
X1955611Y-17480636D02*
X1946087Y-17461589D01*
X1946087Y-17461589D02*
X1936563Y-17423493D01*
X1936563Y-17423493D02*
X1936563Y-17375874D01*
X1936563Y-17375874D02*
X1946087Y-17337779D01*
X1946087Y-17337779D02*
X1955611Y-17318731D01*
X1955611Y-17318731D02*
X1965135Y-17309208D01*
X1965135Y-17309208D02*
X1984182Y-17299684D01*
X2174659Y-17299684D02*
X2193706Y-17299684D01*
X2193706Y-17299684D02*
X2212754Y-17309208D01*
X2212754Y-17309208D02*
X2222278Y-17318731D01*
X2222278Y-17318731D02*
X2231802Y-17337779D01*
X2231802Y-17337779D02*
X2241325Y-17375874D01*
X2241325Y-17375874D02*
X2241325Y-17423493D01*
X2241325Y-17423493D02*
X2231802Y-17461589D01*
X2231802Y-17461589D02*
X2222278Y-17480636D01*
X2222278Y-17480636D02*
X2212754Y-17490160D01*
X2212754Y-17490160D02*
X2193706Y-17499684D01*
X2193706Y-17499684D02*
X2174659Y-17499684D01*
X2174659Y-17499684D02*
X2155611Y-17490160D01*
X2155611Y-17490160D02*
X2146087Y-17480636D01*
X2146087Y-17480636D02*
X2136564Y-17461589D01*
X2136564Y-17461589D02*
X2127040Y-17423493D01*
X2127040Y-17423493D02*
X2127040Y-17375874D01*
X2127040Y-17375874D02*
X2136564Y-17337779D01*
X2136564Y-17337779D02*
X2146087Y-17318731D01*
X2146087Y-17318731D02*
X2155611Y-17309208D01*
X2155611Y-17309208D02*
X2174659Y-17299684D01*
X2327040Y-17499684D02*
X2327040Y-17366350D01*
X2327040Y-17385398D02*
X2336564Y-17375874D01*
X2336564Y-17375874D02*
X2355611Y-17366350D01*
X2355611Y-17366350D02*
X2384183Y-17366350D01*
X2384183Y-17366350D02*
X2403230Y-17375874D01*
X2403230Y-17375874D02*
X2412754Y-17394922D01*
X2412754Y-17394922D02*
X2412754Y-17499684D01*
X2412754Y-17394922D02*
X2422278Y-17375874D01*
X2422278Y-17375874D02*
X2441325Y-17366350D01*
X2441325Y-17366350D02*
X2469897Y-17366350D01*
X2469897Y-17366350D02*
X2488945Y-17375874D01*
X2488945Y-17375874D02*
X2498468Y-17394922D01*
X2498468Y-17394922D02*
X2498468Y-17499684D01*
X2593706Y-17499684D02*
X2593706Y-17366350D01*
X2593706Y-17385398D02*
X2603230Y-17375874D01*
X2603230Y-17375874D02*
X2622278Y-17366350D01*
X2622278Y-17366350D02*
X2650849Y-17366350D01*
X2650849Y-17366350D02*
X2669897Y-17375874D01*
X2669897Y-17375874D02*
X2679421Y-17394922D01*
X2679421Y-17394922D02*
X2679421Y-17499684D01*
X2679421Y-17394922D02*
X2688945Y-17375874D01*
X2688945Y-17375874D02*
X2707992Y-17366350D01*
X2707992Y-17366350D02*
X2736564Y-17366350D01*
X2736564Y-17366350D02*
X2755611Y-17375874D01*
X2755611Y-17375874D02*
X2765135Y-17394922D01*
X2765135Y-17394922D02*
X2765135Y-17499684D01*
X3155611Y-17290160D02*
X2984183Y-17547303D01*
X3412754Y-17299684D02*
X3431802Y-17299684D01*
X3431802Y-17299684D02*
X3450849Y-17309208D01*
X3450849Y-17309208D02*
X3460373Y-17318731D01*
X3460373Y-17318731D02*
X3469897Y-17337779D01*
X3469897Y-17337779D02*
X3479421Y-17375874D01*
X3479421Y-17375874D02*
X3479421Y-17423493D01*
X3479421Y-17423493D02*
X3469897Y-17461589D01*
X3469897Y-17461589D02*
X3460373Y-17480636D01*
X3460373Y-17480636D02*
X3450849Y-17490160D01*
X3450849Y-17490160D02*
X3431802Y-17499684D01*
X3431802Y-17499684D02*
X3412754Y-17499684D01*
X3412754Y-17499684D02*
X3393706Y-17490160D01*
X3393706Y-17490160D02*
X3384183Y-17480636D01*
X3384183Y-17480636D02*
X3374659Y-17461589D01*
X3374659Y-17461589D02*
X3365135Y-17423493D01*
X3365135Y-17423493D02*
X3365135Y-17375874D01*
X3365135Y-17375874D02*
X3374659Y-17337779D01*
X3374659Y-17337779D02*
X3384183Y-17318731D01*
X3384183Y-17318731D02*
X3393706Y-17309208D01*
X3393706Y-17309208D02*
X3412754Y-17299684D01*
X3565135Y-17480636D02*
X3574659Y-17490160D01*
X3574659Y-17490160D02*
X3565135Y-17499684D01*
X3565135Y-17499684D02*
X3555611Y-17490160D01*
X3555611Y-17490160D02*
X3565135Y-17480636D01*
X3565135Y-17480636D02*
X3565135Y-17499684D01*
X3765135Y-17499684D02*
X3650849Y-17499684D01*
X3707992Y-17499684D02*
X3707992Y-17299684D01*
X3707992Y-17299684D02*
X3688945Y-17328255D01*
X3688945Y-17328255D02*
X3669897Y-17347303D01*
X3669897Y-17347303D02*
X3650849Y-17356827D01*
X3955611Y-17499684D02*
X3841326Y-17499684D01*
X3898468Y-17499684D02*
X3898468Y-17299684D01*
X3898468Y-17299684D02*
X3879421Y-17328255D01*
X3879421Y-17328255D02*
X3860373Y-17347303D01*
X3860373Y-17347303D02*
X3841326Y-17356827D01*
X4069897Y-17385398D02*
X4050849Y-17375874D01*
X4050849Y-17375874D02*
X4041326Y-17366350D01*
X4041326Y-17366350D02*
X4031802Y-17347303D01*
X4031802Y-17347303D02*
X4031802Y-17337779D01*
X4031802Y-17337779D02*
X4041326Y-17318731D01*
X4041326Y-17318731D02*
X4050849Y-17309208D01*
X4050849Y-17309208D02*
X4069897Y-17299684D01*
X4069897Y-17299684D02*
X4107992Y-17299684D01*
X4107992Y-17299684D02*
X4127040Y-17309208D01*
X4127040Y-17309208D02*
X4136564Y-17318731D01*
X4136564Y-17318731D02*
X4146087Y-17337779D01*
X4146087Y-17337779D02*
X4146087Y-17347303D01*
X4146087Y-17347303D02*
X4136564Y-17366350D01*
X4136564Y-17366350D02*
X4127040Y-17375874D01*
X4127040Y-17375874D02*
X4107992Y-17385398D01*
X4107992Y-17385398D02*
X4069897Y-17385398D01*
X4069897Y-17385398D02*
X4050849Y-17394922D01*
X4050849Y-17394922D02*
X4041326Y-17404446D01*
X4041326Y-17404446D02*
X4031802Y-17423493D01*
X4031802Y-17423493D02*
X4031802Y-17461589D01*
X4031802Y-17461589D02*
X4041326Y-17480636D01*
X4041326Y-17480636D02*
X4050849Y-17490160D01*
X4050849Y-17490160D02*
X4069897Y-17499684D01*
X4069897Y-17499684D02*
X4107992Y-17499684D01*
X4107992Y-17499684D02*
X4127040Y-17490160D01*
X4127040Y-17490160D02*
X4136564Y-17480636D01*
X4136564Y-17480636D02*
X4146087Y-17461589D01*
X4146087Y-17461589D02*
X4146087Y-17423493D01*
X4146087Y-17423493D02*
X4136564Y-17404446D01*
X4136564Y-17404446D02*
X4127040Y-17394922D01*
X4127040Y-17394922D02*
X4107992Y-17385398D01*
X4336564Y-17499684D02*
X4222278Y-17499684D01*
X4279421Y-17499684D02*
X4279421Y-17299684D01*
X4279421Y-17299684D02*
X4260373Y-17328255D01*
X4260373Y-17328255D02*
X4241326Y-17347303D01*
X4241326Y-17347303D02*
X4222278Y-17356827D01*
X4412754Y-17299684D02*
X4412754Y-17337779D01*
X4488945Y-17299684D02*
X4488945Y-17337779D01*
X4784183Y-17575874D02*
X4774659Y-17566350D01*
X4774659Y-17566350D02*
X4755611Y-17537779D01*
X4755611Y-17537779D02*
X4746088Y-17518731D01*
X4746088Y-17518731D02*
X4736564Y-17490160D01*
X4736564Y-17490160D02*
X4727040Y-17442541D01*
X4727040Y-17442541D02*
X4727040Y-17404446D01*
X4727040Y-17404446D02*
X4736564Y-17356827D01*
X4736564Y-17356827D02*
X4746088Y-17328255D01*
X4746088Y-17328255D02*
X4755611Y-17309208D01*
X4755611Y-17309208D02*
X4774659Y-17280636D01*
X4774659Y-17280636D02*
X4784183Y-17271112D01*
X4965135Y-17499684D02*
X4850850Y-17499684D01*
X4907992Y-17499684D02*
X4907992Y-17299684D01*
X4907992Y-17299684D02*
X4888945Y-17328255D01*
X4888945Y-17328255D02*
X4869897Y-17347303D01*
X4869897Y-17347303D02*
X4850850Y-17356827D01*
X5041326Y-17318731D02*
X5050850Y-17309208D01*
X5050850Y-17309208D02*
X5069897Y-17299684D01*
X5069897Y-17299684D02*
X5117516Y-17299684D01*
X5117516Y-17299684D02*
X5136564Y-17309208D01*
X5136564Y-17309208D02*
X5146088Y-17318731D01*
X5146088Y-17318731D02*
X5155611Y-17337779D01*
X5155611Y-17337779D02*
X5155611Y-17356827D01*
X5155611Y-17356827D02*
X5146088Y-17385398D01*
X5146088Y-17385398D02*
X5031802Y-17499684D01*
X5031802Y-17499684D02*
X5155611Y-17499684D01*
X5393707Y-17499684D02*
X5393707Y-17299684D01*
X5479421Y-17499684D02*
X5479421Y-17394922D01*
X5479421Y-17394922D02*
X5469897Y-17375874D01*
X5469897Y-17375874D02*
X5450850Y-17366350D01*
X5450850Y-17366350D02*
X5422278Y-17366350D01*
X5422278Y-17366350D02*
X5403231Y-17375874D01*
X5403231Y-17375874D02*
X5393707Y-17385398D01*
X5603230Y-17499684D02*
X5584183Y-17490160D01*
X5584183Y-17490160D02*
X5574659Y-17480636D01*
X5574659Y-17480636D02*
X5565135Y-17461589D01*
X5565135Y-17461589D02*
X5565135Y-17404446D01*
X5565135Y-17404446D02*
X5574659Y-17385398D01*
X5574659Y-17385398D02*
X5584183Y-17375874D01*
X5584183Y-17375874D02*
X5603230Y-17366350D01*
X5603230Y-17366350D02*
X5631802Y-17366350D01*
X5631802Y-17366350D02*
X5650850Y-17375874D01*
X5650850Y-17375874D02*
X5660373Y-17385398D01*
X5660373Y-17385398D02*
X5669897Y-17404446D01*
X5669897Y-17404446D02*
X5669897Y-17461589D01*
X5669897Y-17461589D02*
X5660373Y-17480636D01*
X5660373Y-17480636D02*
X5650850Y-17490160D01*
X5650850Y-17490160D02*
X5631802Y-17499684D01*
X5631802Y-17499684D02*
X5603230Y-17499684D01*
X5784183Y-17499684D02*
X5765135Y-17490160D01*
X5765135Y-17490160D02*
X5755611Y-17471112D01*
X5755611Y-17471112D02*
X5755611Y-17299684D01*
X5936564Y-17490160D02*
X5917516Y-17499684D01*
X5917516Y-17499684D02*
X5879421Y-17499684D01*
X5879421Y-17499684D02*
X5860373Y-17490160D01*
X5860373Y-17490160D02*
X5850850Y-17471112D01*
X5850850Y-17471112D02*
X5850850Y-17394922D01*
X5850850Y-17394922D02*
X5860373Y-17375874D01*
X5860373Y-17375874D02*
X5879421Y-17366350D01*
X5879421Y-17366350D02*
X5917516Y-17366350D01*
X5917516Y-17366350D02*
X5936564Y-17375874D01*
X5936564Y-17375874D02*
X5946088Y-17394922D01*
X5946088Y-17394922D02*
X5946088Y-17413970D01*
X5946088Y-17413970D02*
X5850850Y-17433017D01*
X6022278Y-17490160D02*
X6041326Y-17499684D01*
X6041326Y-17499684D02*
X6079421Y-17499684D01*
X6079421Y-17499684D02*
X6098469Y-17490160D01*
X6098469Y-17490160D02*
X6107992Y-17471112D01*
X6107992Y-17471112D02*
X6107992Y-17461589D01*
X6107992Y-17461589D02*
X6098469Y-17442541D01*
X6098469Y-17442541D02*
X6079421Y-17433017D01*
X6079421Y-17433017D02*
X6050850Y-17433017D01*
X6050850Y-17433017D02*
X6031802Y-17423493D01*
X6031802Y-17423493D02*
X6022278Y-17404446D01*
X6022278Y-17404446D02*
X6022278Y-17394922D01*
X6022278Y-17394922D02*
X6031802Y-17375874D01*
X6031802Y-17375874D02*
X6050850Y-17366350D01*
X6050850Y-17366350D02*
X6079421Y-17366350D01*
X6079421Y-17366350D02*
X6098469Y-17375874D01*
X6174659Y-17575874D02*
X6184183Y-17566350D01*
X6184183Y-17566350D02*
X6203231Y-17537779D01*
X6203231Y-17537779D02*
X6212754Y-17518731D01*
X6212754Y-17518731D02*
X6222278Y-17490160D01*
X6222278Y-17490160D02*
X6231802Y-17442541D01*
X6231802Y-17442541D02*
X6231802Y-17404446D01*
X6231802Y-17404446D02*
X6222278Y-17356827D01*
X6222278Y-17356827D02*
X6212754Y-17328255D01*
X6212754Y-17328255D02*
X6203231Y-17309208D01*
X6203231Y-17309208D02*
X6184183Y-17280636D01*
X6184183Y-17280636D02*
X6174659Y-17271112D01*
X1009120Y-17628200D02*
X1209120Y-17828200D01*
X1209120Y-17628200D02*
X1009120Y-17828200D01*
X1109120Y-17628200D02*
X1109120Y-17828200D01*
X1009120Y-17728200D02*
X1209120Y-17728200D01*
X1450849Y-17619684D02*
X1574659Y-17619684D01*
X1574659Y-17619684D02*
X1507992Y-17695874D01*
X1507992Y-17695874D02*
X1536563Y-17695874D01*
X1536563Y-17695874D02*
X1555611Y-17705398D01*
X1555611Y-17705398D02*
X1565135Y-17714922D01*
X1565135Y-17714922D02*
X1574659Y-17733970D01*
X1574659Y-17733970D02*
X1574659Y-17781589D01*
X1574659Y-17781589D02*
X1565135Y-17800636D01*
X1565135Y-17800636D02*
X1555611Y-17810160D01*
X1555611Y-17810160D02*
X1536563Y-17819684D01*
X1536563Y-17819684D02*
X1479421Y-17819684D01*
X1479421Y-17819684D02*
X1460373Y-17810160D01*
X1460373Y-17810160D02*
X1450849Y-17800636D01*
X1660373Y-17800636D02*
X1669897Y-17810160D01*
X1669897Y-17810160D02*
X1660373Y-17819684D01*
X1660373Y-17819684D02*
X1650849Y-17810160D01*
X1650849Y-17810160D02*
X1660373Y-17800636D01*
X1660373Y-17800636D02*
X1660373Y-17819684D01*
X1746087Y-17638731D02*
X1755611Y-17629208D01*
X1755611Y-17629208D02*
X1774659Y-17619684D01*
X1774659Y-17619684D02*
X1822278Y-17619684D01*
X1822278Y-17619684D02*
X1841325Y-17629208D01*
X1841325Y-17629208D02*
X1850849Y-17638731D01*
X1850849Y-17638731D02*
X1860373Y-17657779D01*
X1860373Y-17657779D02*
X1860373Y-17676827D01*
X1860373Y-17676827D02*
X1850849Y-17705398D01*
X1850849Y-17705398D02*
X1736563Y-17819684D01*
X1736563Y-17819684D02*
X1860373Y-17819684D01*
X1984182Y-17619684D02*
X2003230Y-17619684D01*
X2003230Y-17619684D02*
X2022278Y-17629208D01*
X2022278Y-17629208D02*
X2031802Y-17638731D01*
X2031802Y-17638731D02*
X2041325Y-17657779D01*
X2041325Y-17657779D02*
X2050849Y-17695874D01*
X2050849Y-17695874D02*
X2050849Y-17743493D01*
X2050849Y-17743493D02*
X2041325Y-17781589D01*
X2041325Y-17781589D02*
X2031802Y-17800636D01*
X2031802Y-17800636D02*
X2022278Y-17810160D01*
X2022278Y-17810160D02*
X2003230Y-17819684D01*
X2003230Y-17819684D02*
X1984182Y-17819684D01*
X1984182Y-17819684D02*
X1965135Y-17810160D01*
X1965135Y-17810160D02*
X1955611Y-17800636D01*
X1955611Y-17800636D02*
X1946087Y-17781589D01*
X1946087Y-17781589D02*
X1936563Y-17743493D01*
X1936563Y-17743493D02*
X1936563Y-17695874D01*
X1936563Y-17695874D02*
X1946087Y-17657779D01*
X1946087Y-17657779D02*
X1955611Y-17638731D01*
X1955611Y-17638731D02*
X1965135Y-17629208D01*
X1965135Y-17629208D02*
X1984182Y-17619684D01*
X2174659Y-17619684D02*
X2193706Y-17619684D01*
X2193706Y-17619684D02*
X2212754Y-17629208D01*
X2212754Y-17629208D02*
X2222278Y-17638731D01*
X2222278Y-17638731D02*
X2231802Y-17657779D01*
X2231802Y-17657779D02*
X2241325Y-17695874D01*
X2241325Y-17695874D02*
X2241325Y-17743493D01*
X2241325Y-17743493D02*
X2231802Y-17781589D01*
X2231802Y-17781589D02*
X2222278Y-17800636D01*
X2222278Y-17800636D02*
X2212754Y-17810160D01*
X2212754Y-17810160D02*
X2193706Y-17819684D01*
X2193706Y-17819684D02*
X2174659Y-17819684D01*
X2174659Y-17819684D02*
X2155611Y-17810160D01*
X2155611Y-17810160D02*
X2146087Y-17800636D01*
X2146087Y-17800636D02*
X2136564Y-17781589D01*
X2136564Y-17781589D02*
X2127040Y-17743493D01*
X2127040Y-17743493D02*
X2127040Y-17695874D01*
X2127040Y-17695874D02*
X2136564Y-17657779D01*
X2136564Y-17657779D02*
X2146087Y-17638731D01*
X2146087Y-17638731D02*
X2155611Y-17629208D01*
X2155611Y-17629208D02*
X2174659Y-17619684D01*
X2327040Y-17819684D02*
X2327040Y-17686350D01*
X2327040Y-17705398D02*
X2336564Y-17695874D01*
X2336564Y-17695874D02*
X2355611Y-17686350D01*
X2355611Y-17686350D02*
X2384183Y-17686350D01*
X2384183Y-17686350D02*
X2403230Y-17695874D01*
X2403230Y-17695874D02*
X2412754Y-17714922D01*
X2412754Y-17714922D02*
X2412754Y-17819684D01*
X2412754Y-17714922D02*
X2422278Y-17695874D01*
X2422278Y-17695874D02*
X2441325Y-17686350D01*
X2441325Y-17686350D02*
X2469897Y-17686350D01*
X2469897Y-17686350D02*
X2488945Y-17695874D01*
X2488945Y-17695874D02*
X2498468Y-17714922D01*
X2498468Y-17714922D02*
X2498468Y-17819684D01*
X2593706Y-17819684D02*
X2593706Y-17686350D01*
X2593706Y-17705398D02*
X2603230Y-17695874D01*
X2603230Y-17695874D02*
X2622278Y-17686350D01*
X2622278Y-17686350D02*
X2650849Y-17686350D01*
X2650849Y-17686350D02*
X2669897Y-17695874D01*
X2669897Y-17695874D02*
X2679421Y-17714922D01*
X2679421Y-17714922D02*
X2679421Y-17819684D01*
X2679421Y-17714922D02*
X2688945Y-17695874D01*
X2688945Y-17695874D02*
X2707992Y-17686350D01*
X2707992Y-17686350D02*
X2736564Y-17686350D01*
X2736564Y-17686350D02*
X2755611Y-17695874D01*
X2755611Y-17695874D02*
X2765135Y-17714922D01*
X2765135Y-17714922D02*
X2765135Y-17819684D01*
X3155611Y-17610160D02*
X2984183Y-17867303D01*
X3412754Y-17619684D02*
X3431802Y-17619684D01*
X3431802Y-17619684D02*
X3450849Y-17629208D01*
X3450849Y-17629208D02*
X3460373Y-17638731D01*
X3460373Y-17638731D02*
X3469897Y-17657779D01*
X3469897Y-17657779D02*
X3479421Y-17695874D01*
X3479421Y-17695874D02*
X3479421Y-17743493D01*
X3479421Y-17743493D02*
X3469897Y-17781589D01*
X3469897Y-17781589D02*
X3460373Y-17800636D01*
X3460373Y-17800636D02*
X3450849Y-17810160D01*
X3450849Y-17810160D02*
X3431802Y-17819684D01*
X3431802Y-17819684D02*
X3412754Y-17819684D01*
X3412754Y-17819684D02*
X3393706Y-17810160D01*
X3393706Y-17810160D02*
X3384183Y-17800636D01*
X3384183Y-17800636D02*
X3374659Y-17781589D01*
X3374659Y-17781589D02*
X3365135Y-17743493D01*
X3365135Y-17743493D02*
X3365135Y-17695874D01*
X3365135Y-17695874D02*
X3374659Y-17657779D01*
X3374659Y-17657779D02*
X3384183Y-17638731D01*
X3384183Y-17638731D02*
X3393706Y-17629208D01*
X3393706Y-17629208D02*
X3412754Y-17619684D01*
X3565135Y-17800636D02*
X3574659Y-17810160D01*
X3574659Y-17810160D02*
X3565135Y-17819684D01*
X3565135Y-17819684D02*
X3555611Y-17810160D01*
X3555611Y-17810160D02*
X3565135Y-17800636D01*
X3565135Y-17800636D02*
X3565135Y-17819684D01*
X3765135Y-17819684D02*
X3650849Y-17819684D01*
X3707992Y-17819684D02*
X3707992Y-17619684D01*
X3707992Y-17619684D02*
X3688945Y-17648255D01*
X3688945Y-17648255D02*
X3669897Y-17667303D01*
X3669897Y-17667303D02*
X3650849Y-17676827D01*
X3841326Y-17638731D02*
X3850849Y-17629208D01*
X3850849Y-17629208D02*
X3869897Y-17619684D01*
X3869897Y-17619684D02*
X3917516Y-17619684D01*
X3917516Y-17619684D02*
X3936564Y-17629208D01*
X3936564Y-17629208D02*
X3946087Y-17638731D01*
X3946087Y-17638731D02*
X3955611Y-17657779D01*
X3955611Y-17657779D02*
X3955611Y-17676827D01*
X3955611Y-17676827D02*
X3946087Y-17705398D01*
X3946087Y-17705398D02*
X3831802Y-17819684D01*
X3831802Y-17819684D02*
X3955611Y-17819684D01*
X4127040Y-17619684D02*
X4088945Y-17619684D01*
X4088945Y-17619684D02*
X4069897Y-17629208D01*
X4069897Y-17629208D02*
X4060373Y-17638731D01*
X4060373Y-17638731D02*
X4041326Y-17667303D01*
X4041326Y-17667303D02*
X4031802Y-17705398D01*
X4031802Y-17705398D02*
X4031802Y-17781589D01*
X4031802Y-17781589D02*
X4041326Y-17800636D01*
X4041326Y-17800636D02*
X4050849Y-17810160D01*
X4050849Y-17810160D02*
X4069897Y-17819684D01*
X4069897Y-17819684D02*
X4107992Y-17819684D01*
X4107992Y-17819684D02*
X4127040Y-17810160D01*
X4127040Y-17810160D02*
X4136564Y-17800636D01*
X4136564Y-17800636D02*
X4146087Y-17781589D01*
X4146087Y-17781589D02*
X4146087Y-17733970D01*
X4146087Y-17733970D02*
X4136564Y-17714922D01*
X4136564Y-17714922D02*
X4127040Y-17705398D01*
X4127040Y-17705398D02*
X4107992Y-17695874D01*
X4107992Y-17695874D02*
X4069897Y-17695874D01*
X4069897Y-17695874D02*
X4050849Y-17705398D01*
X4050849Y-17705398D02*
X4041326Y-17714922D01*
X4041326Y-17714922D02*
X4031802Y-17733970D01*
X4269897Y-17619684D02*
X4288945Y-17619684D01*
X4288945Y-17619684D02*
X4307992Y-17629208D01*
X4307992Y-17629208D02*
X4317516Y-17638731D01*
X4317516Y-17638731D02*
X4327040Y-17657779D01*
X4327040Y-17657779D02*
X4336564Y-17695874D01*
X4336564Y-17695874D02*
X4336564Y-17743493D01*
X4336564Y-17743493D02*
X4327040Y-17781589D01*
X4327040Y-17781589D02*
X4317516Y-17800636D01*
X4317516Y-17800636D02*
X4307992Y-17810160D01*
X4307992Y-17810160D02*
X4288945Y-17819684D01*
X4288945Y-17819684D02*
X4269897Y-17819684D01*
X4269897Y-17819684D02*
X4250849Y-17810160D01*
X4250849Y-17810160D02*
X4241326Y-17800636D01*
X4241326Y-17800636D02*
X4231802Y-17781589D01*
X4231802Y-17781589D02*
X4222278Y-17743493D01*
X4222278Y-17743493D02*
X4222278Y-17695874D01*
X4222278Y-17695874D02*
X4231802Y-17657779D01*
X4231802Y-17657779D02*
X4241326Y-17638731D01*
X4241326Y-17638731D02*
X4250849Y-17629208D01*
X4250849Y-17629208D02*
X4269897Y-17619684D01*
X4412754Y-17619684D02*
X4412754Y-17657779D01*
X4488945Y-17619684D02*
X4488945Y-17657779D01*
X4784183Y-17895874D02*
X4774659Y-17886350D01*
X4774659Y-17886350D02*
X4755611Y-17857779D01*
X4755611Y-17857779D02*
X4746088Y-17838731D01*
X4746088Y-17838731D02*
X4736564Y-17810160D01*
X4736564Y-17810160D02*
X4727040Y-17762541D01*
X4727040Y-17762541D02*
X4727040Y-17724446D01*
X4727040Y-17724446D02*
X4736564Y-17676827D01*
X4736564Y-17676827D02*
X4746088Y-17648255D01*
X4746088Y-17648255D02*
X4755611Y-17629208D01*
X4755611Y-17629208D02*
X4774659Y-17600636D01*
X4774659Y-17600636D02*
X4784183Y-17591112D01*
X4850850Y-17638731D02*
X4860373Y-17629208D01*
X4860373Y-17629208D02*
X4879421Y-17619684D01*
X4879421Y-17619684D02*
X4927040Y-17619684D01*
X4927040Y-17619684D02*
X4946088Y-17629208D01*
X4946088Y-17629208D02*
X4955611Y-17638731D01*
X4955611Y-17638731D02*
X4965135Y-17657779D01*
X4965135Y-17657779D02*
X4965135Y-17676827D01*
X4965135Y-17676827D02*
X4955611Y-17705398D01*
X4955611Y-17705398D02*
X4841326Y-17819684D01*
X4841326Y-17819684D02*
X4965135Y-17819684D01*
X5203231Y-17819684D02*
X5203231Y-17619684D01*
X5288945Y-17819684D02*
X5288945Y-17714922D01*
X5288945Y-17714922D02*
X5279421Y-17695874D01*
X5279421Y-17695874D02*
X5260373Y-17686350D01*
X5260373Y-17686350D02*
X5231802Y-17686350D01*
X5231802Y-17686350D02*
X5212754Y-17695874D01*
X5212754Y-17695874D02*
X5203231Y-17705398D01*
X5412754Y-17819684D02*
X5393707Y-17810160D01*
X5393707Y-17810160D02*
X5384183Y-17800636D01*
X5384183Y-17800636D02*
X5374659Y-17781589D01*
X5374659Y-17781589D02*
X5374659Y-17724446D01*
X5374659Y-17724446D02*
X5384183Y-17705398D01*
X5384183Y-17705398D02*
X5393707Y-17695874D01*
X5393707Y-17695874D02*
X5412754Y-17686350D01*
X5412754Y-17686350D02*
X5441326Y-17686350D01*
X5441326Y-17686350D02*
X5460373Y-17695874D01*
X5460373Y-17695874D02*
X5469897Y-17705398D01*
X5469897Y-17705398D02*
X5479421Y-17724446D01*
X5479421Y-17724446D02*
X5479421Y-17781589D01*
X5479421Y-17781589D02*
X5469897Y-17800636D01*
X5469897Y-17800636D02*
X5460373Y-17810160D01*
X5460373Y-17810160D02*
X5441326Y-17819684D01*
X5441326Y-17819684D02*
X5412754Y-17819684D01*
X5593707Y-17819684D02*
X5574659Y-17810160D01*
X5574659Y-17810160D02*
X5565135Y-17791112D01*
X5565135Y-17791112D02*
X5565135Y-17619684D01*
X5746088Y-17810160D02*
X5727040Y-17819684D01*
X5727040Y-17819684D02*
X5688945Y-17819684D01*
X5688945Y-17819684D02*
X5669897Y-17810160D01*
X5669897Y-17810160D02*
X5660373Y-17791112D01*
X5660373Y-17791112D02*
X5660373Y-17714922D01*
X5660373Y-17714922D02*
X5669897Y-17695874D01*
X5669897Y-17695874D02*
X5688945Y-17686350D01*
X5688945Y-17686350D02*
X5727040Y-17686350D01*
X5727040Y-17686350D02*
X5746088Y-17695874D01*
X5746088Y-17695874D02*
X5755611Y-17714922D01*
X5755611Y-17714922D02*
X5755611Y-17733970D01*
X5755611Y-17733970D02*
X5660373Y-17753017D01*
X5831802Y-17810160D02*
X5850850Y-17819684D01*
X5850850Y-17819684D02*
X5888945Y-17819684D01*
X5888945Y-17819684D02*
X5907992Y-17810160D01*
X5907992Y-17810160D02*
X5917516Y-17791112D01*
X5917516Y-17791112D02*
X5917516Y-17781589D01*
X5917516Y-17781589D02*
X5907992Y-17762541D01*
X5907992Y-17762541D02*
X5888945Y-17753017D01*
X5888945Y-17753017D02*
X5860373Y-17753017D01*
X5860373Y-17753017D02*
X5841326Y-17743493D01*
X5841326Y-17743493D02*
X5831802Y-17724446D01*
X5831802Y-17724446D02*
X5831802Y-17714922D01*
X5831802Y-17714922D02*
X5841326Y-17695874D01*
X5841326Y-17695874D02*
X5860373Y-17686350D01*
X5860373Y-17686350D02*
X5888945Y-17686350D01*
X5888945Y-17686350D02*
X5907992Y-17695874D01*
X5984183Y-17895874D02*
X5993707Y-17886350D01*
X5993707Y-17886350D02*
X6012754Y-17857779D01*
X6012754Y-17857779D02*
X6022278Y-17838731D01*
X6022278Y-17838731D02*
X6031802Y-17810160D01*
X6031802Y-17810160D02*
X6041326Y-17762541D01*
X6041326Y-17762541D02*
X6041326Y-17724446D01*
X6041326Y-17724446D02*
X6031802Y-17676827D01*
X6031802Y-17676827D02*
X6022278Y-17648255D01*
X6022278Y-17648255D02*
X6012754Y-17629208D01*
X6012754Y-17629208D02*
X5993707Y-17600636D01*
X5993707Y-17600636D02*
X5984183Y-17591112D01*
M02*
