%TF.GenerationSoftware,KiCad,Pcbnew,8.0.0*%
%TF.CreationDate,2024-05-17T21:06:54-04:00*%
%TF.ProjectId,Eater 6502 computer,45617465-7220-4363-9530-3220636f6d70,rev?*%
%TF.SameCoordinates,Original*%
%TF.FileFunction,Drillmap*%
%TF.FilePolarity,Positive*%
%FSLAX45Y45*%
G04 Gerber Fmt 4.5, Leading zero omitted, Abs format (unit mm)*
G04 Created by KiCad (PCBNEW 8.0.0) date 2024-05-17 21:06:54*
%MOMM*%
%LPD*%
G01*
G04 APERTURE LIST*
%ADD10C,0.100000*%
%ADD11C,0.200000*%
G04 APERTURE END LIST*
D10*
X28483560Y-1214120D02*
X1214120Y-1214120D01*
X28483560Y-15443200D02*
X28483560Y-1214120D01*
X24892000Y-15443200D02*
X1214120Y-15443200D01*
X24892000Y-15443200D02*
X28483560Y-15443200D01*
X1214120Y-15443200D02*
X1214120Y-1214120D01*
D11*
X1469897Y-15759684D02*
X1469897Y-15559684D01*
X1469897Y-15559684D02*
X1517516Y-15559684D01*
X1517516Y-15559684D02*
X1546087Y-15569208D01*
X1546087Y-15569208D02*
X1565135Y-15588255D01*
X1565135Y-15588255D02*
X1574659Y-15607303D01*
X1574659Y-15607303D02*
X1584182Y-15645398D01*
X1584182Y-15645398D02*
X1584182Y-15673969D01*
X1584182Y-15673969D02*
X1574659Y-15712065D01*
X1574659Y-15712065D02*
X1565135Y-15731112D01*
X1565135Y-15731112D02*
X1546087Y-15750160D01*
X1546087Y-15750160D02*
X1517516Y-15759684D01*
X1517516Y-15759684D02*
X1469897Y-15759684D01*
X1669897Y-15759684D02*
X1669897Y-15626350D01*
X1669897Y-15664446D02*
X1679421Y-15645398D01*
X1679421Y-15645398D02*
X1688944Y-15635874D01*
X1688944Y-15635874D02*
X1707992Y-15626350D01*
X1707992Y-15626350D02*
X1727040Y-15626350D01*
X1793706Y-15759684D02*
X1793706Y-15626350D01*
X1793706Y-15559684D02*
X1784182Y-15569208D01*
X1784182Y-15569208D02*
X1793706Y-15578731D01*
X1793706Y-15578731D02*
X1803230Y-15569208D01*
X1803230Y-15569208D02*
X1793706Y-15559684D01*
X1793706Y-15559684D02*
X1793706Y-15578731D01*
X1917516Y-15759684D02*
X1898468Y-15750160D01*
X1898468Y-15750160D02*
X1888944Y-15731112D01*
X1888944Y-15731112D02*
X1888944Y-15559684D01*
X2022278Y-15759684D02*
X2003230Y-15750160D01*
X2003230Y-15750160D02*
X1993706Y-15731112D01*
X1993706Y-15731112D02*
X1993706Y-15559684D01*
X2250849Y-15759684D02*
X2250849Y-15559684D01*
X2250849Y-15559684D02*
X2317516Y-15702541D01*
X2317516Y-15702541D02*
X2384183Y-15559684D01*
X2384183Y-15559684D02*
X2384183Y-15759684D01*
X2565135Y-15759684D02*
X2565135Y-15654922D01*
X2565135Y-15654922D02*
X2555611Y-15635874D01*
X2555611Y-15635874D02*
X2536564Y-15626350D01*
X2536564Y-15626350D02*
X2498468Y-15626350D01*
X2498468Y-15626350D02*
X2479421Y-15635874D01*
X2565135Y-15750160D02*
X2546087Y-15759684D01*
X2546087Y-15759684D02*
X2498468Y-15759684D01*
X2498468Y-15759684D02*
X2479421Y-15750160D01*
X2479421Y-15750160D02*
X2469897Y-15731112D01*
X2469897Y-15731112D02*
X2469897Y-15712065D01*
X2469897Y-15712065D02*
X2479421Y-15693017D01*
X2479421Y-15693017D02*
X2498468Y-15683493D01*
X2498468Y-15683493D02*
X2546087Y-15683493D01*
X2546087Y-15683493D02*
X2565135Y-15673969D01*
X2660373Y-15626350D02*
X2660373Y-15826350D01*
X2660373Y-15635874D02*
X2679421Y-15626350D01*
X2679421Y-15626350D02*
X2717516Y-15626350D01*
X2717516Y-15626350D02*
X2736564Y-15635874D01*
X2736564Y-15635874D02*
X2746087Y-15645398D01*
X2746087Y-15645398D02*
X2755611Y-15664446D01*
X2755611Y-15664446D02*
X2755611Y-15721588D01*
X2755611Y-15721588D02*
X2746087Y-15740636D01*
X2746087Y-15740636D02*
X2736564Y-15750160D01*
X2736564Y-15750160D02*
X2717516Y-15759684D01*
X2717516Y-15759684D02*
X2679421Y-15759684D01*
X2679421Y-15759684D02*
X2660373Y-15750160D01*
X2841325Y-15740636D02*
X2850849Y-15750160D01*
X2850849Y-15750160D02*
X2841325Y-15759684D01*
X2841325Y-15759684D02*
X2831802Y-15750160D01*
X2831802Y-15750160D02*
X2841325Y-15740636D01*
X2841325Y-15740636D02*
X2841325Y-15759684D01*
X2841325Y-15635874D02*
X2850849Y-15645398D01*
X2850849Y-15645398D02*
X2841325Y-15654922D01*
X2841325Y-15654922D02*
X2831802Y-15645398D01*
X2831802Y-15645398D02*
X2841325Y-15635874D01*
X2841325Y-15635874D02*
X2841325Y-15654922D01*
M02*
